<svg xmlns="http://www.w3.org/2000/svg" xmlns:xlink="http://www.w3.org/1999/xlink" width="420.078" height="319.051" viewBox="0 0 420.078 319.051">
  <defs>
    <linearGradient id="linear-gradient" x1="0.5" y1="1" x2="0.5" gradientUnits="objectBoundingBox">
      <stop offset="0" stop-color="gray" stop-opacity="0.251"/>
      <stop offset="0.54" stop-color="gray" stop-opacity="0.122"/>
      <stop offset="1" stop-color="gray" stop-opacity="0.102"/>
    </linearGradient>
    <linearGradient id="linear-gradient-2" y1="1" y2="0" xlink:href="#linear-gradient"/>
    <linearGradient id="linear-gradient-3" x1="0" y1="0.5" x2="1" y2="0.5" xlink:href="#linear-gradient"/>
    <linearGradient id="linear-gradient-4" x1="2.581" y1="1" x2="2.581" y2="0" xlink:href="#linear-gradient"/>
    <linearGradient id="linear-gradient-5" y1="1" y2="0" xlink:href="#linear-gradient"/>
    <linearGradient id="linear-gradient-6" x1="-25.357" y1="1.001" x2="-25.357" y2="0" xlink:href="#linear-gradient"/>
  </defs>
  <g id="Group_36" data-name="Group 36" transform="translate(-344.352 -3446.772)">
    <path id="Path_130" data-name="Path 130" d="M438.17,196.715c-14.769,20.265-9.895,49.192-1.358,72.238,2.859,7.715,6.107,15.874,4.625,24.268-1.811,10.261-10.321,17.949-19.168,22.136-16.127,7.632-35.178,6.413-49.6-3.2-12.449-8.3-21.212-22.091-33.9-29.994-21.239-13.222-48.811-7.315-72.449,2.78-16.723,7.141-35.042,16.338-51.339,9.744-11.468-4.64-19.19-16.451-23.253-29.078-1.962-6.1-3.335-12.713-7.243-17.485a26.738,26.738,0,0,0-8.552-6.466C147.111,226.566,110.043,236,82.1,219.161c-18.862-11.37-30.6-33.435-35.479-56.631S42.955,114.847,44.9,90.779c1.381-17.1,3.565-35.381,13.848-48.822,10.876-14.211,29.1-19.858,45.4-17.632s30.915,11.279,43.7,22.087c15.991,13.483,30.7,30.409,50.592,35.528,13.547,3.486,27.938,1.019,42.021-.072,23.54-1.818,47,.275,70.31,2.641C333.09,86.772,355.562,89.3,376.7,96.72c14.958,5.251,26.814,15.176,40.9,21.959,9.178,4.421,19.277,5.447,27.916,11.159,10.661,7.036,20.3,19.5,17.168,34.457C459.725,178.513,446.017,185.96,438.17,196.715Z" transform="translate(301.152 3422.917)" fill="#6ca2c5" opacity="0.1"/>
    <g id="Group_9" data-name="Group 9" transform="translate(641.983 3582.32)" opacity="0.5">
      <path id="Path_131" data-name="Path 131" d="M898.19,550.828s1.245-36.879,21.2-57.718a55.9,55.9,0,0,0,15.331-31.869,94.034,94.034,0,0,0,.468-17.191" transform="translate(-873.586 -420.516)" fill="none" stroke="#535461" stroke-miterlimit="10" stroke-width="2"/>
      <path id="Path_132" data-name="Path 132" d="M1004.25,392c-1.366,4.119-12.781,13.581-12.781,13.581s-3.5-14.414-2.131-18.53A7.855,7.855,0,1,1,1004.25,392Z" transform="translate(-930.153 -381.666)" fill="#6ca2c5"/>
      <path id="Path_133" data-name="Path 133" d="M1012.107,456.947c-3.4,2.716-18.107,4.459-18.107,4.459s4.9-14,8.3-16.712a7.854,7.854,0,1,1,9.808,12.253Z" transform="translate(-933.253 -419.715)" fill="#6ca2c5"/>
      <path id="Path_134" data-name="Path 134" d="M976.795,557.426c-4.293.634-17.885-5.281-17.885-5.281S970.2,542.533,974.5,541.9a7.856,7.856,0,1,1,2.3,15.542Z" transform="translate(-911.4 -481.399)" fill="#6ca2c5"/>
      <path id="Path_135" data-name="Path 135" d="M931.212,629.646c-4.123,1.351-18.522-2.2-18.522-2.2s9.51-11.381,13.633-12.732a7.856,7.856,0,1,1,4.9,14.927Z" transform="translate(-882.616 -526.556)" fill="#6ca2c5"/>
      <path id="Path_136" data-name="Path 136" d="M950.349,461.57c2,3.848,14.792,11.381,14.792,11.381s1.162-14.784-.841-18.636a7.854,7.854,0,1,0-13.935,7.251Z" transform="translate(-905.525 -424.275)" fill="#6ca2c5"/>
      <path id="Path_137" data-name="Path 137" d="M897,542.956c3.063,3.075,17.5,6.44,17.5,6.44s-3.316-14.456-6.375-17.53A7.854,7.854,0,0,0,897,542.952Z" transform="translate(-871.419 -473.765)" fill="#6ca2c5"/>
      <path id="Path_138" data-name="Path 138" d="M859.879,633.288c2.5,3.546,16.165,9.307,16.165,9.307s-.822-14.807-3.323-18.356a7.854,7.854,0,1,0-12.826,9.054Z" transform="translate(-848.747 -530.526)" fill="#6ca2c5"/>
      <path id="Path_139" data-name="Path 139" d="M879.706,590.237s-11.317-16.463-9.333-31.952a30.27,30.27,0,0,0-3.576-18.809,50.922,50.922,0,0,0-5.327-7.635" transform="translate(-850.719 -475.188)" fill="none" stroke="#535461" stroke-miterlimit="10" stroke-width="2"/>
      <path id="Path_140" data-name="Path 140" d="M850.945,501.1c.728,2.233-1.2,10.027-1.2,10.027s-6.16-5.153-6.888-7.383a4.252,4.252,0,1,1,8.084-2.641Z" transform="translate(-838.998 -454.223)" fill="#6ca2c5"/>
      <path id="Path_141" data-name="Path 141" d="M879.333,524.11c-.6,2.263-6.455,7.767-6.455,7.767s-2.369-7.673-1.769-9.944a4.254,4.254,0,0,1,8.224,2.177Z" transform="translate(-856.661 -467.047)" fill="#6ca2c5"/>
      <path id="Path_142" data-name="Path 142" d="M894.941,577.2c-1.664,1.656-9.491,3.448-9.491,3.448s1.826-7.82,3.493-9.476a4.255,4.255,0,0,1,6,6.036Z" transform="translate(-865.652 -498.91)" fill="#6ca2c5"/>
      <path id="Path_143" data-name="Path 143" d="M899.79,623.66c-1.362,1.913-8.79,4.995-8.79,4.995s.479-8.016,1.841-9.929a4.253,4.253,0,0,1,6.934,4.927Z" transform="translate(-869.109 -528.182)" fill="#6ca2c5"/>
      <path id="Path_144" data-name="Path 144" d="M849.9,548.674c2.109,1.034,10.1.2,10.1.2s-4.252-6.813-6.36-7.843a4.252,4.252,0,0,0-3.735,7.639Z" transform="translate(-842.029 -480.645)" fill="#6ca2c5"/>
      <path id="Path_145" data-name="Path 145" d="M852.864,601.313c2.324.355,9.7-2.826,9.7-2.826s-6.1-5.229-8.416-5.568a4.253,4.253,0,1,0-1.279,8.409Z" transform="translate(-843.109 -513.196)" fill="#6ca2c5"/>
      <path id="Path_146" data-name="Path 146" d="M865.96,652.658c2.23.754,10.035-1.132,10.035-1.132s-5.123-6.183-7.352-6.926a4.253,4.253,0,0,0-2.682,8.073Z" transform="translate(-851.701 -545.275)" fill="#6ca2c5"/>
      <path id="Path_147" data-name="Path 147" d="M850.945,501.1c.728,2.233-1.2,10.027-1.2,10.027s-6.16-5.153-6.888-7.383a4.252,4.252,0,1,1,8.084-2.641Z" transform="translate(-838.998 -454.223)" fill="#fff" opacity="0.5"/>
      <path id="Path_148" data-name="Path 148" d="M879.333,524.11c-.6,2.263-6.455,7.767-6.455,7.767s-2.369-7.673-1.769-9.944a4.254,4.254,0,0,1,8.224,2.177Z" transform="translate(-856.661 -467.047)" fill="#fff" opacity="0.5"/>
      <path id="Path_149" data-name="Path 149" d="M894.941,577.2c-1.664,1.656-9.491,3.448-9.491,3.448s1.826-7.82,3.493-9.476a4.255,4.255,0,0,1,6,6.036Z" transform="translate(-865.652 -498.91)" fill="#fff" opacity="0.5"/>
      <path id="Path_150" data-name="Path 150" d="M899.79,623.66c-1.362,1.913-8.79,4.995-8.79,4.995s.479-8.016,1.841-9.929a4.253,4.253,0,0,1,6.934,4.927Z" transform="translate(-869.109 -528.182)" fill="#fff" opacity="0.5"/>
      <path id="Path_151" data-name="Path 151" d="M849.9,548.674c2.109,1.034,10.1.2,10.1.2s-4.252-6.813-6.36-7.843a4.252,4.252,0,0,0-3.735,7.639Z" transform="translate(-842.029 -480.645)" fill="#fff" opacity="0.5"/>
      <path id="Path_152" data-name="Path 152" d="M852.864,601.313c2.324.355,9.7-2.826,9.7-2.826s-6.1-5.229-8.416-5.568a4.253,4.253,0,1,0-1.279,8.409Z" transform="translate(-843.109 -513.196)" fill="#fff" opacity="0.5"/>
      <path id="Path_153" data-name="Path 153" d="M865.96,652.658c2.23.754,10.035-1.132,10.035-1.132s-5.123-6.183-7.352-6.926a4.253,4.253,0,0,0-2.682,8.073Z" transform="translate(-851.701 -545.275)" fill="#fff" opacity="0.5"/>
      <path id="Path_154" data-name="Path 154" d="M797.817,700.07h32.19l8.05-49.09H789.77Z" transform="translate(-789.77 -540.383)" fill="#474059"/>
      <path id="Path_155" data-name="Path 155" d="M795.93,650.98l7.518,45.872h27.086l-.528,3.218h-32.19l-8.047-49.09Z" transform="translate(-789.77 -540.383)" opacity="0.1"/>
    </g>
    <rect id="Rectangle_27" data-name="Rectangle 27" width="236.152" height="284.929" transform="translate(420.228 3461.682)" fill="url(#linear-gradient)"/>
    <rect id="Rectangle_28" data-name="Rectangle 28" width="230.116" height="277.648" transform="translate(423.244 3465.318)" fill="#fff"/>
    <rect id="Rectangle_29" data-name="Rectangle 29" width="92.801" height="4.527" transform="translate(512.573 3495.285)" fill="#c0bccf"/>
    <rect id="Rectangle_30" data-name="Rectangle 30" width="92.801" height="4.527" transform="translate(512.573 3509.767)" fill="#c0bccf"/>
    <rect id="Rectangle_31" data-name="Rectangle 31" width="48.287" height="4.527" transform="translate(534.816 3524.249)" fill="#6ca2c5"/>
    <rect id="Rectangle_32" data-name="Rectangle 32" width="92.801" height="4.527" transform="translate(512.573 3587.133)" fill="#c0bccf" opacity="0.5"/>
    <rect id="Rectangle_33" data-name="Rectangle 33" width="92.801" height="4.527" transform="translate(512.573 3601.615)" fill="#c0bccf" opacity="0.5"/>
    <rect id="Rectangle_34" data-name="Rectangle 34" width="48.287" height="4.527" transform="translate(534.816 3616.097)" fill="#6ca2c5" opacity="0.5"/>
    <rect id="Rectangle_35" data-name="Rectangle 35" width="92.801" height="4.527" transform="translate(512.573 3678.98)" fill="#c0bccf" opacity="0.5"/>
    <rect id="Rectangle_36" data-name="Rectangle 36" width="92.801" height="4.527" transform="translate(512.573 3693.462)" fill="#c0bccf" opacity="0.5"/>
    <rect id="Rectangle_37" data-name="Rectangle 37" width="48.287" height="4.527" transform="translate(534.816 3707.945)" fill="#6ca2c5" opacity="0.5"/>
    <g id="Group_10" data-name="Group 10" transform="translate(435.73 3578.265)" opacity="0.5">
      <path id="Path_156" data-name="Path 156" d="M336.785,398.451a25.531,25.531,0,0,1-6.175,16.693c-.2.23-.4.456-.607.679q-.155.174-.317.34a25.172,25.172,0,0,1-2.739,2.486l-.068.049a25.073,25.073,0,0,1-4.866,2.988h0a25.277,25.277,0,0,1-2.731,1.094l-.343.109c-.211.072-.43.136-.645.2l-.087.026a25.777,25.777,0,0,1-14.165,0H304c-.377-.109-.754-.223-1.1-.347l-.321-.113a24.869,24.869,0,0,1-3.546-1.569l-.072-.038a25.751,25.751,0,0,1-5.025-3.557l-.124-.117a23.972,23.972,0,0,1-2.192-2.263c-.09-.1-.177-.207-.264-.313-.166-.2-.324-.4-.483-.6a25.652,25.652,0,1,1,45.91-15.738Z" transform="translate(-285.48 -372.798)" fill="#c0bccf"/>
      <path id="Path_157" data-name="Path 157" d="M338.67,416.434l-1.947-.875a7.722,7.722,0,0,0,.038-.89,6.991,6.991,0,0,0,0-.754c-.192-1.984-1.456-3.712-2.35-5.527a15.7,15.7,0,0,1-1.535-5.281c-.238-2.263,0-4.61-.83-6.738a12.157,12.157,0,0,0-3.44-4.417,17.463,17.463,0,0,0-5.527-3.5,9.774,9.774,0,0,0-6.583-.177,14.2,14.2,0,0,0-4.742,3.425,15.939,15.939,0,0,0-2.678,3.048,13.183,13.183,0,0,0-1.509,4.61,70.523,70.523,0,0,0-.928,7.7c-.147,2.154-.377,4.6-2.218,5.919-.9.645-2.162,1.007-2.573,1.984a2.029,2.029,0,0,0-.136.924,3.4,3.4,0,0,0,.057.781c.026.151.057.3.094.449a33.1,33.1,0,0,0-1.328,4.029c-.275,1.019-.528,2.018-.754,2.988h.936l3.516.083h.049l3.772.087h.019l3.516.083h.087l1.015.072h.332l14.06.324h.075l.936.023h.328l2.814.064h0l4.15.094h.03l3.124.075h.973l-.166-3.274C340.031,416.747,338.67,416.434,338.67,416.434Zm-15.8-.4c0,2.776-2.973,6.175-2.973,6.175l-2.991-4.074.109-.158L319.9,421.9s2.973-3.4,2.973-6.175a3.267,3.267,0,0,1,.238-.407l.068.211A4.008,4.008,0,0,0,322.875,416.034Zm4.572,10.895a2.269,2.269,0,0,0-.026-.422c-.026-.14-.023-.264-.041-.4s-.034-.268-.053-.4-.045-.268-.072-.4-.053-.268-.083-.4a.633.633,0,0,0-.03-.136q-.062-.266-.136-.532c-.049-.177-.079-.287-.125-.426a.579.579,0,0,0-.06-.189c-.023-.06-.064-.2-.1-.306l-.068-.2c-.03-.087-.06-.177-.094-.264-.057-.158-.117-.313-.177-.472s-.124-.313-.189-.468c-.128-.317-.268-.63-.407-.947-.547-1.222-1.162-2.426-1.728-3.618a19.239,19.239,0,0,1-.807-1.916l-.072.094a4.01,4.01,0,0,0-.306.509c0,2.776-2.973,6.175-2.973,6.175l-2.991-4.074-2.618,3.772a3.052,3.052,0,0,0-1.049,1.743c-.083.245-.162.517-.238.8-.053.192-.1.377-.147.592-.026.1-.049.2-.072.309l-.068.321v.049c-.045.219-.091.445-.132.675s-.091.494-.132.755q-.045.245-.079.487c-.053.313-.1.63-.143.947-.026.185-.053.377-.075.547l-.091.7c.192.577.407,1.132.63,1.713a2.694,2.694,0,0,1,.245.97,27.493,27.493,0,0,0,14.165,0,.129.129,0,0,1,0-.034,3.937,3.937,0,0,1-.091-.962h0a24.861,24.861,0,0,1,.377-2.7,9.227,9.227,0,0,0,.072-1.328v-.158c-.011-.143-.015-.272-.019-.4Zm0,0a2.269,2.269,0,0,0-.026-.422c-.026-.14-.023-.264-.041-.4s-.034-.268-.053-.4-.045-.268-.072-.4-.053-.268-.083-.4a.633.633,0,0,0-.03-.136q-.062-.266-.136-.532c-.049-.177-.079-.287-.125-.426a.579.579,0,0,0-.06-.189c-.023-.06-.064-.2-.1-.306l-.068-.2c-.03-.087-.06-.177-.094-.264-.057-.158-.117-.313-.177-.472s-.124-.313-.189-.468c-.128-.317-.268-.63-.407-.947-.547-1.222-1.162-2.426-1.728-3.618a19.239,19.239,0,0,1-.807-1.916l-.072.094a4.01,4.01,0,0,0-.306.509c0,2.776-2.973,6.175-2.973,6.175l-2.991-4.074-2.618,3.772a3.052,3.052,0,0,0-1.049,1.743c-.083.245-.162.517-.238.8-.053.192-.1.377-.147.592-.026.1-.049.2-.072.309l-.068.321v.049c-.045.219-.091.445-.132.675s-.091.494-.132.755q-.045.245-.079.487c-.053.313-.1.63-.143.947-.026.185-.053.377-.075.547l-.091.7c.192.577.407,1.132.63,1.713a2.694,2.694,0,0,1,.245.97,27.493,27.493,0,0,0,14.165,0,.129.129,0,0,1,0-.034,3.937,3.937,0,0,1-.091-.962h0a24.861,24.861,0,0,1,.377-2.7,9.227,9.227,0,0,0,.072-1.328v-.158c-.011-.143-.015-.272-.019-.4Zm0,0a2.269,2.269,0,0,0-.026-.422c-.026-.14-.023-.264-.041-.4s-.034-.268-.053-.4-.045-.268-.072-.4-.053-.268-.083-.4a.633.633,0,0,0-.03-.136q-.062-.266-.136-.532c-.049-.177-.079-.287-.125-.426a.579.579,0,0,0-.06-.189c-.023-.06-.064-.2-.1-.306l-.068-.2c-.03-.087-.06-.177-.094-.264-.057-.158-.117-.313-.177-.472s-.124-.313-.189-.468c-.128-.317-.268-.63-.407-.947-.547-1.222-1.162-2.426-1.728-3.618a19.239,19.239,0,0,1-.807-1.916l-.072.094a4.01,4.01,0,0,0-.306.509c0,2.776-2.973,6.175-2.973,6.175l-2.991-4.074-2.618,3.772a3.052,3.052,0,0,0-1.049,1.743c-.083.245-.162.517-.238.8-.053.192-.1.377-.147.592-.026.1-.049.2-.072.309l-.068.321v.049c-.045.219-.091.445-.132.675s-.091.494-.132.755q-.045.245-.079.487c-.053.313-.1.63-.143.947-.026.185-.053.377-.075.547l-.091.7c.192.577.407,1.132.63,1.713a2.694,2.694,0,0,1,.245.97,27.493,27.493,0,0,0,14.165,0,.129.129,0,0,1,0-.034,3.937,3.937,0,0,1-.091-.962h0a24.861,24.861,0,0,1,.377-2.7,9.227,9.227,0,0,0,.072-1.328v-.158c-.011-.143-.015-.272-.019-.4Zm0,0a2.269,2.269,0,0,0-.026-.422c-.026-.14-.023-.264-.041-.4s-.034-.268-.053-.4-.045-.268-.072-.4-.053-.268-.083-.4a.633.633,0,0,0-.03-.136q-.062-.266-.136-.532c-.049-.177-.079-.287-.125-.426a.579.579,0,0,0-.06-.189c-.023-.06-.064-.2-.1-.306l-.068-.2c-.03-.087-.06-.177-.094-.264-.057-.158-.117-.313-.177-.472s-.124-.313-.189-.468c-.128-.317-.268-.63-.407-.947-.547-1.222-1.162-2.426-1.728-3.618a19.239,19.239,0,0,1-.807-1.916l-.072.094a4.01,4.01,0,0,0-.306.509c0,2.776-2.973,6.175-2.973,6.175l-2.991-4.074-2.618,3.772a3.052,3.052,0,0,0-1.049,1.743c-.083.245-.162.517-.238.8-.053.192-.1.377-.147.592-.026.1-.049.2-.072.309l-.068.321v.049c-.045.219-.091.445-.132.675s-.091.494-.132.755q-.045.245-.079.487c-.053.313-.1.63-.143.947-.026.185-.053.377-.075.547l-.091.7c.192.577.407,1.132.63,1.713a2.694,2.694,0,0,1,.245.97,27.493,27.493,0,0,0,14.165,0,.129.129,0,0,1,0-.034,3.937,3.937,0,0,1-.091-.962h0a24.861,24.861,0,0,1,.377-2.7,9.227,9.227,0,0,0,.072-1.328v-.158c-.011-.143-.015-.272-.019-.4Z" transform="translate(-294.385 -382.127)" fill="url(#linear-gradient-2)"/>
      <rect id="Rectangle_38" data-name="Rectangle 38" width="17.353" height="11.694" transform="translate(15.844 18.489)" fill="#493545"/>
      <path id="Path_158" data-name="Path 158" d="M347.406,438.027l-7.262,10.231-7.59-.66s-9.9.656-3.3-6.93c3.173-3.648,4.21-6.688,4.433-8.858a6.859,6.859,0,0,0-.472-3.682l8.25-.988a6.157,6.157,0,0,0-.136,3.444C342.363,434.87,347.406,438.027,347.406,438.027Z" transform="translate(-311.327 -406.64)" fill="#c77485"/>
      <path id="Path_159" data-name="Path 159" d="M351.6,430.56a8.247,8.247,0,0,1-7.643,1.23,6.859,6.859,0,0,0-.472-3.682l8.25-.988a6.157,6.157,0,0,0-.136,3.44Z" transform="translate(-321.606 -406.628)" opacity="0.1"/>
      <circle id="Ellipse_25" data-name="Ellipse 25" cx="8.25" cy="8.25" r="8.25" transform="translate(16.772 8.775)" fill="#c77485"/>
      <path id="Path_160" data-name="Path 160" d="M343.515,451.888l-.192-.754-.166-.664-.245-.981-.045-.181-.038-.151s.2-.592-1.1-.4l-.241.041c-.2.042-.441.1-.713.174l-.245.075-.324.1h0a7.074,7.074,0,0,0-2.739,1.652,6.17,6.17,0,0,0-.917,1.109c-.026.038-.045.072-.068.1a3.559,3.559,0,0,0-.238.438c0,2.973-2.973,6.6-2.973,6.6l-2.9-4.191-.057-.083-.69-1-.245-.324-.083-.113-1.509-2.026-.377-.505-.124-.17-.185-.245-.434-.577-1.7.992-2.263,1.32-1.32,8.582v.238l.041.709.275,4.663v.064l-.483,1.931.072.038a24.875,24.875,0,0,0,3.546,1.569l.321.113c.377.124.732.238,1.1.347a1.333,1.333,0,0,1,.03.17v-.162a25.777,25.777,0,0,0,14.165,0l.087-.026c.215-.06.434-.125.645-.2l.343-.109a25.261,25.261,0,0,0,2.731-1.094l.317-6.753.226-4.87v-.279Z" transform="translate(-307.737 -420.078)" opacity="0.1"/>
      <path id="Path_161" data-name="Path 161" d="M340.936,464.983a2.609,2.609,0,0,0-.026-.453c-.026-.151-.023-.283-.042-.426s-.034-.287-.053-.43-.045-.287-.072-.43-.053-.287-.083-.43a.646.646,0,0,0-.03-.143c-.042-.189-.087-.377-.136-.57s-.079-.306-.124-.456a.643.643,0,0,0-.06-.2c-.023-.064-.064-.219-.1-.328l-.068-.211c-.03-.094-.06-.189-.094-.283-.057-.17-.117-.336-.177-.506s-.125-.336-.189-.5c-.128-.34-.268-.675-.407-1.011-.547-1.305-1.162-2.592-1.728-3.867a21.392,21.392,0,0,1-.807-2.048l-.072.1a4.356,4.356,0,0,0-.306.543c0,2.969-2.973,6.6-2.973,6.6l-2.992-4.357-2.618,4.025a3.288,3.288,0,0,0-1.049,1.864c-.083.264-.162.551-.238.856-.053.2-.1.419-.147.634-.026.109-.049.219-.072.332l-.068.343v.053c-.045.234-.091.475-.132.721s-.091.528-.132.8q-.045.26-.079.521c-.053.336-.1.675-.143,1.011-.026.2-.053.377-.075.585l-.091.754c.192.619.407,1.23.63,1.83a3.041,3.041,0,0,1,.245,1.037,25.776,25.776,0,0,0,14.165,0,.145.145,0,0,1,0-.038,4.491,4.491,0,0,1-.091-1.03h0a28.282,28.282,0,0,1,.377-2.886,10.569,10.569,0,0,0,.072-1.418v-.17C340.943,465.254,340.94,465.119,340.936,464.983Zm0,0a2.609,2.609,0,0,0-.026-.453c-.026-.151-.023-.283-.042-.426s-.034-.287-.053-.43-.045-.287-.072-.43-.053-.287-.083-.43a.646.646,0,0,0-.03-.143c-.042-.189-.087-.377-.136-.57s-.079-.306-.124-.456a.643.643,0,0,0-.06-.2c-.023-.064-.064-.219-.1-.328l-.068-.211c-.03-.094-.06-.189-.094-.283-.057-.17-.117-.336-.177-.506s-.125-.336-.189-.5c-.128-.34-.268-.675-.407-1.011-.547-1.305-1.162-2.592-1.728-3.867a21.392,21.392,0,0,1-.807-2.048l-.072.1a4.356,4.356,0,0,0-.306.543c0,2.969-2.973,6.6-2.973,6.6l-2.992-4.357-2.618,4.025a3.288,3.288,0,0,0-1.049,1.864c-.083.264-.162.551-.238.856-.053.2-.1.419-.147.634-.026.109-.049.219-.072.332l-.068.343v.053c-.045.234-.091.475-.132.721s-.091.528-.132.8q-.045.26-.079.521c-.053.336-.1.675-.143,1.011-.026.2-.053.377-.075.585l-.091.754c.192.619.407,1.23.63,1.83a3.041,3.041,0,0,1,.245,1.037,25.776,25.776,0,0,0,14.165,0,.145.145,0,0,1,0-.038,4.491,4.491,0,0,1-.091-1.03h0a28.282,28.282,0,0,1,.377-2.886,10.569,10.569,0,0,0,.072-1.418v-.17C340.943,465.254,340.94,465.119,340.936,464.983Zm0,0a2.609,2.609,0,0,0-.026-.453c-.026-.151-.023-.283-.042-.426s-.034-.287-.053-.43-.045-.287-.072-.43-.053-.287-.083-.43a.646.646,0,0,0-.03-.143c-.042-.189-.087-.377-.136-.57s-.079-.306-.124-.456a.643.643,0,0,0-.06-.2c-.023-.064-.064-.219-.1-.328l-.068-.211c-.03-.094-.06-.189-.094-.283-.057-.17-.117-.336-.177-.506s-.125-.336-.189-.5c-.128-.34-.268-.675-.407-1.011-.547-1.305-1.162-2.592-1.728-3.867a21.392,21.392,0,0,1-.807-2.048l-.072.1a4.356,4.356,0,0,0-.306.543c0,2.969-2.973,6.6-2.973,6.6l-2.992-4.357-2.618,4.025a3.288,3.288,0,0,0-1.049,1.864c-.083.264-.162.551-.238.856-.053.2-.1.419-.147.634-.026.109-.049.219-.072.332l-.068.343v.053c-.045.234-.091.475-.132.721s-.091.528-.132.8q-.045.26-.079.521c-.053.336-.1.675-.143,1.011-.026.2-.053.377-.075.585l-.091.754c.192.619.407,1.23.63,1.83a3.041,3.041,0,0,1,.245,1.037,25.776,25.776,0,0,0,14.165,0,.145.145,0,0,1,0-.038,4.491,4.491,0,0,1-.091-1.03h0a28.282,28.282,0,0,1,.377-2.886,10.569,10.569,0,0,0,.072-1.418v-.17C340.943,465.254,340.94,465.119,340.936,464.983Zm4-7.081-1.347-5.376-.23-.92-.064-.253h0l-.328-1.313a.262.262,0,0,0,0-.034h0a.3.3,0,0,0-.026-.17c-.049-.1-.174-.2-.464-.226a2.345,2.345,0,0,0-.332,0h0a5.743,5.743,0,0,0-.969.181c-.155.042-.321.087-.5.143l-.324.1h-.03a7.2,7.2,0,0,0-2.377,1.32,6.413,6.413,0,0,0-1.207,1.335l-.072.1a4.365,4.365,0,0,0-.306.543c0,2.969-2.973,6.6-2.973,6.6l-2.992-4.357-.17-.245-.03-.042-.434-.638-.328-.438-.087-.113-1.547-2.064h0l-.49-.668v-.023l-.17-.23-.324-.43-1.132.66L322.855,453l-1.305,8.492v.091l.038.619.279,4.727v.268l-.426,1.7a24.876,24.876,0,0,0,3.546,1.569l.321.113c.377.124.732.238,1.1.347a1.334,1.334,0,0,1,.03.17v-.162a25.777,25.777,0,0,0,14.165,0l.087-.026c.215-.06.434-.124.645-.2l.343-.109a25.271,25.271,0,0,0,2.731-1.094h0l.313-6.745.226-4.817Zm-18.553,13.026a1.323,1.323,0,0,1,.03.17c0-.053,0-.109,0-.162Zm14.554-5.945a2.609,2.609,0,0,0-.026-.453c-.026-.151-.023-.283-.042-.426s-.034-.287-.053-.43-.045-.287-.072-.43-.053-.287-.083-.43a.646.646,0,0,0-.03-.143c-.042-.189-.087-.377-.136-.57s-.079-.306-.124-.456a.643.643,0,0,0-.06-.2c-.023-.064-.064-.219-.1-.328l-.068-.211c-.03-.094-.06-.189-.094-.283-.057-.17-.117-.336-.177-.506s-.125-.336-.189-.5c-.128-.34-.268-.675-.407-1.011-.547-1.305-1.162-2.592-1.728-3.867a21.392,21.392,0,0,1-.807-2.048l-.072.1a4.356,4.356,0,0,0-.306.543c0,2.969-2.973,6.6-2.973,6.6l-2.992-4.357-2.618,4.025a3.288,3.288,0,0,0-1.049,1.864c-.083.264-.162.551-.238.856-.053.2-.1.419-.147.634-.026.109-.049.219-.072.332l-.068.343v.053c-.045.234-.091.475-.132.721s-.091.528-.132.8q-.045.26-.079.521c-.053.336-.1.675-.143,1.011-.026.2-.053.377-.075.585l-.091.754c.192.619.407,1.23.63,1.83a3.041,3.041,0,0,1,.245,1.037,25.776,25.776,0,0,0,14.165,0,.145.145,0,0,1,0-.038,4.491,4.491,0,0,1-.091-1.03h0a28.282,28.282,0,0,1,.377-2.886,10.569,10.569,0,0,0,.072-1.418v-.17C340.943,465.254,340.94,465.119,340.936,464.983Zm0,0a2.609,2.609,0,0,0-.026-.453c-.026-.151-.023-.283-.042-.426s-.034-.287-.053-.43-.045-.287-.072-.43-.053-.287-.083-.43a.646.646,0,0,0-.03-.143c-.042-.189-.087-.377-.136-.57s-.079-.306-.124-.456a.643.643,0,0,0-.06-.2c-.023-.064-.064-.219-.1-.328l-.068-.211c-.03-.094-.06-.189-.094-.283-.057-.17-.117-.336-.177-.506s-.125-.336-.189-.5c-.128-.34-.268-.675-.407-1.011-.547-1.305-1.162-2.592-1.728-3.867a21.392,21.392,0,0,1-.807-2.048l-.072.1a4.356,4.356,0,0,0-.306.543c0,2.969-2.973,6.6-2.973,6.6l-2.992-4.357-2.618,4.025a3.288,3.288,0,0,0-1.049,1.864c-.083.264-.162.551-.238.856-.053.2-.1.419-.147.634-.026.109-.049.219-.072.332l-.068.343v.053c-.045.234-.091.475-.132.721s-.091.528-.132.8q-.045.26-.079.521c-.053.336-.1.675-.143,1.011-.026.2-.053.377-.075.585l-.091.754c.192.619.407,1.23.63,1.83a3.041,3.041,0,0,1,.245,1.037,25.776,25.776,0,0,0,14.165,0,.145.145,0,0,1,0-.038,4.491,4.491,0,0,1-.091-1.03h0a28.282,28.282,0,0,1,.377-2.886,10.569,10.569,0,0,0,.072-1.418v-.17C340.943,465.254,340.94,465.119,340.936,464.983Zm0,0a2.609,2.609,0,0,0-.026-.453c-.026-.151-.023-.283-.042-.426s-.034-.287-.053-.43-.045-.287-.072-.43-.053-.287-.083-.43a.646.646,0,0,0-.03-.143c-.042-.189-.087-.377-.136-.57s-.079-.306-.124-.456a.643.643,0,0,0-.06-.2c-.023-.064-.064-.219-.1-.328l-.068-.211c-.03-.094-.06-.189-.094-.283-.057-.17-.117-.336-.177-.506s-.125-.336-.189-.5c-.128-.34-.268-.675-.407-1.011-.547-1.305-1.162-2.592-1.728-3.867a21.392,21.392,0,0,1-.807-2.048l-.072.1a4.356,4.356,0,0,0-.306.543c0,2.969-2.973,6.6-2.973,6.6l-2.992-4.357-2.618,4.025a3.288,3.288,0,0,0-1.049,1.864c-.083.264-.162.551-.238.856-.053.2-.1.419-.147.634-.026.109-.049.219-.072.332l-.068.343v.053c-.045.234-.091.475-.132.721s-.091.528-.132.8q-.045.26-.079.521c-.053.336-.1.675-.143,1.011-.026.2-.053.377-.075.585l-.091.754c.192.619.407,1.23.63,1.83a3.041,3.041,0,0,1,.245,1.037,25.776,25.776,0,0,0,14.165,0,.145.145,0,0,1,0-.038,4.491,4.491,0,0,1-.091-1.03h0a28.282,28.282,0,0,1,.377-2.886,10.569,10.569,0,0,0,.072-1.418v-.17C340.943,465.254,340.94,465.119,340.936,464.983Zm0,0a2.609,2.609,0,0,0-.026-.453c-.026-.151-.023-.283-.042-.426s-.034-.287-.053-.43-.045-.287-.072-.43-.053-.287-.083-.43a.646.646,0,0,0-.03-.143c-.042-.189-.087-.377-.136-.57s-.079-.306-.124-.456a.643.643,0,0,0-.06-.2c-.023-.064-.064-.219-.1-.328l-.068-.211c-.03-.094-.06-.189-.094-.283-.057-.17-.117-.336-.177-.506s-.125-.336-.189-.5c-.128-.34-.268-.675-.407-1.011-.547-1.305-1.162-2.592-1.728-3.867a21.392,21.392,0,0,1-.807-2.048l-.072.1a4.356,4.356,0,0,0-.306.543c0,2.969-2.973,6.6-2.973,6.6l-2.992-4.357-2.618,4.025a3.288,3.288,0,0,0-1.049,1.864c-.083.264-.162.551-.238.856-.053.2-.1.419-.147.634-.026.109-.049.219-.072.332l-.068.343v.053c-.045.234-.091.475-.132.721s-.091.528-.132.8q-.045.26-.079.521c-.053.336-.1.675-.143,1.011-.026.2-.053.377-.075.585l-.091.754c.192.619.407,1.23.63,1.83a3.041,3.041,0,0,1,.245,1.037,25.776,25.776,0,0,0,14.165,0,.145.145,0,0,1,0-.038,4.491,4.491,0,0,1-.091-1.03h0a28.282,28.282,0,0,1,.377-2.886,10.569,10.569,0,0,0,.072-1.418v-.17C340.943,465.254,340.94,465.119,340.936,464.983Zm0,0a2.609,2.609,0,0,0-.026-.453c-.026-.151-.023-.283-.042-.426s-.034-.287-.053-.43-.045-.287-.072-.43-.053-.287-.083-.43a.646.646,0,0,0-.03-.143c-.042-.189-.087-.377-.136-.57s-.079-.306-.124-.456a.643.643,0,0,0-.06-.2c-.023-.064-.064-.219-.1-.328l-.068-.211c-.03-.094-.06-.189-.094-.283-.057-.17-.117-.336-.177-.506s-.125-.336-.189-.5c-.128-.34-.268-.675-.407-1.011-.547-1.305-1.162-2.592-1.728-3.867a21.392,21.392,0,0,1-.807-2.048l-.072.1a4.356,4.356,0,0,0-.306.543c0,2.969-2.973,6.6-2.973,6.6l-2.992-4.357-2.618,4.025a3.288,3.288,0,0,0-1.049,1.864c-.083.264-.162.551-.238.856-.053.2-.1.419-.147.634-.026.109-.049.219-.072.332l-.068.343v.053c-.045.234-.091.475-.132.721s-.091.528-.132.8q-.045.26-.079.521c-.053.336-.1.675-.143,1.011-.026.2-.053.377-.075.585l-.091.754c.192.619.407,1.23.63,1.83a3.041,3.041,0,0,1,.245,1.037,25.776,25.776,0,0,0,14.165,0,.145.145,0,0,1,0-.038,4.491,4.491,0,0,1-.091-1.03h0a28.282,28.282,0,0,1,.377-2.886,10.569,10.569,0,0,0,.072-1.418v-.17C340.943,465.254,340.94,465.119,340.936,464.983Zm0,0a2.609,2.609,0,0,0-.026-.453c-.026-.151-.023-.283-.042-.426s-.034-.287-.053-.43-.045-.287-.072-.43-.053-.287-.083-.43a.646.646,0,0,0-.03-.143c-.042-.189-.087-.377-.136-.57s-.079-.306-.124-.456a.643.643,0,0,0-.06-.2c-.023-.064-.064-.219-.1-.328l-.068-.211c-.03-.094-.06-.189-.094-.283-.057-.17-.117-.336-.177-.506s-.125-.336-.189-.5c-.128-.34-.268-.675-.407-1.011-.547-1.305-1.162-2.592-1.728-3.867a21.392,21.392,0,0,1-.807-2.048l-.072.1a4.356,4.356,0,0,0-.306.543c0,2.969-2.973,6.6-2.973,6.6l-2.992-4.357-2.618,4.025a3.288,3.288,0,0,0-1.049,1.864c-.083.264-.162.551-.238.856-.053.2-.1.419-.147.634-.026.109-.049.219-.072.332l-.068.343v.053c-.045.234-.091.475-.132.721s-.091.528-.132.8q-.045.26-.079.521c-.053.336-.1.675-.143,1.011-.026.2-.053.377-.075.585l-.091.754c.192.619.407,1.23.63,1.83a3.041,3.041,0,0,1,.245,1.037,25.776,25.776,0,0,0,14.165,0,.145.145,0,0,1,0-.038,4.491,4.491,0,0,1-.091-1.03h0a28.282,28.282,0,0,1,.377-2.886,10.569,10.569,0,0,0,.072-1.418v-.17C340.943,465.254,340.94,465.119,340.936,464.983Zm0,0a2.609,2.609,0,0,0-.026-.453c-.026-.151-.023-.283-.042-.426s-.034-.287-.053-.43-.045-.287-.072-.43-.053-.287-.083-.43a.646.646,0,0,0-.03-.143c-.042-.189-.087-.377-.136-.57s-.079-.306-.124-.456a.643.643,0,0,0-.06-.2c-.023-.064-.064-.219-.1-.328l-.068-.211c-.03-.094-.06-.189-.094-.283-.057-.17-.117-.336-.177-.506s-.125-.336-.189-.5c-.128-.34-.268-.675-.407-1.011-.547-1.305-1.162-2.592-1.728-3.867a21.392,21.392,0,0,1-.807-2.048l-.072.1a4.356,4.356,0,0,0-.306.543c0,2.969-2.973,6.6-2.973,6.6l-2.992-4.357-2.618,4.025a3.288,3.288,0,0,0-1.049,1.864c-.083.264-.162.551-.238.856-.053.2-.1.419-.147.634-.026.109-.049.219-.072.332l-.068.343v.053c-.045.234-.091.475-.132.721s-.091.528-.132.8q-.045.26-.079.521c-.053.336-.1.675-.143,1.011-.026.2-.053.377-.075.585l-.091.754c.192.619.407,1.23.63,1.83a3.041,3.041,0,0,1,.245,1.037,25.776,25.776,0,0,0,14.165,0,.145.145,0,0,1,0-.038,4.491,4.491,0,0,1-.091-1.03h0a28.282,28.282,0,0,1,.377-2.886,10.569,10.569,0,0,0,.072-1.418v-.17C340.943,465.254,340.94,465.119,340.936,464.983Zm0,0a2.609,2.609,0,0,0-.026-.453c-.026-.151-.023-.283-.042-.426s-.034-.287-.053-.43-.045-.287-.072-.43-.053-.287-.083-.43a.646.646,0,0,0-.03-.143c-.042-.189-.087-.377-.136-.57s-.079-.306-.124-.456a.643.643,0,0,0-.06-.2c-.023-.064-.064-.219-.1-.328l-.068-.211c-.03-.094-.06-.189-.094-.283-.057-.17-.117-.336-.177-.506s-.125-.336-.189-.5c-.128-.34-.268-.675-.407-1.011-.547-1.305-1.162-2.592-1.728-3.867a21.392,21.392,0,0,1-.807-2.048l-.072.1a4.356,4.356,0,0,0-.306.543c0,2.969-2.973,6.6-2.973,6.6l-2.992-4.357-2.618,4.025a3.288,3.288,0,0,0-1.049,1.864c-.083.264-.162.551-.238.856-.053.2-.1.419-.147.634-.026.109-.049.219-.072.332l-.068.343v.053c-.045.234-.091.475-.132.721s-.091.528-.132.8q-.045.26-.079.521c-.053.336-.1.675-.143,1.011-.026.2-.053.377-.075.585l-.091.754c.192.619.407,1.23.63,1.83a3.041,3.041,0,0,1,.245,1.037,25.776,25.776,0,0,0,14.165,0,.145.145,0,0,1,0-.038,4.491,4.491,0,0,1-.091-1.03h0a28.282,28.282,0,0,1,.377-2.886,10.569,10.569,0,0,0,.072-1.418v-.17C340.943,465.254,340.94,465.119,340.936,464.983Z" transform="translate(-307.874 -420.63)" fill="#fff"/>
      <path id="Path_162" data-name="Path 162" d="M318.171,455.485l-.253-.034a9.19,9.19,0,0,1-1.132-.226l-.14-.038c-.92-.26-1.928-.728-2.154-1.55a1.467,1.467,0,0,1,.023-.8,6.89,6.89,0,0,1,.513-1.3v-.023a1.809,1.809,0,0,1,.094-.17,3.773,3.773,0,0,1,1.362-1.483l-.453.072-3.833.622-5.942.958s-1.056-.211-2.494,3.75a.612.612,0,0,1-.049.147c-.347.97-.713,2.18-1.09,3.693-.26,1.049-.5,2.079-.717,3.078-.064.3-.128.6-.189.894a23.964,23.964,0,0,0,2.192,2.263l.125.117a25.75,25.75,0,0,0,5.025,3.557l.072.038a24.873,24.873,0,0,0,3.546,1.569l.321.113c.068-.7.143-1.471.234-2.263a.644.644,0,0,1,.03-.238l.091-.755c.023-.192.049-.377.075-.585.045-.336.091-.675.143-1.011q.034-.26.079-.521c.041-.268.087-.536.132-.8s.087-.487.132-.721v-.053l.068-.343c.023-.113.045-.223.072-.332.045-.215.094-.43.147-.634.075-.306.155-.592.238-.856a3.225,3.225,0,0,1,1.049-1.864l2.618-4.025.109-.17.049-.075Z" transform="translate(-295.594 -420.789)" opacity="0.1"/>
      <path id="Path_163" data-name="Path 163" d="M317.513,455.5l-2.78,4.27a3.19,3.19,0,0,0-1.03,1.807c-.087.279-.174.585-.257.905a45.1,45.1,0,0,0-.853,4.938.587.587,0,0,1-.03.226c-.128,1.049-.234,2.079-.321,2.988a24.875,24.875,0,0,1-3.546-1.569l-.072-.038a25.752,25.752,0,0,1-5.025-3.557l-.124-.117a23.968,23.968,0,0,1-2.192-2.263c-.091-.1-.177-.207-.264-.313.041-.2.083-.377.128-.589.215-1,.453-2.026.713-3.071a37.166,37.166,0,0,1,1.283-4.225,1.149,1.149,0,0,1,.049-.121c1.335-3.437,2.3-3.244,2.3-3.244l6.273-1.011,3.961-.641-.124.072a4.018,4.018,0,0,0-1.09,1.162l-.109.185c-.045.072-.087.151-.132.23a6.686,6.686,0,0,0-.521,1.32,1.388,1.388,0,0,0,.091,1.079,3.593,3.593,0,0,0,2.328,1.351l.147.038A9.459,9.459,0,0,0,317.513,455.5Z" transform="translate(-295.158 -420.802)" fill="#444176"/>
      <path id="Path_164" data-name="Path 164" d="M383.212,461.541l-.155-3.35c.66-5.281-.66-5.61-.66-5.61l-1.569-.754h-.042l-6.311-3.059-.245-.121-.075-.034h0l-.822-.4h0l-.521-.253-.973-.472-.328-.158v1.309c0,.377.034.819.064,1.332.068,1.29.192,3.018.415,5.055.124,1.181.283,2.471.479,3.855.117.819.2,1.633.253,2.429a42.758,42.758,0,0,1-.249,8.035l.343-.109a25.272,25.272,0,0,0,2.731-1.094h0a25.069,25.069,0,0,0,4.866-2.988l.068-.049a25.169,25.169,0,0,0,2.739-2.486Z" transform="translate(-339.056 -419.214)" opacity="0.1"/>
      <path id="Path_165" data-name="Path 165" d="M384.08,461.509l-.155-3.357c.66-5.281-.66-5.61-.66-5.61l-1.886-.913h-.038l-6.33-3.071-.29-.14-.057-.026-.464-.226-.615-.3-1.215-.589v.536h0v.664c0,.377.034.871.068,1.434.064,1.2.177,2.78.377,4.655.136,1.286.306,2.716.528,4.255q.174,1.234.249,2.441a42.7,42.7,0,0,1-.234,7.922,25.277,25.277,0,0,0,2.731-1.094h0a25.07,25.07,0,0,0,4.866-2.988l.068-.049a25.176,25.176,0,0,0,2.739-2.486q.166-.166.317-.34Z" transform="translate(-339.592 -419.182)" fill="#444176"/>
      <path id="Path_166" data-name="Path 166" d="M322.256,391.759a5.488,5.488,0,0,0-.517,1.886c-.4,1.475-2,2.4-2.369,3.886-.215.868.034,1.788-.113,2.671-.268,1.626-1.754,2.727-2.584,4.15a5.6,5.6,0,0,0-.343,4.866,7.8,7.8,0,0,1,.479,1.23,4.493,4.493,0,0,1-.117,1.886c-.283,1.343-.573,2.822.075,4.033a3.859,3.859,0,0,0,2.826,1.811,10.982,10.982,0,0,0,3.459-.158,10.008,10.008,0,0,0,3.614-1.056L322.58,407.1a8.23,8.23,0,0,1-.83-3.1,6.824,6.824,0,0,1,.509-2.316,20.068,20.068,0,0,1,3.4-5.866c.592.687.547,1.732,1.041,2.494a3.934,3.934,0,0,0,1.682,1.256,55.73,55.73,0,0,0,5.957,2.49.781.781,0,0,1,.581,1.162l-1.539,6.353c-.34,1.4-.638,3.018.234,4.15s2.837,1.667,2.848,3.127a5,5,0,0,0,0,.694c.1.683.913,1.011,1.6,1.045a4.78,4.78,0,0,0,4.795-3.912c.377-2.5-1.275-4.8-1.965-7.232-1.162-4.093.377-8.9-1.905-12.49-1.848-2.916-5.217-3.708-8.416-4.07C328.326,390.616,323.836,389.673,322.256,391.759Z" transform="translate(-304.443 -383.784)" opacity="0.1"/>
      <path id="Path_167" data-name="Path 167" d="M322.256,390.759a5.488,5.488,0,0,0-.517,1.886c-.4,1.475-2,2.4-2.369,3.886-.215.868.034,1.788-.113,2.671-.268,1.626-1.754,2.727-2.584,4.15a5.6,5.6,0,0,0-.343,4.866,7.8,7.8,0,0,1,.479,1.23,4.493,4.493,0,0,1-.117,1.886c-.283,1.343-.573,2.822.075,4.033a3.859,3.859,0,0,0,2.826,1.811,10.982,10.982,0,0,0,3.459-.158,10.008,10.008,0,0,0,3.614-1.056L322.58,406.1a8.23,8.23,0,0,1-.83-3.1,6.824,6.824,0,0,1,.509-2.316,20.069,20.069,0,0,1,3.4-5.866c.592.687.547,1.732,1.041,2.494a3.935,3.935,0,0,0,1.682,1.256,55.739,55.739,0,0,0,5.957,2.49.781.781,0,0,1,.581,1.162l-1.539,6.353c-.34,1.4-.638,3.018.234,4.15s2.837,1.667,2.848,3.127a5,5,0,0,0,0,.694c.1.683.913,1.011,1.6,1.045a4.78,4.78,0,0,0,4.795-3.912c.377-2.5-1.275-4.8-1.965-7.232-1.162-4.093.377-8.9-1.905-12.49-1.848-2.916-5.217-3.708-8.416-4.07C328.326,389.616,323.836,388.673,322.256,390.759Z" transform="translate(-304.443 -383.161)" fill="#493545"/>
    </g>
    <g id="Group_11" data-name="Group 11" transform="translate(435.73 3670.12)" opacity="0.5">
      <path id="Path_168" data-name="Path 168" d="M336.785,639.451a25.531,25.531,0,0,1-6.175,16.693c-.2.23-.4.456-.607.679q-.155.173-.317.34a25.163,25.163,0,0,1-2.739,2.486l-.068.049a25.07,25.07,0,0,1-4.866,2.988h0a25.283,25.283,0,0,1-2.731,1.094l-.343.109c-.211.072-.43.136-.645.2l-.087.026a25.776,25.776,0,0,1-14.165,0H304c-.377-.109-.754-.223-1.1-.347l-.321-.113a24.866,24.866,0,0,1-3.546-1.569l-.072-.038a25.749,25.749,0,0,1-5.025-3.557l-.124-.117a23.964,23.964,0,0,1-2.192-2.263c-.09-.1-.177-.207-.264-.313-.166-.2-.324-.4-.483-.6a25.652,25.652,0,1,1,45.91-15.739Z" transform="translate(-285.48 -613.798)" fill="#c0bccf"/>
      <path id="Path_169" data-name="Path 169" d="M339.633,664.1l-.155-3.4c.66-5.368-.66-5.7-.66-5.7l-1.886-.928-.038-.019-6.33-3.12-.29-.143-.038-.155s.124-.377-.5-.441a2.3,2.3,0,0,1-.158-.962,4.124,4.124,0,0,1,1.037-1.886,7.749,7.749,0,0,0,1.241-5.5,12.928,12.928,0,0,0-2.105-5.312l-.121-.177a6.392,6.392,0,0,0,.223-1.667c0-4.342-4.391-7.862-9.808-7.862-4.9,0-8.99,2.9-9.7,6.685a3.433,3.433,0,0,0-.3.468c-1,1.864.543,3.256.592,5.115.034,1.283-.826,2.38-1.509,3.467s-1.188,2.531-.487,3.6c.23.355.577.622.785.992.728,1.286-.483,2.761-.924,4.172a4,4,0,0,0-.121.5l-2.912.475s-.962-.2-2.3,3.3a1.192,1.192,0,0,0-.049.125,38.245,38.245,0,0,0-1.283,4.3q-.39,1.6-.713,3.12c-.045.2-.087.4-.128.6.087.106.174.215.264.317a24.194,24.194,0,0,0,2.192,2.309l.124.121a25.761,25.761,0,0,0,5.025,3.618l.072.038a24.673,24.673,0,0,0,3.546,1.6l.321.113c.377.128.732.241,1.1.355a1.375,1.375,0,0,1,.03.174v-.166a25.373,25.373,0,0,0,14.165,0l.087-.026c.215-.06.434-.128.645-.2l.343-.109a25.439,25.439,0,0,0,7.6-4.15l.068-.049a25.323,25.323,0,0,0,2.739-2.528q.166-.166.317-.343Z" transform="translate(-295.145 -621.914)" fill="url(#linear-gradient-3)"/>
      <path id="Path_170" data-name="Path 170" d="M322.7,650.155c.034,1.264-.826,2.343-1.509,3.4s-1.188,2.49-.487,3.542c.23.347.577.615.785.977.728,1.264-.483,2.716-.924,4.1a5.153,5.153,0,0,0,1.154,4.7,12.5,12.5,0,0,0,4.044,2.954,36.092,36.092,0,0,0,10,3.561,9.577,9.577,0,0,0,5.485-.245,5.832,5.832,0,0,0,3.293-6.413c-.434-1.984-1.886-3.58-2.641-5.455a2.554,2.554,0,0,1-.249-1.181,3.988,3.988,0,0,1,1.037-1.849,7.545,7.545,0,0,0,1.222-5.368,12.6,12.6,0,0,0-2.105-5.229,5.727,5.727,0,0,0-1.509-1.66,6.62,6.62,0,0,0-2.822-.853c-4.1-.573-8.341-1.2-12.472-1.411a2.676,2.676,0,0,0-2.909,1.411C321.114,646.956,322.649,648.326,322.7,650.155Z" transform="translate(-307.205 -632.428)" fill="#444176"/>
      <path id="Path_171" data-name="Path 171" d="M350.9,678.185l-7.775,11.057-7.59-.66s-.249,2.641-3.3-6.93c-1.705-5.353,1.762-3.493,2.445-4.976s1.886-2.792,1.988-3.885a6.859,6.859,0,0,0-.472-3.682l8.25-.988a6.156,6.156,0,0,0-.136,3.444C345.339,675.857,350.9,678.185,350.9,678.185Z" transform="translate(-314.303 -647.628)" fill="#c77485"/>
      <ellipse id="Ellipse_26" data-name="Ellipse 26" cx="9.808" cy="7.733" rx="9.808" ry="7.733" transform="translate(15.09 5.663)" fill="#444176"/>
      <path id="Path_172" data-name="Path 172" d="M351.6,671.56a8.246,8.246,0,0,1-7.643,1.23,6.86,6.86,0,0,0-.472-3.682l8.25-.988A6.157,6.157,0,0,0,351.6,671.56Z" transform="translate(-321.606 -647.628)" opacity="0.1"/>
      <circle id="Ellipse_27" data-name="Ellipse 27" cx="8.25" cy="8.25" r="8.25" transform="translate(16.772 8.775)" fill="#c77485"/>
      <path id="Path_173" data-name="Path 173" d="M343.515,692.888l-.192-.755-.166-.664-.245-.981-.045-.181-.038-.151s.2-.592-1.1-.4l-.241.042c-.2.041-.441.1-.713.174l-.245.076-.324.1h0a7.073,7.073,0,0,0-2.739,1.652,6.172,6.172,0,0,0-.917,1.109c-.026.038-.045.072-.068.1a3.566,3.566,0,0,0-.238.438c0,2.973-2.973,6.6-2.973,6.6l-2.9-4.191-.057-.083-.69-1-.245-.324-.083-.113-1.509-2.026-.377-.505-.124-.17-.185-.245-.434-.577-1.7.992-2.263,1.32-1.32,8.582v.238l.041.709.275,4.663v.064l-.483,1.931.072.038a24.871,24.871,0,0,0,3.546,1.569l.321.113c.377.124.732.238,1.1.347a1.332,1.332,0,0,1,.03.17v-.162a25.778,25.778,0,0,0,14.165,0l.087-.026c.215-.06.434-.125.645-.2l.343-.109a25.268,25.268,0,0,0,2.731-1.094l.317-6.753.226-4.87v-.279Z" transform="translate(-307.737 -661.078)" opacity="0.1"/>
      <path id="Path_174" data-name="Path 174" d="M340.936,705.983a2.609,2.609,0,0,0-.026-.453c-.026-.151-.023-.283-.042-.426s-.034-.287-.053-.43-.045-.287-.072-.43-.053-.287-.083-.43a.646.646,0,0,0-.03-.143c-.042-.189-.087-.377-.136-.57s-.079-.306-.124-.456a.643.643,0,0,0-.06-.2c-.023-.064-.064-.219-.1-.328l-.068-.211c-.03-.094-.06-.189-.094-.283-.057-.17-.117-.336-.177-.505s-.125-.336-.189-.5c-.128-.339-.268-.675-.407-1.011-.547-1.305-1.162-2.592-1.728-3.867a21.394,21.394,0,0,1-.807-2.048l-.072.1a4.361,4.361,0,0,0-.306.543c0,2.969-2.973,6.6-2.973,6.6l-2.992-4.357-2.618,4.025a3.288,3.288,0,0,0-1.049,1.864c-.083.264-.162.551-.238.856-.053.2-.1.419-.147.634-.026.109-.049.219-.072.332l-.068.343v.053c-.045.234-.091.475-.132.721s-.091.528-.132.8q-.045.26-.079.521c-.053.336-.1.675-.143,1.011-.026.2-.053.377-.075.585l-.091.755c.192.619.407,1.23.63,1.83a3.04,3.04,0,0,1,.245,1.037,25.775,25.775,0,0,0,14.165,0,.144.144,0,0,1,0-.038,4.492,4.492,0,0,1-.091-1.03h0a28.28,28.28,0,0,1,.377-2.886,10.571,10.571,0,0,0,.072-1.418v-.17C340.943,706.254,340.94,706.119,340.936,705.983Zm0,0a2.609,2.609,0,0,0-.026-.453c-.026-.151-.023-.283-.042-.426s-.034-.287-.053-.43-.045-.287-.072-.43-.053-.287-.083-.43a.646.646,0,0,0-.03-.143c-.042-.189-.087-.377-.136-.57s-.079-.306-.124-.456a.643.643,0,0,0-.06-.2c-.023-.064-.064-.219-.1-.328l-.068-.211c-.03-.094-.06-.189-.094-.283-.057-.17-.117-.336-.177-.505s-.125-.336-.189-.5c-.128-.339-.268-.675-.407-1.011-.547-1.305-1.162-2.592-1.728-3.867a21.394,21.394,0,0,1-.807-2.048l-.072.1a4.361,4.361,0,0,0-.306.543c0,2.969-2.973,6.6-2.973,6.6l-2.992-4.357-2.618,4.025a3.288,3.288,0,0,0-1.049,1.864c-.083.264-.162.551-.238.856-.053.2-.1.419-.147.634-.026.109-.049.219-.072.332l-.068.343v.053c-.045.234-.091.475-.132.721s-.091.528-.132.8q-.045.26-.079.521c-.053.336-.1.675-.143,1.011-.026.2-.053.377-.075.585l-.091.755c.192.619.407,1.23.63,1.83a3.04,3.04,0,0,1,.245,1.037,25.775,25.775,0,0,0,14.165,0,.144.144,0,0,1,0-.038,4.492,4.492,0,0,1-.091-1.03h0a28.28,28.28,0,0,1,.377-2.886,10.571,10.571,0,0,0,.072-1.418v-.17C340.943,706.254,340.94,706.119,340.936,705.983Zm0,0a2.609,2.609,0,0,0-.026-.453c-.026-.151-.023-.283-.042-.426s-.034-.287-.053-.43-.045-.287-.072-.43-.053-.287-.083-.43a.646.646,0,0,0-.03-.143c-.042-.189-.087-.377-.136-.57s-.079-.306-.124-.456a.643.643,0,0,0-.06-.2c-.023-.064-.064-.219-.1-.328l-.068-.211c-.03-.094-.06-.189-.094-.283-.057-.17-.117-.336-.177-.505s-.125-.336-.189-.5c-.128-.339-.268-.675-.407-1.011-.547-1.305-1.162-2.592-1.728-3.867a21.394,21.394,0,0,1-.807-2.048l-.072.1a4.361,4.361,0,0,0-.306.543c0,2.969-2.973,6.6-2.973,6.6l-2.992-4.357-2.618,4.025a3.288,3.288,0,0,0-1.049,1.864c-.083.264-.162.551-.238.856-.053.2-.1.419-.147.634-.026.109-.049.219-.072.332l-.068.343v.053c-.045.234-.091.475-.132.721s-.091.528-.132.8q-.045.26-.079.521c-.053.336-.1.675-.143,1.011-.026.2-.053.377-.075.585l-.091.755c.192.619.407,1.23.63,1.83a3.04,3.04,0,0,1,.245,1.037,25.775,25.775,0,0,0,14.165,0,.144.144,0,0,1,0-.038,4.492,4.492,0,0,1-.091-1.03h0a28.28,28.28,0,0,1,.377-2.886,10.571,10.571,0,0,0,.072-1.418v-.17C340.943,706.254,340.94,706.119,340.936,705.983Zm4-7.081-1.347-5.376-.23-.92-.064-.253h0l-.328-1.313a.263.263,0,0,0,0-.034h0a.3.3,0,0,0-.026-.17c-.049-.1-.174-.2-.464-.226a2.345,2.345,0,0,0-.332,0h0a5.749,5.749,0,0,0-.969.181c-.155.042-.321.087-.5.143l-.324.1h-.03a7.2,7.2,0,0,0-2.377,1.32,6.412,6.412,0,0,0-1.207,1.335l-.072.1a4.352,4.352,0,0,0-.306.543c0,2.969-2.973,6.6-2.973,6.6l-2.992-4.357-.17-.245-.03-.042-.434-.638-.328-.438-.087-.113-1.547-2.064h0l-.49-.668v-.023l-.17-.23-.324-.43-1.132.66L322.855,694l-1.305,8.492v.091l.038.619.279,4.727v.268l-.426,1.7a24.88,24.88,0,0,0,3.546,1.569l.321.113c.377.125.732.238,1.1.347a1.336,1.336,0,0,1,.03.17v-.162a25.776,25.776,0,0,0,14.165,0l.087-.026c.215-.06.434-.125.645-.2l.343-.109a25.278,25.278,0,0,0,2.731-1.094h0l.313-6.745.226-4.817Zm-18.553,13.026a1.336,1.336,0,0,1,.03.17v-.162Zm14.554-5.945a2.609,2.609,0,0,0-.026-.453c-.026-.151-.023-.283-.042-.426s-.034-.287-.053-.43-.045-.287-.072-.43-.053-.287-.083-.43a.646.646,0,0,0-.03-.143c-.042-.189-.087-.377-.136-.57s-.079-.306-.124-.456a.643.643,0,0,0-.06-.2c-.023-.064-.064-.219-.1-.328l-.068-.211c-.03-.094-.06-.189-.094-.283-.057-.17-.117-.336-.177-.505s-.125-.336-.189-.5c-.128-.339-.268-.675-.407-1.011-.547-1.305-1.162-2.592-1.728-3.867a21.394,21.394,0,0,1-.807-2.048l-.072.1a4.361,4.361,0,0,0-.306.543c0,2.969-2.973,6.6-2.973,6.6l-2.992-4.357-2.618,4.025a3.288,3.288,0,0,0-1.049,1.864c-.083.264-.162.551-.238.856-.053.2-.1.419-.147.634-.026.109-.049.219-.072.332l-.068.343v.053c-.045.234-.091.475-.132.721s-.091.528-.132.8q-.045.26-.079.521c-.053.336-.1.675-.143,1.011-.026.2-.053.377-.075.585l-.091.755c.192.619.407,1.23.63,1.83a3.04,3.04,0,0,1,.245,1.037,25.775,25.775,0,0,0,14.165,0,.144.144,0,0,1,0-.038,4.492,4.492,0,0,1-.091-1.03h0a28.28,28.28,0,0,1,.377-2.886,10.571,10.571,0,0,0,.072-1.418v-.17C340.943,706.254,340.94,706.119,340.936,705.983Zm0,0a2.609,2.609,0,0,0-.026-.453c-.026-.151-.023-.283-.042-.426s-.034-.287-.053-.43-.045-.287-.072-.43-.053-.287-.083-.43a.646.646,0,0,0-.03-.143c-.042-.189-.087-.377-.136-.57s-.079-.306-.124-.456a.643.643,0,0,0-.06-.2c-.023-.064-.064-.219-.1-.328l-.068-.211c-.03-.094-.06-.189-.094-.283-.057-.17-.117-.336-.177-.505s-.125-.336-.189-.5c-.128-.339-.268-.675-.407-1.011-.547-1.305-1.162-2.592-1.728-3.867a21.394,21.394,0,0,1-.807-2.048l-.072.1a4.361,4.361,0,0,0-.306.543c0,2.969-2.973,6.6-2.973,6.6l-2.992-4.357-2.618,4.025a3.288,3.288,0,0,0-1.049,1.864c-.083.264-.162.551-.238.856-.053.2-.1.419-.147.634-.026.109-.049.219-.072.332l-.068.343v.053c-.045.234-.091.475-.132.721s-.091.528-.132.8q-.045.26-.079.521c-.053.336-.1.675-.143,1.011-.026.2-.053.377-.075.585l-.091.755c.192.619.407,1.23.63,1.83a3.04,3.04,0,0,1,.245,1.037,25.775,25.775,0,0,0,14.165,0,.144.144,0,0,1,0-.038,4.492,4.492,0,0,1-.091-1.03h0a28.28,28.28,0,0,1,.377-2.886,10.571,10.571,0,0,0,.072-1.418v-.17C340.943,706.254,340.94,706.119,340.936,705.983Zm0,0a2.609,2.609,0,0,0-.026-.453c-.026-.151-.023-.283-.042-.426s-.034-.287-.053-.43-.045-.287-.072-.43-.053-.287-.083-.43a.646.646,0,0,0-.03-.143c-.042-.189-.087-.377-.136-.57s-.079-.306-.124-.456a.643.643,0,0,0-.06-.2c-.023-.064-.064-.219-.1-.328l-.068-.211c-.03-.094-.06-.189-.094-.283-.057-.17-.117-.336-.177-.505s-.125-.336-.189-.5c-.128-.339-.268-.675-.407-1.011-.547-1.305-1.162-2.592-1.728-3.867a21.394,21.394,0,0,1-.807-2.048l-.072.1a4.361,4.361,0,0,0-.306.543c0,2.969-2.973,6.6-2.973,6.6l-2.992-4.357-2.618,4.025a3.288,3.288,0,0,0-1.049,1.864c-.083.264-.162.551-.238.856-.053.2-.1.419-.147.634-.026.109-.049.219-.072.332l-.068.343v.053c-.045.234-.091.475-.132.721s-.091.528-.132.8q-.045.26-.079.521c-.053.336-.1.675-.143,1.011-.026.2-.053.377-.075.585l-.091.755c.192.619.407,1.23.63,1.83a3.04,3.04,0,0,1,.245,1.037,25.775,25.775,0,0,0,14.165,0,.144.144,0,0,1,0-.038,4.492,4.492,0,0,1-.091-1.03h0a28.28,28.28,0,0,1,.377-2.886,10.571,10.571,0,0,0,.072-1.418v-.17C340.943,706.254,340.94,706.119,340.936,705.983Zm0,0a2.609,2.609,0,0,0-.026-.453c-.026-.151-.023-.283-.042-.426s-.034-.287-.053-.43-.045-.287-.072-.43-.053-.287-.083-.43a.646.646,0,0,0-.03-.143c-.042-.189-.087-.377-.136-.57s-.079-.306-.124-.456a.643.643,0,0,0-.06-.2c-.023-.064-.064-.219-.1-.328l-.068-.211c-.03-.094-.06-.189-.094-.283-.057-.17-.117-.336-.177-.505s-.125-.336-.189-.5c-.128-.339-.268-.675-.407-1.011-.547-1.305-1.162-2.592-1.728-3.867a21.394,21.394,0,0,1-.807-2.048l-.072.1a4.361,4.361,0,0,0-.306.543c0,2.969-2.973,6.6-2.973,6.6l-2.992-4.357-2.618,4.025a3.288,3.288,0,0,0-1.049,1.864c-.083.264-.162.551-.238.856-.053.2-.1.419-.147.634-.026.109-.049.219-.072.332l-.068.343v.053c-.045.234-.091.475-.132.721s-.091.528-.132.8q-.045.26-.079.521c-.053.336-.1.675-.143,1.011-.026.2-.053.377-.075.585l-.091.755c.192.619.407,1.23.63,1.83a3.04,3.04,0,0,1,.245,1.037,25.775,25.775,0,0,0,14.165,0,.144.144,0,0,1,0-.038,4.492,4.492,0,0,1-.091-1.03h0a28.28,28.28,0,0,1,.377-2.886,10.571,10.571,0,0,0,.072-1.418v-.17C340.943,706.254,340.94,706.119,340.936,705.983Zm0,0a2.609,2.609,0,0,0-.026-.453c-.026-.151-.023-.283-.042-.426s-.034-.287-.053-.43-.045-.287-.072-.43-.053-.287-.083-.43a.646.646,0,0,0-.03-.143c-.042-.189-.087-.377-.136-.57s-.079-.306-.124-.456a.643.643,0,0,0-.06-.2c-.023-.064-.064-.219-.1-.328l-.068-.211c-.03-.094-.06-.189-.094-.283-.057-.17-.117-.336-.177-.505s-.125-.336-.189-.5c-.128-.339-.268-.675-.407-1.011-.547-1.305-1.162-2.592-1.728-3.867a21.394,21.394,0,0,1-.807-2.048l-.072.1a4.361,4.361,0,0,0-.306.543c0,2.969-2.973,6.6-2.973,6.6l-2.992-4.357-2.618,4.025a3.288,3.288,0,0,0-1.049,1.864c-.083.264-.162.551-.238.856-.053.2-.1.419-.147.634-.026.109-.049.219-.072.332l-.068.343v.053c-.045.234-.091.475-.132.721s-.091.528-.132.8q-.045.26-.079.521c-.053.336-.1.675-.143,1.011-.026.2-.053.377-.075.585l-.091.755c.192.619.407,1.23.63,1.83a3.04,3.04,0,0,1,.245,1.037,25.775,25.775,0,0,0,14.165,0,.144.144,0,0,1,0-.038,4.492,4.492,0,0,1-.091-1.03h0a28.28,28.28,0,0,1,.377-2.886,10.571,10.571,0,0,0,.072-1.418v-.17C340.943,706.254,340.94,706.119,340.936,705.983Zm0,0a2.609,2.609,0,0,0-.026-.453c-.026-.151-.023-.283-.042-.426s-.034-.287-.053-.43-.045-.287-.072-.43-.053-.287-.083-.43a.646.646,0,0,0-.03-.143c-.042-.189-.087-.377-.136-.57s-.079-.306-.124-.456a.643.643,0,0,0-.06-.2c-.023-.064-.064-.219-.1-.328l-.068-.211c-.03-.094-.06-.189-.094-.283-.057-.17-.117-.336-.177-.505s-.125-.336-.189-.5c-.128-.339-.268-.675-.407-1.011-.547-1.305-1.162-2.592-1.728-3.867a21.394,21.394,0,0,1-.807-2.048l-.072.1a4.361,4.361,0,0,0-.306.543c0,2.969-2.973,6.6-2.973,6.6l-2.992-4.357-2.618,4.025a3.288,3.288,0,0,0-1.049,1.864c-.083.264-.162.551-.238.856-.053.2-.1.419-.147.634-.026.109-.049.219-.072.332l-.068.343v.053c-.045.234-.091.475-.132.721s-.091.528-.132.8q-.045.26-.079.521c-.053.336-.1.675-.143,1.011-.026.2-.053.377-.075.585l-.091.755c.192.619.407,1.23.63,1.83a3.04,3.04,0,0,1,.245,1.037,25.775,25.775,0,0,0,14.165,0,.144.144,0,0,1,0-.038,4.492,4.492,0,0,1-.091-1.03h0a28.28,28.28,0,0,1,.377-2.886,10.571,10.571,0,0,0,.072-1.418v-.17C340.943,706.254,340.94,706.119,340.936,705.983Zm0,0a2.609,2.609,0,0,0-.026-.453c-.026-.151-.023-.283-.042-.426s-.034-.287-.053-.43-.045-.287-.072-.43-.053-.287-.083-.43a.646.646,0,0,0-.03-.143c-.042-.189-.087-.377-.136-.57s-.079-.306-.124-.456a.643.643,0,0,0-.06-.2c-.023-.064-.064-.219-.1-.328l-.068-.211c-.03-.094-.06-.189-.094-.283-.057-.17-.117-.336-.177-.505s-.125-.336-.189-.5c-.128-.339-.268-.675-.407-1.011-.547-1.305-1.162-2.592-1.728-3.867a21.394,21.394,0,0,1-.807-2.048l-.072.1a4.361,4.361,0,0,0-.306.543c0,2.969-2.973,6.6-2.973,6.6l-2.992-4.357-2.618,4.025a3.288,3.288,0,0,0-1.049,1.864c-.083.264-.162.551-.238.856-.053.2-.1.419-.147.634-.026.109-.049.219-.072.332l-.068.343v.053c-.045.234-.091.475-.132.721s-.091.528-.132.8q-.045.26-.079.521c-.053.336-.1.675-.143,1.011-.026.2-.053.377-.075.585l-.091.755c.192.619.407,1.23.63,1.83a3.04,3.04,0,0,1,.245,1.037,25.775,25.775,0,0,0,14.165,0,.144.144,0,0,1,0-.038,4.492,4.492,0,0,1-.091-1.03h0a28.28,28.28,0,0,1,.377-2.886,10.571,10.571,0,0,0,.072-1.418v-.17C340.943,706.254,340.94,706.119,340.936,705.983Zm0,0a2.609,2.609,0,0,0-.026-.453c-.026-.151-.023-.283-.042-.426s-.034-.287-.053-.43-.045-.287-.072-.43-.053-.287-.083-.43a.646.646,0,0,0-.03-.143c-.042-.189-.087-.377-.136-.57s-.079-.306-.124-.456a.643.643,0,0,0-.06-.2c-.023-.064-.064-.219-.1-.328l-.068-.211c-.03-.094-.06-.189-.094-.283-.057-.17-.117-.336-.177-.505s-.125-.336-.189-.5c-.128-.339-.268-.675-.407-1.011-.547-1.305-1.162-2.592-1.728-3.867a21.394,21.394,0,0,1-.807-2.048l-.072.1a4.361,4.361,0,0,0-.306.543c0,2.969-2.973,6.6-2.973,6.6l-2.992-4.357-2.618,4.025a3.288,3.288,0,0,0-1.049,1.864c-.083.264-.162.551-.238.856-.053.2-.1.419-.147.634-.026.109-.049.219-.072.332l-.068.343v.053c-.045.234-.091.475-.132.721s-.091.528-.132.8q-.045.26-.079.521c-.053.336-.1.675-.143,1.011-.026.2-.053.377-.075.585l-.091.755c.192.619.407,1.23.63,1.83a3.04,3.04,0,0,1,.245,1.037,25.775,25.775,0,0,0,14.165,0,.144.144,0,0,1,0-.038,4.492,4.492,0,0,1-.091-1.03h0a28.28,28.28,0,0,1,.377-2.886,10.571,10.571,0,0,0,.072-1.418v-.17C340.943,706.254,340.94,706.119,340.936,705.983Z" transform="translate(-307.874 -661.63)" fill="#444176"/>
      <path id="Path_175" data-name="Path 175" d="M318.171,696.485l-.253-.034a9.19,9.19,0,0,1-1.132-.226l-.14-.038c-.92-.26-1.928-.728-2.154-1.55a1.468,1.468,0,0,1,.023-.8,6.891,6.891,0,0,1,.513-1.3v-.023a1.813,1.813,0,0,1,.094-.17,3.772,3.772,0,0,1,1.362-1.483l-.453.072-3.833.623-5.942.958s-1.056-.211-2.494,3.75a.613.613,0,0,1-.049.147c-.347.97-.713,2.18-1.09,3.693-.26,1.049-.5,2.079-.717,3.078-.064.3-.128.6-.189.894a23.96,23.96,0,0,0,2.192,2.263l.125.117a25.75,25.75,0,0,0,5.025,3.557l.072.038a24.879,24.879,0,0,0,3.546,1.569l.321.113c.068-.7.143-1.471.234-2.263a.644.644,0,0,1,.03-.238l.091-.754c.023-.192.049-.377.075-.585.045-.336.091-.675.143-1.011q.034-.26.079-.521c.041-.268.087-.536.132-.8s.087-.487.132-.721v-.053l.068-.343c.023-.113.045-.223.072-.332.045-.215.094-.43.147-.634.075-.306.155-.592.238-.856a3.224,3.224,0,0,1,1.049-1.864l2.618-4.025.109-.17.049-.075Z" transform="translate(-295.594 -661.789)" opacity="0.1"/>
      <path id="Path_176" data-name="Path 176" d="M317.513,696.5l-2.78,4.27a3.19,3.19,0,0,0-1.03,1.807c-.087.279-.174.585-.257.905a45.1,45.1,0,0,0-.853,4.938.587.587,0,0,1-.03.226c-.128,1.049-.234,2.079-.321,2.988a24.871,24.871,0,0,1-3.546-1.569l-.072-.038a25.743,25.743,0,0,1-5.025-3.557l-.124-.117a23.961,23.961,0,0,1-2.192-2.264c-.091-.1-.177-.207-.264-.313.041-.2.083-.377.128-.589.215-1,.453-2.026.713-3.071a37.16,37.16,0,0,1,1.283-4.225,1.156,1.156,0,0,1,.049-.121c1.335-3.437,2.3-3.244,2.3-3.244l6.273-1.011,3.961-.641-.124.072a4.019,4.019,0,0,0-1.09,1.162l-.109.185c-.045.072-.087.151-.132.23a6.682,6.682,0,0,0-.521,1.32,1.388,1.388,0,0,0,.091,1.079,3.593,3.593,0,0,0,2.328,1.351l.147.038A9.459,9.459,0,0,0,317.513,696.5Z" transform="translate(-295.158 -661.802)" fill="#f1d2d7"/>
      <path id="Path_177" data-name="Path 177" d="M383.212,702.541l-.155-3.35c.66-5.281-.66-5.61-.66-5.61l-1.569-.754h-.042l-6.311-3.059-.245-.121-.075-.034h0l-.822-.4h0l-.521-.253-.973-.471-.328-.158v1.309c0,.377.034.819.064,1.332.068,1.29.192,3.018.415,5.055.124,1.181.283,2.471.479,3.855.117.819.2,1.633.253,2.429a42.758,42.758,0,0,1-.249,8.035l.343-.109a25.3,25.3,0,0,0,2.731-1.094h0a25.069,25.069,0,0,0,4.866-2.988l.068-.049a25.169,25.169,0,0,0,2.739-2.486Z" transform="translate(-339.056 -660.214)" opacity="0.1"/>
      <path id="Path_178" data-name="Path 178" d="M384.08,702.51l-.155-3.357c.66-5.281-.66-5.61-.66-5.61l-1.886-.913h-.038l-6.33-3.071-.29-.14-.057-.026-.464-.226-.615-.3-1.215-.589v.536h0v.664c0,.377.034.871.068,1.434.064,1.2.177,2.78.377,4.655.136,1.286.306,2.716.528,4.255q.174,1.234.249,2.441a42.7,42.7,0,0,1-.234,7.922,25.546,25.546,0,0,0,7.6-4.082l.068-.049a25.175,25.175,0,0,0,2.739-2.486q.166-.166.317-.34Z" transform="translate(-339.592 -660.182)" fill="#f1d2d7"/>
      <path id="Path_179" data-name="Path 179" d="M336.179,641.182a9.436,9.436,0,0,1,3.531-.377,11.563,11.563,0,0,1,2.7,1.309,6.981,6.981,0,0,0,2.784.736,1.638,1.638,0,0,0,1.022-.2,1.585,1.585,0,0,0,.456-1.554,8.923,8.923,0,0,0-2.263-4.24,8.3,8.3,0,0,0-1.418-1.437,7.492,7.492,0,0,0-4.825-1.094,12.088,12.088,0,0,0-5.527,1.418c-1.132.649-3.727,2.694-2.826,4.172C330.759,641.461,334.7,641.435,336.179,641.182Z" transform="translate(-312.972 -626.571)" opacity="0.1"/>
      <path id="Path_180" data-name="Path 180" d="M336.179,640.182a9.439,9.439,0,0,1,3.531-.377,11.563,11.563,0,0,1,2.7,1.309,6.981,6.981,0,0,0,2.784.736,1.637,1.637,0,0,0,1.022-.2,1.585,1.585,0,0,0,.456-1.554,8.923,8.923,0,0,0-2.263-4.24,8.3,8.3,0,0,0-1.418-1.437,7.492,7.492,0,0,0-4.825-1.094,12.087,12.087,0,0,0-5.527,1.419c-1.132.649-3.727,2.693-2.826,4.172C330.759,640.461,334.7,640.435,336.179,640.182Z" transform="translate(-312.972 -625.948)" fill="#444176"/>
    </g>
    <path id="Path_181" data-name="Path 181" d="M620.072,429.643h.057c.083,2.527.441,4.814,1.132,5.447,1.645,1.509,8.465-1.509,8-3.335-.094-.377-.253-1-.453-1.777,1.841-.23,3.414-.755,4.04-1.833l1.185,3.652.083.26h.091c.781,7.4,2.55,22.77,3.965,24.83,1.886,2.727,4.055,14.546,4.055,14.546l4.055,24.245s1.562,13.958,2.5,15.467a1.754,1.754,0,0,0,1.026.532,14.859,14.859,0,0,1-2.263,4.617c-1.886,2.12-4.369,6.364-6.553,6.062s-2.807,4.244,1.249,4.848a33.521,33.521,0,0,0,8.575-.5c0,1.215.845,2.611,2.969,2.927,4.055.607,12.479-1.211,12.479-1.211s7.168-3.018,7.488-5.153c.226-1.547-.871-7.756-1.483-11.012,1.132-1.815-.075-17.474-.075-17.474l-2.184-30s1.249-16.666,0-19.7c-.781-1.886-1.071-10.563-1.181-16.768l1.509.1a2.783,2.783,0,0,0,.234-.328l.377.026a5.012,5.012,0,0,0,.313-5.455c-1.158-2.479-.939-13.667-.755-19.239h0l.223-2.641a.754.754,0,0,0,.185-.287,27.671,27.671,0,0,0,8.424-2.55,8.548,8.548,0,0,0,2.211-1.343c1.562-1.509.622-10.608-2.5-24.245s-5.926-12.426-5.926-12.426-7.488-.607-10.921-5.153-5.738-4.485-5.738-4.485h0c-.087-.6-.147-1.158-.189-1.682,0-.2-.03-.377-.042-.573a9.974,9.974,0,0,0,2.6-3.935,19.507,19.507,0,0,0,2.237-.977,2.668,2.668,0,0,0,.464-.43,3.814,3.814,0,0,0,1.2-2.373,9.7,9.7,0,0,0-.14-2.976,7.213,7.213,0,0,0-4.761-6.534q-4.949-2.6-9.925-5.146a5.477,5.477,0,0,0-2.124-.755c-1.328-.075-2.52.834-3.591,1.7a15.315,15.315,0,0,0-1.226,1.075,6.88,6.88,0,0,0-.9.97,9.3,9.3,0,0,0-1.234,6.937.95.95,0,0,0,1.007.849,9.725,9.725,0,0,0-1.037,4.376,9.921,9.921,0,0,0,4.606,8.333c0,.211,0,.419.019.619a22.113,22.113,0,0,1-.075,2.32s-8.3,4.485-9.231,6.605-4.368,3.637-4.368,3.637-6.553,3.335-6.553,15.154l-3.433,16.666-.622,31.82s.43-.377,1.132-.913c-.023.211-.042.43-.06.653a35.914,35.914,0,0,0-.094,3.655ZM661.983,512c-.128.487-.317,1.132-.555,1.886-.106-.626-.211-1.245-.317-1.833C661.383,512.025,661.674,512.01,661.983,512Z" transform="translate(-57.708 3236.068)" fill="url(#linear-gradient-4)"/>
    <path id="Path_182" data-name="Path 182" d="M684.573,809.022s-1.2,5.41-3.018,7.511-4.191,6.311-6.289,6.009-2.7,4.206,1.2,4.806,12-1.2,12-1.2,6.911-3.018,7.209-5.108-1.8-12.92-1.8-12.92Z" transform="translate(-91.642 2935.861)" fill="#53526b"/>
    <path id="Path_183" data-name="Path 183" d="M684.573,809.022s-1.2,5.41-3.018,7.511-4.191,6.311-6.289,6.009-2.7,4.206,1.2,4.806,12-1.2,12-1.2,6.911-3.018,7.209-5.108-1.8-12.92-1.8-12.92Z" transform="translate(-91.642 2935.861)" opacity="0.05"/>
    <path id="Path_184" data-name="Path 184" d="M714.033,815.385s-1.2,5.41-3.018,7.511-4.2,6.311-6.3,6.009-2.7,4.206,1.2,4.806,12.019-1.2,12.019-1.2,6.911-3.018,7.209-5.108-1.8-12.92-1.8-12.92Z" transform="translate(-109.999 2931.925)" fill="#53526b"/>
    <path id="Path_185" data-name="Path 185" d="M659.66,598.67s2.4,25.837,4.206,28.542,3.9,14.422,3.9,14.422l3.9,24.034s1.509,13.822,2.4,15.323,12.045.856,12.045.856l-6.934-79.575Z" transform="translate(-82.949 3065.885)" fill="#5f5d7e"/>
    <path id="Path_186" data-name="Path 186" d="M659.66,598.67s2.4,25.837,4.206,28.542,3.9,14.422,3.9,14.422l3.9,24.034s1.509,13.822,2.4,15.323,12.045.856,12.045.856l-6.934-79.575Z" transform="translate(-82.949 3065.885)" opacity="0.05"/>
    <path id="Path_187" data-name="Path 187" d="M646.92,566l.785,2.494,4.244,13.471.083.257h.023c.57.128,12.6,2.893,15.191,3.742a3.684,3.684,0,0,1,.411.155c1.2.6,2.7,22.231,2.7,22.231s.9,20.431,1.509,21.933,3.018,32.443,4.508,31.545,12.317,0,12.317,0c1.2-1.2,0-17.425,0-17.425l-2.135-29.738s1.2-16.523,0-19.53-1.2-23.132-1.2-23.132l-24.592-3.844-2.377-.377Z" transform="translate(-75.015 3086.182)" fill="#5f5d7e"/>
    <path id="Path_188" data-name="Path 188" d="M649,571.219l4.244,13.471.1.264c.57.128,12.6,2.893,15.191,3.742h.26l-6.719-17.813-.192-.513-2.184.14Z" transform="translate(-76.303 3082.993)" opacity="0.02"/>
    <path id="Path_189" data-name="Path 189" d="M678.242,406.73s-11.117,12.019-18.028,2.1l-6.609,4.508,1.2,6.911L650.9,472.524s10.216-.3,17.425,2.1a11.181,11.181,0,0,0,11.717-2.7l-1.188-45.963,2.7-14.12Z" transform="translate(-77.491 3184.574)" opacity="0.1"/>
    <path id="Path_190" data-name="Path 190" d="M678.242,404.34s-11.117,12.019-18.028,2.1l-6.609,4.508,1.2,6.911L650.9,470.134s10.216-.3,17.425,2.1a11.181,11.181,0,0,0,11.717-2.7l-1.188-45.963,2.7-14.12Z" transform="translate(-77.491 3186.053)" fill="#53526b"/>
    <g id="TESLA" transform="translate(575.054 3642.816)">
      <g id="g8">
        <path id="polyline10" d="M615.708,522.36v1.894h-.6v-1.26H612.9v1.26h-.607v-1.89l3.418,0" transform="translate(-612.203 -521.123)" fill="#e82127"/>
        <path id="path12" d="M658.225,543.566h-2.331a.86.86,0,0,1-.634-.626h3.6a.864.864,0,0,1-.634.626" transform="translate(-655.26 -542.94)" fill="#e82127"/>
      </g>
      <g id="g30" transform="translate(20.114 0.023)">
        <path id="path32" d="M712.511,543a.871.871,0,0,1-.63.622H710.9l-.049.019v2.475h-.6v-2.475l-.057-.019h-.981a.883.883,0,0,1-.63-.622h3.931" transform="translate(-708.58 -543)" fill="#e82127"/>
      </g>
    </g>
    <path id="Path_191" data-name="Path 191" d="M638.74,569.2s0,7.813-1.8,11.117-12.317,1.509-12.317,1.509l2.1-11.117Z" transform="translate(-61.106 3083.685)" fill="#d6dbe6"/>
    <path id="Path_192" data-name="Path 192" d="M625.826,593.8c1.584,1.509,8.152-1.509,7.7-3.3-.317-1.271-1.426-5.821-2.056-8.4l-.438-1.814s-3.848-1.2-5.206,0c-.494.438-.841,2.162-1,4.244C624.543,588.139,624.826,592.839,625.826,593.8Z" transform="translate(-61.167 3077.169)" fill="#fdc2cc"/>
    <path id="Path_193" data-name="Path 193" d="M666,385l10.514,8.111s15.621-.9,11.717-8.412a28.005,28.005,0,0,1-3.018-10.616,22.193,22.193,0,0,1,0-4.108s-14.422-13.2-12.619,1.8a34.052,34.052,0,0,1,.249,3.471C673.058,386.516,666,385,666,385Z" transform="translate(-86.899 3210.396)" fill="#fdc2cc"/>
    <path id="Path_194" data-name="Path 194" d="M683.3,371.78a34.036,34.036,0,0,1,.249,3.471,9.846,9.846,0,0,0,5.459,1.637c2.69,0,4.67-2.618,6.458-4.357-.2-2.494.449-2.554.449-2.554S681.5,356.758,683.3,371.78Z" transform="translate(-97.582 3210.302)" opacity="0.1"/>
    <circle id="Ellipse_28" data-name="Ellipse 28" cx="9.914" cy="9.914" r="9.914" transform="translate(581.517 3566.724)" fill="#fdc2cc"/>
    <path id="Path_195" data-name="Path 195" d="M704.063,394.38s1.652.151,4.957,4.655,10.514,5.108,10.514,5.108,2.7-1.2,5.708,12.317,3.9,22.533,2.4,24.034-7.511,3.61-10.529,3.61c0,0-.9,18.926.6,22.231a5.121,5.121,0,0,1-.3,5.41l-13.2-.9s-4.508-5.708-5.41-15.621-3.9-38.158-2.4-41.462,8.111-11.717,7.813-12.619S704.063,394.38,704.063,394.38Z" transform="translate(-105.59 3192.271)" opacity="0.1"/>
    <path id="Path_196" data-name="Path 196" d="M705.1,394.14s2.222-.06,5.527,4.448,10.51,5.108,10.51,5.108,2.7-1.2,5.708,12.317,3.9,22.533,2.4,24.034-7.511,3.606-10.514,3.606c0,0-.9,18.926.6,22.231a5.121,5.121,0,0,1-.3,5.41l-13.2-.9s-4.508-5.708-5.41-15.621-3.912-38.154-2.411-41.444,8.111-11.717,7.813-12.619S705.1,394.14,705.1,394.14Z" transform="translate(-106.595 3192.418)" fill="#d6dbe6"/>
    <path id="Path_197" data-name="Path 197" d="M625,584.511c1.437-1.1,4.15-2.807,6.647-2.429l-.438-1.815s-3.848-1.2-5.206,0C625.5,580.7,625.158,582.425,625,584.511Z" transform="translate(-61.34 3077.115)" opacity="0.1"/>
    <path id="Path_198" data-name="Path 198" d="M647.052,399.16s-7.662,4.957-8.563,7.062-4.206,3.606-4.206,3.606-6.307,3.3-6.307,15.022l-3.3,16.523L639.692,462.4s1.8-21.031,2.7-26.139,2.1-14.712,2.1-14.712,4.508-5.708,3.9-7.209S647.052,399.16,647.052,399.16Z" transform="translate(-61.141 3189.226)" opacity="0.1"/>
    <path id="Path_199" data-name="Path 199" d="M645.526,398.92s-7.99,4.448-8.888,6.549-4.206,3.606-4.206,3.606-6.307,3.3-6.307,15.022l-3.3,16.523-.6,31.545s5.41-5.108,9.314-2.7,6.307-7.813,6.307-7.813,1.8-21.031,2.7-26.139,2.1-14.712,2.1-14.712,4.508-5.708,3.9-7.209S645.526,398.92,645.526,398.92Z" transform="translate(-59.614 3189.436)" fill="#d6dbe6"/>
    <path id="Path_200" data-name="Path 200" d="M673.328,331.693a9.809,9.809,0,0,1,1.75-1.728c1.034-.86,2.177-1.758,3.459-1.682a5.176,5.176,0,0,1,2.045.732q4.791,2.524,9.555,5.1a8.886,8.886,0,0,1,3.2,2.444,9.424,9.424,0,0,1,1.381,4.036,9.894,9.894,0,0,1,.136,2.95,3.7,3.7,0,0,1-1.305,2.478c-.856.622-2.03.626-2.746,1.441a8.034,8.034,0,0,0-.89,1.705c-.294.573-.8,1.132-1.384,1.03a1.454,1.454,0,0,1-1.015-1.339,8.134,8.134,0,0,1,.109-1.886,4.467,4.467,0,0,0-.687-3.173c-.453-.573-1.1-.92-1.539-1.509-1.049-1.418-.57-3.772-1.72-5.1a2.727,2.727,0,0,0-2.641-.754,11.288,11.288,0,0,0-2.641,1.132,19.618,19.618,0,0,1-3.618,1.4c-1.049.287-2.263.973-2.622-.423A9.3,9.3,0,0,1,673.328,331.693Z" transform="translate(-90.601 3232.841)" opacity="0.1"/>
    <path id="Path_201" data-name="Path 201" d="M674.125,330.9a9.807,9.807,0,0,1,1.75-1.728c1.034-.86,2.177-1.758,3.459-1.683a5.176,5.176,0,0,1,2.045.732c3.191,1.682,5.844.091,9.556,5.1.792,1.071,2.384,1.305,3.2,2.445a9.423,9.423,0,0,1,1.381,4.036,9.894,9.894,0,0,1,.136,2.95,3.7,3.7,0,0,1-1.305,2.478c-.856.622-2.03.626-2.746,1.441a8.027,8.027,0,0,0-.89,1.705c-.294.573-.8,1.132-1.384,1.03a1.454,1.454,0,0,1-1.015-1.339,8.13,8.13,0,0,1,.109-1.886,4.467,4.467,0,0,0-.687-3.173c-.453-.573-1.1-.92-1.539-1.509-1.049-1.418-.57-3.772-1.72-5.1a2.727,2.727,0,0,0-2.641-.754,11.289,11.289,0,0,0-2.641,1.132,19.619,19.619,0,0,1-3.618,1.4c-1.049.287-2.263.973-2.622-.423A9.281,9.281,0,0,1,674.125,330.9Z" transform="translate(-91.096 3233.329)" fill="#865a61"/>
    <path id="Path_202" data-name="Path 202" d="M738.94,458.09s4.006,10.216,1,14.422L733.33,471s6.009,1.8,5.108-1.8S738.94,458.09,738.94,458.09Z" transform="translate(-128.856 3152.457)" opacity="0.1"/>
    <path id="Path_203" data-name="Path 203" d="M735.647,523.013s-8.714.6-11.117-1.2a23.013,23.013,0,0,0,10.846,4.508Z" transform="translate(-123.373 3112.961)" opacity="0.1"/>
    <path id="Path_204" data-name="Path 204" d="M647.522,474s-4.508,13.822-4.206,15.923.9,25.237.9,25.237l.9-.3-.3-25.237Z" transform="translate(-72.746 3142.775)" opacity="0.1"/>
    <path id="Path_205" data-name="Path 205" d="M407.205,229.788,304.219,146.8a6.443,6.443,0,0,0-4.565-1.886h-4.376a55.831,55.831,0,1,0-9.669,9.669v4.372a6.443,6.443,0,0,0,1.886,4.565l102.986,82.993a6.413,6.413,0,0,0,9.107,0l7.59-7.583A6.477,6.477,0,0,0,407.205,229.788ZM251.228,144.909a14.242,14.242,0,1,1,0,.008Z" transform="translate(206.328 3403.167)" fill="url(#linear-gradient-5)"/>
    <path id="Path_206" data-name="Path 206" d="M409.205,227.788,306.219,144.8a6.443,6.443,0,0,0-4.565-1.886h-4.376a55.831,55.831,0,1,0-9.669,9.669v4.372a6.443,6.443,0,0,0,1.886,4.565l102.986,82.993a6.413,6.413,0,0,0,9.107,0l7.59-7.583a6.477,6.477,0,0,0,.026-9.137ZM253.228,142.909a14.242,14.242,0,1,1,0,.008Z" transform="translate(205.082 3404.404)" fill="#6ca2c5"/>
    <path id="Path_207" data-name="Path 207" d="M716.845,480.943s-15.033-17.24-12.921-5.41c1.509,8.412,7.209,12.92,9.914,13.822S716.845,480.943,716.845,480.943Z" transform="translate(-110.405 3144.25)" fill="#fdc2cc"/>
    <path id="Path_208" data-name="Path 208" d="M731.7,454.51s.3,11.117,1.8,12.619-.9,3.3-.9,3.3l-6.009-1.509s1.509,9.914-4.806,8.714c0,0,4.206,3.9,8.412,4.508s3.9-.9,3.9-.9l6.307-7.511Z" transform="translate(-121.668 3154.754)" fill="#d6dbe6"/>
    <path id="Path_209" data-name="Path 209" d="M703.675,492.609l6.1-1.339-.815-2.81-3.772-1.509-4.9,2.263Z" transform="translate(-91.983 3143.636)" fill="#d6dbe6"/>
    <path id="Path_210" data-name="Path 210" d="M280.78,157.461a25.531,25.531,0,0,0,5.123,15.384c.336.449.687.883,1.052,1.309.2.23.4.456.607.679q.155.174.317.34a25.168,25.168,0,0,0,2.739,2.486l.068.049a25.543,25.543,0,0,0,7.6,4.082l.343.109c.211.072.43.136.645.2l.087.026c.109.03.219.064.332.091a25.543,25.543,0,0,0,6.726.894c.377,0,.773,0,1.158-.026a25.364,25.364,0,0,0,5.949-.973h.038c.358-.106.713-.215,1.064-.336h.038l.321-.113a24.873,24.873,0,0,0,3.546-1.569l.072-.038c.124-.068.249-.136.377-.207a25.589,25.589,0,0,0,4.655-3.35l.124-.117a23.966,23.966,0,0,0,2.192-2.263l.079-.094c.064-.072.124-.143.185-.219.166-.2.324-.4.483-.6a25.652,25.652,0,1,0-45.918-15.735Z" transform="translate(153.18 3354.602)" fill="#c0bccf"/>
    <path id="Path_211" data-name="Path 211" d="M298.151,175.162s5.564-.472,8.114-4.01c2.486-3.444,4.176-3.486,4.259-3.486h0c.064-.46.109-.9.14-1.305V166.3a.755.755,0,0,1-.351.155c-.5.075-.936-.4-1.185-.9a7.005,7.005,0,0,0-.754-1.486c-.615-.709-1.622-.713-2.354-1.252a3.237,3.237,0,0,1-1.132-2.158,5.943,5.943,0,0,1-.045-.943,10.445,10.445,0,0,1,.158-2.011,8.282,8.282,0,0,1,1.185-3.512c.7-.985,2.063-1.2,2.743-2.128,3.18-4.361,5.447-2.976,8.182-4.44a4.383,4.383,0,0,1,1.75-.638,4.576,4.576,0,0,1,2.961,1.467,8.456,8.456,0,0,1,1.509,1.509,8.187,8.187,0,0,1,1.192,4.58,6.86,6.86,0,0,1-.174,1.792c-.219.868-.811.811-1.46.615a7.839,7.839,0,0,1-2.663,9.838v.4a.686.686,0,0,0,0,.087,17.868,17.868,0,0,0,.06,1.8c.064.034,6.164,3.493,6.854,5.134s3.248,2.829,3.248,2.829,2.81,1.509,4.15,6.247l-.079.094a24.194,24.194,0,0,1-2.192,2.309l-.124.121a25.6,25.6,0,0,1-4.655,3.4c-.121.072-.245.143-.377.211l-.072.038a24.664,24.664,0,0,1-3.546,1.6l-.321.117h-.038c-.351.124-.705.234-1.064.34h-.038a24.982,24.982,0,0,1-5.949.988c-.377.019-.755.026-1.158.026a25.143,25.143,0,0,1-6.707-.871c-.113-.026-.223-.06-.332-.091l-.087-.026c-.215-.06-.434-.128-.645-.2l-.343-.109a25.436,25.436,0,0,1-7.609-4.153l-.068-.049A25.322,25.322,0,0,1,296.4,184.5q-.162-.166-.317-.347c-.207-.226-.411-.456-.607-.69-.377-.434-.717-.875-1.052-1.332C296.438,174.385,298.151,175.162,298.151,175.162Z" transform="translate(144.681 3345.176)" fill="url(#linear-gradient-6)"/>
    <path id="Path_212" data-name="Path 212" d="M339.6,202.094l8.114-6.258s-5.436,1.166-5.281-7.522a.664.664,0,0,1,0-.087,22.218,22.218,0,0,1,.189-2.592c1.392-11.593-9.737-1.392-9.737-1.392a16.6,16.6,0,0,1,0,3.086v.083a21.556,21.556,0,0,1-2.316,8.19C327.546,201.4,339.6,202.094,339.6,202.094Z" transform="translate(122.462 3324.548)" fill="#fdc2cc"/>
    <path id="Path_213" data-name="Path 213" d="M338.535,185.718c1.377,1.339,2.218,3.772,4.289,3.772a7.6,7.6,0,0,0,4.214-1.264,22.23,22.23,0,0,1,.189-2.592c1.392-11.593-9.737-1.392-9.737-1.392S338.682,183.832,338.535,185.718Z" transform="translate(117.847 3324.474)" opacity="0.1"/>
    <circle id="Ellipse_29" data-name="Ellipse 29" cx="7.65" cy="7.65" r="7.65" transform="translate(453.022 3498.256)" fill="#fdc2cc"/>
    <path id="Path_214" data-name="Path 214" d="M340.552,152.923a8.393,8.393,0,0,0-1.509-1.479A4.575,4.575,0,0,0,336.082,150a4.433,4.433,0,0,0-1.75.626c-2.735,1.441-5,.079-8.182,4.365-.679.917-2.041,1.132-2.742,2.094a8.024,8.024,0,0,0-1.185,3.456,8.474,8.474,0,0,0-.117,2.528,3.165,3.165,0,0,0,1.132,2.12c.732.532,1.739.536,2.354,1.234a6.849,6.849,0,0,1,.754,1.46c.249.49.687.954,1.185.883a1.221,1.221,0,0,0,.868-1.132,6.96,6.96,0,0,0-.094-1.611,3.853,3.853,0,0,1,.589-2.716c.377-.494.943-.788,1.317-1.29.9-1.211.49-3.244,1.475-4.368a2.335,2.335,0,0,1,2.263-.63,9.644,9.644,0,0,1,2.263.973,16.8,16.8,0,0,0,3.1,1.2c.9.245,1.939.834,2.245-.377A7.973,7.973,0,0,0,340.552,152.923Z" transform="translate(127.461 3343.155)" opacity="0.1"/>
    <path id="Path_215" data-name="Path 215" d="M340.552,151.923a8.392,8.392,0,0,0-1.509-1.479A4.575,4.575,0,0,0,336.082,149a4.433,4.433,0,0,0-1.75.626c-2.735,1.441-5,.079-8.182,4.365-.679.917-2.041,1.132-2.742,2.094a8.024,8.024,0,0,0-1.185,3.456,8.474,8.474,0,0,0-.117,2.528,3.165,3.165,0,0,0,1.132,2.12c.732.532,1.739.536,2.354,1.234a6.849,6.849,0,0,1,.754,1.46c.249.49.687.954,1.185.883a1.221,1.221,0,0,0,.868-1.132,6.96,6.96,0,0,0-.094-1.611,3.853,3.853,0,0,1,.589-2.716c.377-.494.943-.788,1.317-1.29.9-1.211.49-3.244,1.475-4.368a2.335,2.335,0,0,1,2.263-.63,9.645,9.645,0,0,1,2.263.973,16.8,16.8,0,0,0,3.1,1.2c.9.245,1.939.834,2.245-.377A7.973,7.973,0,0,0,340.552,151.923Z" transform="translate(127.461 3343.774)" fill="#865a61"/>
    <path id="Path_216" data-name="Path 216" d="M327.925,224.593l-.151,5.791a25.542,25.542,0,0,0,6.726.894c.377,0,.773,0,1.158-.026a25.366,25.366,0,0,0,5.949-.973h.038c.358-.106.713-.215,1.064-.336h.038l.321-.113a24.871,24.871,0,0,0,3.546-1.569l.072-.038c.125-.068.249-.136.377-.207l-.585-7.805.932-5.353-5.1-3.474a8.973,8.973,0,0,1-.958,1.162,6.412,6.412,0,0,1-1.743,1.29c-3.659,1.8-7.824-1.064-9.9-2.837l-.471-.419c-.536-.487-.841-.819-.841-.819l-2.55,3.938Z" transform="translate(125.098 3306.186)" opacity="0.1"/>
    <path id="Path_217" data-name="Path 217" d="M327.925,225.593l-.151,5.791a25.543,25.543,0,0,0,6.726.894c.377,0,.773,0,1.158-.026a25.366,25.366,0,0,0,5.949-.973h.038c.358-.106.713-.215,1.064-.336h.038l.321-.113a24.87,24.87,0,0,0,3.546-1.569l.072-.038c.125-.068.249-.136.377-.207l-.585-7.805.932-5.353-5.1-3.474a8.981,8.981,0,0,1-.958,1.162,6.412,6.412,0,0,1-1.743,1.29c-3.659,1.8-7.824-1.064-9.9-2.837l-.471-.419c-.536-.487-.841-.819-.841-.819l-2.55,3.938Z" transform="translate(125.098 3305.567)" fill="#53526b"/>
    <path id="Path_218" data-name="Path 218" d="M294.36,217.1c.336.449.687.883,1.052,1.309.2.23.4.456.607.679q.155.174.317.34a25.169,25.169,0,0,0,2.739,2.486l.068.049a25.544,25.544,0,0,0,7.6,4.082l.343.109c.211.072.43.136.645.2l.087.026c.109.03.219.064.332.091a25.544,25.544,0,0,0,6.726.894c.377,0,.773,0,1.158-.026.294-4.814.377-8.677-.083-9.669a15.554,15.554,0,0,0-.932-1.667c-1.864-3-5.281-7.5-5.1-8.069a5.907,5.907,0,0,0,.155-.849c.2-1.486.4-4.206.4-4.206h0c-.083,0-1.773.042-4.259,3.429-2.55,3.478-8.114,3.942-8.114,3.942S296.4,209.487,294.36,217.1Z" transform="translate(144.724 3310.468)" fill="#555388"/>
    <path id="Path_219" data-name="Path 219" d="M363.81,223.485s.279,2.222.645,4.878h.038l.321-.113a24.87,24.87,0,0,0,3.546-1.569l.072-.038c.125-.068.249-.136.377-.207a25.588,25.588,0,0,0,4.655-3.35l.124-.117a23.979,23.979,0,0,0,2.192-2.263l.079-.094c-1.347-4.674-4.15-6.145-4.15-6.145s-2.55-1.162-3.248-2.784-6.858-5.051-6.858-5.051v.026c0,.29-.1,2.95-.245,5.625-.094,1.739-.211,3.486-.347,4.595a5.371,5.371,0,0,1-.2,1.064C360.336,219.083,363.81,223.485,363.81,223.485Z" transform="translate(103.336 3308.125)" fill="#555388"/>
  </g>
</svg>
