<svg xmlns="http://www.w3.org/2000/svg" width="576.422" height="275.66" viewBox="0 0 576.422 275.66">
  <g id="Group_34" data-name="Group 34" transform="translate(-312.407 -2409.699)">
    <g id="first-photo" transform="translate(312.407 2409.699)">
      <path id="Path_765" data-name="Path 765" d="M598.237,270.084H456.891v-2.913H392.8v2.913H250.872a9.562,9.562,0,0,0-9.562,9.562h0V473.19a9.562,9.562,0,0,0,9.562,9.562H598.237a9.562,9.562,0,0,0,9.562-9.562V279.644a9.561,9.561,0,0,0-9.561-9.561Z" transform="translate(-147.969 -228.669)" fill="#3f3d56"/>
      <rect id="Rectangle_125" data-name="Rectangle 125" width="340.85" height="192.274" transform="translate(106.161 58.312)" fill="#e6e6e6"/>
      <rect id="Rectangle_130" data-name="Rectangle 130" width="312.056" height="166.197" transform="translate(120.616 68.48)" fill="#fff"/>
      <circle id="Ellipse_120" data-name="Ellipse 120" cx="3.496" cy="3.496" r="3.496" transform="translate(272.798 46.076)" fill="#6ca2c5"/>
      <path id="Path_766" data-name="Path 766" d="M605.123,648.7H571.859v-2.4a.475.475,0,0,0-.475-.475H559.978a.475.475,0,0,0-.475.475h0v2.4h-7.128v-2.4a.475.475,0,0,0-.475-.475H540.495a.475.475,0,0,0-.475.475h0v2.4h-7.128v-2.4a.475.475,0,0,0-.475-.475H521.011a.475.475,0,0,0-.475.475h0v2.4h-7.128v-2.4a.475.475,0,0,0-.475-.475h-11.4a.475.475,0,0,0-.475.475h0v2.4h-7.128v-2.4a.475.475,0,0,0-.475-.475h-11.4a.475.475,0,0,0-.475.475h0v2.4H474.44v-2.4a.475.475,0,0,0-.475-.475h-11.4a.475.475,0,0,0-.475.475h0v2.4h-7.131v-2.4a.475.475,0,0,0-.475-.475H365.142a.475.475,0,0,0-.475.475h0v2.4h-7.128v-2.4a.475.475,0,0,0-.475-.475H345.658a.475.475,0,0,0-.475.475h0v2.4h-7.128v-2.4a.475.475,0,0,0-.475-.475h-11.4a.475.475,0,0,0-.475.475h0v2.4h-7.128v-2.4a.475.475,0,0,0-.475-.475h-11.4a.475.475,0,0,0-.475.475h0v2.4h-7.127v-2.4a.475.475,0,0,0-.475-.475H287.207a.475.475,0,0,0-.475.475h0v2.4H279.6v-2.4a.475.475,0,0,0-.475-.475H267.724a.475.475,0,0,0-.475.475h0v2.4H260.12v-2.4a.475.475,0,0,0-.475-.475H248.238a.475.475,0,0,0-.475.475h0v2.4H225.905A11.405,11.405,0,0,0,214.5,660.1v5.157a11.405,11.405,0,0,0,11.405,11.405H605.123a11.405,11.405,0,0,0,11.405-11.4V660.1A11.405,11.405,0,0,0,605.123,648.7Z" transform="translate(-135.724 -401.607)" fill="#3f3d56"/>
      <rect id="Rectangle_126" data-name="Rectangle 126" width="137.994" height="145.056" transform="translate(207.647 80.136)" fill="#e6e6e6"/>
      <rect id="Rectangle_128" data-name="Rectangle 128" width="576.422" height="1.087" transform="translate(0 274.573)" fill="#e6e6e6"/>
      <path id="Path_776" data-name="Path 776" d="M1010.585,623.72c7.81,8.381,8.214,20.7,8.214,20.7s-12.259-1.27-20.069-9.651-8.214-20.7-8.214-20.7S1002.775,615.34,1010.585,623.72Z" transform="translate(-490.145 -387.104)" fill="#6ca2c5"/>
      <path id="Path_777" data-name="Path 777" d="M1055.313,639.041c-8.381,7.81-20.7,8.214-20.7,8.214s1.27-12.259,9.651-20.069,20.7-8.214,20.7-8.214S1063.694,631.231,1055.313,639.041Z" transform="translate(-510.285 -389.343)" fill="#6ca2c5"/>
      <path id="Path_778" data-name="Path 778" d="M1034.673,684.8h-30.825a3.151,3.151,0,0,1-2.835-1.774l-6.711-13.8a3.151,3.151,0,0,1,2.835-4.532h44.248a3.151,3.151,0,0,1,2.835,4.532l-6.711,13.8a3.151,3.151,0,0,1-2.835,1.774Z" transform="translate(-491.728 -410.226)" fill="#e5e5e5"/>
      <path id="Path_779" data-name="Path 779" d="M113.585,623.72c7.81,8.381,8.214,20.7,8.214,20.7s-12.259-1.27-20.069-9.651-8.214-20.7-8.214-20.7S105.775,615.34,113.585,623.72Z" transform="translate(-80.469 -387.104)" fill="#e5e5e5"/>
      <path id="Path_780" data-name="Path 780" d="M128.673,684.8H97.848a3.151,3.151,0,0,1-2.835-1.774L88.3,669.23a3.151,3.151,0,0,1,2.835-4.532h44.248a3.151,3.151,0,0,1,2.835,4.532l-6.711,13.8a3.151,3.151,0,0,1-2.835,1.774Z" transform="translate(-77.941 -410.226)" fill="#e5e5e5"/>
      <circle id="Ellipse_127" data-name="Ellipse 127" cx="18.34" cy="18.34" r="18.34" transform="translate(274.954 84.52)" fill="#a0616a"/>
      <path id="Path_803" data-name="Path 803" d="M531.686,528.641l11.844-74.558a28.268,28.268,0,0,1,35.845-22.7h0a28.183,28.183,0,0,1,19.863,32.3l-12.387,66.584Z" transform="translate(-280.589 -303.15)" fill="#6ca2c5"/>
      <path id="Path_804" data-name="Path 804" d="M608.808,606.363a7.509,7.509,0,0,0,1.3-11.439l12.243-23.708-13.787,1.471-9.512,22.289a7.552,7.552,0,0,0,9.753,11.388Z" transform="translate(-310.451 -367.532)" fill="#a0616a"/>
      <path id="Path_805" data-name="Path 805" d="M617.135,536.239a3.365,3.365,0,0,1-1.812-.859l-4.684-4.328a3.371,3.371,0,0,1-.815-3.774l9.362-22.19-1.328-43.846a10.825,10.825,0,0,1,21.45,2.926h0l2.271,27.562a34.627,34.627,0,0,1-6.674,23.444l-14.6,19.737a3.363,3.363,0,0,1-2.385,1.347A3.319,3.319,0,0,1,617.135,536.239Z" transform="translate(-316.156 -313.028)" fill="#6ca2c5"/>
      <path id="Path_806" data-name="Path 806" d="M414.849,359.713a7.509,7.509,0,0,0,10.025,5.662l17.059,20.518,4.02-13.27-16.816-17.45a7.552,7.552,0,0,0-14.288,4.541Z" transform="translate(-227.167 -266.845)" fill="#a0616a"/>
      <path id="Path_807" data-name="Path 807" d="M439.155,379.317a3.365,3.365,0,0,1,1.5-1.333l5.813-2.626a3.371,3.371,0,0,1,3.793.721l16.784,17.273,40.894,15.872a10.824,10.824,0,1,1-11.058,18.612h0l-26.266-8.656a34.627,34.627,0,0,1-18.987-15.286l-12.482-21.139a3.364,3.364,0,0,1-.31-2.722,3.328,3.328,0,0,1,.323-.715Z" transform="translate(-238.11 -277.945)" fill="#6ca2c5"/>
      <path id="Path_808" data-name="Path 808" d="M624.546,502.685l-.747,23.894-13.755,23.9,11.485-26.637Z" transform="translate(-316.376 -336.232)" opacity="0.1" style="isolation: isolate"/>
      <path id="Path_696" data-name="Path 696" d="M579.706,354.294c1.892,2.239,5.093,2.87,8.046,3.129a75.733,75.733,0,0,0,20.579-1.68c.418,4.055-.722,8.426,1.666,11.761a54.6,54.6,0,0,0,1.94-12.378,11.857,11.857,0,0,0-.686-5.3,4.876,4.876,0,0,0-4.153-3.062,10.41,10.41,0,0,1,4.643-1.985l-5.8-2.916,1.49-1.53-10.5-.643,3.042-1.933a65.976,65.976,0,0,0-13.822-.435,11.862,11.862,0,0,0-6.113,1.7c-1.734,1.24-2.737,3.705-1.66,5.526a8.024,8.024,0,0,0-6.115,4.852,12.951,12.951,0,0,0-.464,6.227,44.133,44.133,0,0,0,2.314,9.79" transform="translate(-298.832 -260.626)" fill="#2f2e41"/>
      <path id="Path_138" data-name="Path 138" d="M579,244.025,411.891,282.606a3.18,3.18,0,0,1-3.809-2.38l-9.57-41.453a3.18,3.18,0,0,1,2.38-3.809L568,196.383a3.18,3.18,0,0,1,3.809,2.38l9.57,41.453a3.18,3.18,0,0,1-2.38,3.809Z" transform="translate(-219.729 -196.301)" fill="#fff"/>
      <path id="Path_138-2" data-name="Path 138" d="M579,244.025,411.891,282.606a3.18,3.18,0,0,1-3.809-2.38l-9.57-41.453a3.18,3.18,0,0,1,2.38-3.809L568,196.383a3.18,3.18,0,0,1,3.809,2.38l9.57,41.453a3.18,3.18,0,0,1-2.38,3.809ZM401.178,236.2a1.908,1.908,0,0,0-1.428,2.286l9.57,41.453a1.908,1.908,0,0,0,2.286,1.428l167.112-38.581a1.907,1.907,0,0,0,1.428-2.286l-9.57-41.454a1.907,1.907,0,0,0-2.286-1.428Z" transform="translate(-219.729 -196.301)" fill="#e6e6e6"/>
      <path id="Path_139" data-name="Path 139" d="M508.813,250.239a2.156,2.156,0,0,0,.963,4.2l.007,0,99.047-22.867a2.156,2.156,0,0,0-.97-4.2Z" transform="translate(-269.377 -210.466)" fill="#e6e6e6"/>
      <path id="Path_140" data-name="Path 140" d="M514.17,284.394a2.156,2.156,0,0,0,.963,4.2l.007,0,42.62-9.84a2.156,2.156,0,1,0-.963-4.2l-.007,0Z" transform="translate(-271.824 -232.015)" fill="#e6e6e6"/>
      <g id="Group_45" data-name="Group 45" transform="translate(199.421 41.838)">
        <circle id="Ellipse_18" data-name="Ellipse 18" cx="12.938" cy="12.938" r="12.938" fill="#6ca2c5"/>
        <path id="Path_395" data-name="Path 395" d="M453.255,297.232a2,2,0,0,1-1.265-.119l-.025-.011-5.206-2.363a2.019,2.019,0,0,1,1.672-3.676L451.8,292.6l4.732-10.4a2.017,2.017,0,0,1,2.671-1h0l-.028.068.03-.068a2.019,2.019,0,0,1,1,2.672L454.644,296.1a2.018,2.018,0,0,1-1.387,1.128Z" transform="translate(-440.681 -276.83)" fill="#fff"/>
      </g>
    </g>
  </g>
</svg>
