<svg xmlns="http://www.w3.org/2000/svg" xmlns:xlink="http://www.w3.org/1999/xlink" width="400.046" height="209.914" viewBox="0 0 400.046 209.914">
  <defs>
    <linearGradient id="linear-gradient" x1="0.5" y1="1" x2="0.5" gradientUnits="objectBoundingBox">
      <stop offset="0" stop-color="gray" stop-opacity="0.251"/>
      <stop offset="0.54" stop-color="gray" stop-opacity="0.122"/>
      <stop offset="1" stop-color="gray" stop-opacity="0.102"/>
    </linearGradient>
    <linearGradient id="linear-gradient-2" x1="0.5" y1="1" x2="0.5" y2="-0.001" xlink:href="#linear-gradient"/>
  </defs>
  <g id="Group_37" data-name="Group 37" transform="translate(-1224.265 -3941.432)">
    <g id="photo-svg-3" transform="translate(1224.265 3941.432)">
      <g id="Group_12" data-name="Group 12" transform="translate(155.182 14.6)" opacity="0.1">
        <ellipse id="Ellipse_30" data-name="Ellipse 30" cx="4.154" cy="5.439" rx="4.154" ry="5.439" transform="translate(15.655 112.268)" fill="#3f3d56"/>
        <path id="Path_220" data-name="Path 220" d="M527.456,445.754a6.57,6.57,0,0,0,.869-3.325c0-3-1.861-5.439-4.157-5.439S520,439.432,520,442.436a6.569,6.569,0,0,0,.869,3.325,6.793,6.793,0,0,0,0,6.647,6.793,6.793,0,0,0,0,6.647A6.549,6.549,0,0,0,520,462.38c0,3,1.862,5.439,4.154,5.439s4.157-2.438,4.157-5.439a6.548,6.548,0,0,0-.869-3.325,6.793,6.793,0,0,0,0-6.647,6.793,6.793,0,0,0,0-6.647Z" transform="translate(-504.359 -351.316)" fill="#3f3d56"/>
        <ellipse id="Ellipse_31" data-name="Ellipse 31" cx="4.154" cy="5.439" rx="4.154" ry="5.439" transform="translate(15.655 79.034)" fill="#3f3d56"/>
        <ellipse id="Ellipse_32" data-name="Ellipse 32" cx="4.154" cy="5.439" rx="4.154" ry="5.439" transform="translate(15.655 72.387)" fill="#3f3d56"/>
        <path id="Path_221" data-name="Path 221" d="M481.409,234.607a19.376,19.376,0,0,1-1.548-2.278l10.914-1.792-11.8.088a19.936,19.936,0,0,1-.365-15.768l15.838,8.216-14.6-10.738a19.9,19.9,0,1,1,32.85,22.265,19.9,19.9,0,0,1,2.27,3.628l-14.173,7.38,15.108-5.07a19.9,19.9,0,0,1-3.208,18.688,19.9,19.9,0,1,1-31.281,0,19.9,19.9,0,0,1,0-24.609Z" transform="translate(-477.149 -202.271)" fill="#6ca2c5"/>
        <path id="Path_222" data-name="Path 222" d="M516.95,324.06a19.808,19.808,0,0,1-4.26,12.3,19.9,19.9,0,1,1-31.281,0C478.741,332.977,516.95,321.826,516.95,324.06Z" transform="translate(-477.149 -279.42)" opacity="0.1"/>
      </g>
      <g id="Group_13" data-name="Group 13" transform="translate(208.681 32.789)" opacity="0.1">
        <ellipse id="Ellipse_33" data-name="Ellipse 33" cx="3.106" cy="4.063" rx="3.106" ry="4.063" transform="translate(11.698 83.826)" fill="#3f3d56"/>
        <path id="Path_223" data-name="Path 223" d="M661.322,433.868a4.9,4.9,0,0,0,.646-2.482c0-2.245-1.391-4.066-3.1-4.066s-3.106,1.825-3.106,4.066a4.865,4.865,0,0,0,.65,2.482,5.073,5.073,0,0,0,0,4.968,5.073,5.073,0,0,0,0,4.968,4.865,4.865,0,0,0-.65,2.482c0,2.245,1.391,4.066,3.106,4.066s3.1-1.825,3.1-4.066a4.9,4.9,0,0,0-.646-2.482,5.109,5.109,0,0,0,0-4.968A5.109,5.109,0,0,0,661.322,433.868Z" transform="translate(-644.065 -363.365)" fill="#3f3d56"/>
        <ellipse id="Ellipse_34" data-name="Ellipse 34" cx="3.106" cy="4.063" rx="3.106" ry="4.063" transform="translate(11.698 58.991)" fill="#3f3d56"/>
        <ellipse id="Ellipse_35" data-name="Ellipse 35" cx="3.106" cy="4.063" rx="3.106" ry="4.063" transform="translate(11.698 54.023)" fill="#3f3d56"/>
        <path id="Path_224" data-name="Path 224" d="M626.9,276.2a14.223,14.223,0,0,1-1.157-1.7l8.158-1.34-8.822.066a14.906,14.906,0,0,1-.285-11.786l11.837,6.143-10.917-8.03a14.874,14.874,0,1,1,24.561,16.644,15.041,15.041,0,0,1,1.7,2.712l-10.585,5.5,11.29-3.789a14.878,14.878,0,0,1-2.4,13.965,14.87,14.87,0,1,1-23.36,0,14.87,14.87,0,0,1,0-18.389Z" transform="translate(-623.72 -252.103)" fill="#6ca2c5"/>
        <path id="Path_225" data-name="Path 225" d="M653.473,342.919a14.808,14.808,0,0,1-3.183,9.194,14.87,14.87,0,1,1-23.36,0C624.929,349.584,653.473,341.251,653.473,342.919Z" transform="translate(-623.732 -309.632)" opacity="0.1"/>
      </g>
      <g id="Group_14" data-name="Group 14" transform="translate(358.998)" opacity="0.1">
        <ellipse id="Ellipse_36" data-name="Ellipse 36" cx="4.154" cy="5.439" rx="4.154" ry="5.439" transform="translate(15.936 112.268)" fill="#3f3d56"/>
        <path id="Path_226" data-name="Path 226" d="M1080.058,405.754a6.566,6.566,0,0,1-.869-3.325c0-3,1.861-5.439,4.157-5.439s4.154,2.435,4.154,5.439a6.571,6.571,0,0,1-.869,3.325,6.793,6.793,0,0,1,0,6.647,6.793,6.793,0,0,1,0,6.647,6.547,6.547,0,0,1,.869,3.325c0,3-1.861,5.439-4.154,5.439s-4.157-2.438-4.157-5.439a6.544,6.544,0,0,1,.869-3.325,6.792,6.792,0,0,1,0-6.647A6.792,6.792,0,0,1,1080.058,405.754Z" transform="translate(-1063.257 -311.316)" fill="#3f3d56"/>
        <ellipse id="Ellipse_37" data-name="Ellipse 37" cx="4.154" cy="5.439" rx="4.154" ry="5.439" transform="translate(15.936 79.034)" fill="#3f3d56"/>
        <ellipse id="Ellipse_38" data-name="Ellipse 38" cx="4.154" cy="5.439" rx="4.154" ry="5.439" transform="translate(15.936 72.387)" fill="#3f3d56"/>
        <path id="Path_227" data-name="Path 227" d="M1071.18,194.607a19.377,19.377,0,0,0,1.548-2.278l-10.914-1.792,11.8.088a19.936,19.936,0,0,0,.365-15.768l-15.837,8.216,14.6-10.738A19.9,19.9,0,1,0,1039.9,194.6a19.9,19.9,0,0,0-2.27,3.628l14.173,7.38-15.107-5.07a19.9,19.9,0,0,0,3.208,18.688,19.9,19.9,0,1,0,31.281,0,19.9,19.9,0,0,0,0-24.609Z" transform="translate(-1035.541 -162.271)" fill="#6ca2c5"/>
        <path id="Path_228" data-name="Path 228" d="M1035.809,284.06a19.809,19.809,0,0,0,4.26,12.3,19.9,19.9,0,1,0,31.281,0C1074.018,292.977,1035.809,281.826,1035.809,284.06Z" transform="translate(-1035.711 -239.42)" opacity="0.1"/>
      </g>
      <g id="Group_15" data-name="Group 15" transform="translate(324.036 30.599)" opacity="0.1">
        <ellipse id="Ellipse_39" data-name="Ellipse 39" cx="3.106" cy="4.063" rx="3.106" ry="4.063" transform="translate(11.846 83.826)" fill="#3f3d56"/>
        <path id="Path_229" data-name="Path 229" d="M972.875,427.868a4.9,4.9,0,0,1-.646-2.482c0-2.245,1.391-4.066,3.1-4.066s3.106,1.825,3.106,4.066a4.866,4.866,0,0,1-.65,2.482,5.073,5.073,0,0,1,0,4.968,5.074,5.074,0,0,1,0,4.968,4.865,4.865,0,0,1,.65,2.482c0,2.245-1.391,4.066-3.106,4.066s-3.1-1.825-3.1-4.066a4.9,4.9,0,0,1,.646-2.482,5.11,5.11,0,0,1,0-4.968,5.11,5.11,0,0,1,0-4.968Z" transform="translate(-960.377 -357.365)" fill="#3f3d56"/>
        <ellipse id="Ellipse_40" data-name="Ellipse 40" cx="3.106" cy="4.063" rx="3.106" ry="4.063" transform="translate(11.846 58.991)" fill="#3f3d56"/>
        <ellipse id="Ellipse_41" data-name="Ellipse 41" cx="3.106" cy="4.063" rx="3.106" ry="4.063" transform="translate(11.846 54.023)" fill="#3f3d56"/>
        <path id="Path_230" data-name="Path 230" d="M966.33,270.2a14.233,14.233,0,0,0,1.157-1.7l-8.158-1.34,8.822.066a14.906,14.906,0,0,0,.285-11.786L956.6,261.578l10.917-8.03a14.874,14.874,0,1,0-24.561,16.644,15.04,15.04,0,0,0-1.7,2.712l10.585,5.5-11.268-3.785a14.878,14.878,0,0,0,2.4,13.965,14.87,14.87,0,1,0,23.36,0,14.87,14.87,0,0,0,0-18.389Z" transform="translate(-939.756 -246.103)" fill="#6ca2c5"/>
        <path id="Path_231" data-name="Path 231" d="M939.787,336.919a14.809,14.809,0,0,0,3.183,9.194,14.87,14.87,0,1,0,23.36,0C968.33,343.584,939.787,335.251,939.787,336.919Z" transform="translate(-939.771 -303.632)" opacity="0.1"/>
      </g>
      <g id="Group_16" data-name="Group 16" transform="translate(2.668 0.061)" opacity="0.1">
        <ellipse id="Ellipse_42" data-name="Ellipse 42" cx="4.154" cy="5.439" rx="4.154" ry="5.439" transform="translate(15.659 112.207)" fill="#3f3d56"/>
        <path id="Path_232" data-name="Path 232" d="M109.648,405.754a6.57,6.57,0,0,0,.869-3.325c0-3-1.862-5.439-4.154-5.439s-4.154,2.435-4.154,5.439a6.57,6.57,0,0,0,.865,3.325,6.815,6.815,0,0,0,0,6.647,6.815,6.815,0,0,0,0,6.647,6.544,6.544,0,0,0-.865,3.325c0,3,1.858,5.439,4.154,5.439s4.165-2.431,4.165-5.431a6.548,6.548,0,0,0-.869-3.325,6.793,6.793,0,0,0,0-6.647,6.793,6.793,0,0,0,0-6.647Z" transform="translate(-86.55 -311.378)" fill="#3f3d56"/>
        <ellipse id="Ellipse_43" data-name="Ellipse 43" cx="4.154" cy="5.439" rx="4.154" ry="5.439" transform="translate(15.659 78.973)" fill="#3f3d56"/>
        <ellipse id="Ellipse_44" data-name="Ellipse 44" cx="4.154" cy="5.439" rx="4.154" ry="5.439" transform="translate(15.659 72.326)" fill="#3f3d56"/>
        <path id="Path_233" data-name="Path 233" d="M63.576,194.713a19.829,19.829,0,0,1-1.548-2.278l10.917-1.792-11.815.106a19.937,19.937,0,0,1-.365-15.768L76.607,183.2l-14.6-10.738a19.9,19.9,0,1,1,32.85,22.265,19.909,19.909,0,0,1,2.27,3.628l-14.177,7.362,15.111-5.07a19.926,19.926,0,0,1-3.212,18.688,19.9,19.9,0,1,1-31.281,0,19.9,19.9,0,0,1,0-24.609Z" transform="translate(-59.309 -162.439)" fill="#6ca2c5"/>
        <path id="Path_234" data-name="Path 234" d="M99.11,284.06a19.809,19.809,0,0,1-4.26,12.3,19.9,19.9,0,1,1-31.281,0C60.9,292.977,99.11,281.826,99.11,284.06Z" transform="translate(-59.309 -239.481)" opacity="0.1"/>
      </g>
      <g id="Group_17" data-name="Group 17" transform="translate(47.772 30.599)" opacity="0.1">
        <ellipse id="Ellipse_45" data-name="Ellipse 45" cx="3.106" cy="4.063" rx="3.106" ry="4.063" transform="translate(11.698 83.826)" fill="#3f3d56"/>
        <path id="Path_235" data-name="Path 235" d="M220.492,427.868a4.9,4.9,0,0,0,.646-2.482c0-2.245-1.387-4.066-3.1-4.066s-3.106,1.825-3.106,4.066a4.9,4.9,0,0,0,.65,2.482,5.074,5.074,0,0,0,0,4.968,5.074,5.074,0,0,0,0,4.968,4.9,4.9,0,0,0-.65,2.482c0,2.245,1.391,4.066,3.106,4.066s3.1-1.825,3.1-4.066a4.9,4.9,0,0,0-.646-2.482,5.11,5.11,0,0,0,0-4.968A5.11,5.11,0,0,0,220.492,427.868Z" transform="translate(-203.231 -357.365)" fill="#3f3d56"/>
        <ellipse id="Ellipse_46" data-name="Ellipse 46" cx="3.106" cy="4.063" rx="3.106" ry="4.063" transform="translate(11.698 58.991)" fill="#3f3d56"/>
        <ellipse id="Ellipse_47" data-name="Ellipse 47" cx="3.106" cy="4.063" rx="3.106" ry="4.063" transform="translate(11.698 54.023)" fill="#3f3d56"/>
        <path id="Path_236" data-name="Path 236" d="M186.063,270.2a14.673,14.673,0,0,1-1.157-1.7l8.158-1.34-8.822.066a14.907,14.907,0,0,1-.285-11.786l11.837,6.143-10.917-8.03a14.874,14.874,0,1,1,24.561,16.644,14.645,14.645,0,0,1,1.7,2.712l-10.585,5.5,11.29-3.789a14.878,14.878,0,0,1-2.4,13.965,14.87,14.87,0,1,1-23.36,0,14.87,14.87,0,0,1,0-18.389Z" transform="translate(-182.88 -246.103)" fill="#6ca2c5"/>
        <path id="Path_237" data-name="Path 237" d="M212.633,336.919a14.808,14.808,0,0,1-3.183,9.194,14.87,14.87,0,1,1-23.36,0C184.082,343.584,212.633,335.251,212.633,336.919Z" transform="translate(-182.892 -303.632)" opacity="0.1"/>
      </g>
      <ellipse id="Ellipse_48" data-name="Ellipse 48" cx="200.023" cy="3.234" rx="200.023" ry="3.234" transform="translate(0 176.892)" fill="#6ca2c5" opacity="0.1"/>
      <ellipse id="Ellipse_49" data-name="Ellipse 49" cx="200.023" cy="3.234" rx="200.023" ry="3.234" transform="translate(0 203.446)" fill="#6ca2c5" opacity="0.1"/>
      <ellipse id="Ellipse_50" data-name="Ellipse 50" cx="200.023" cy="3.234" rx="200.023" ry="3.234" transform="translate(0 121.473)" fill="#6ca2c5" opacity="0.1"/>
      <ellipse id="Ellipse_51" data-name="Ellipse 51" cx="200.023" cy="3.234" rx="200.023" ry="3.234" transform="translate(0 149.181)" fill="#6ca2c5" opacity="0.1"/>
      <path id="Path_238" data-name="Path 238" d="M825.973,257.532a6.679,6.679,0,0,0-3.869.423,5.712,5.712,0,0,1-4.65,0,6.526,6.526,0,0,0-5.475.106,3.373,3.373,0,0,1-1.573.394c-2.219,0-4.063-2.234-4.446-5.179a4.334,4.334,0,0,0,1.095-1.194,6.229,6.229,0,0,1,11.122-.04,4.263,4.263,0,0,0,3.683,2.022h.058C823.7,254.046,825.232,255.462,825.973,257.532Z" transform="translate(-530.76 -217.115)" fill="#6ca2c5" opacity="0.1"/>
      <path id="Path_239" data-name="Path 239" d="M832.717,233.94l-3.584,2.27,2.19-3.957a3.54,3.54,0,0,0-2.168-.77H829.1a4.144,4.144,0,0,1-.73-.055l-1.234.77.522-.949a4.3,4.3,0,0,1-2.128-1.613l-2.19,1.38,1.372-2.5a6.36,6.36,0,0,0-4.869-2.46,6.68,6.68,0,0,0-5.577,3.438,4.165,4.165,0,0,1-3.683,1.986h-.121c-2.5,0-4.519,2.829-4.519,6.318s2.022,6.322,4.519,6.322a3.428,3.428,0,0,0,1.573-.394,6.519,6.519,0,0,1,5.475-.109,5.676,5.676,0,0,0,4.65,0,6.541,6.541,0,0,1,5.424.106,3.4,3.4,0,0,0,1.555.387c2.5,0,4.519-2.832,4.519-6.322A8,8,0,0,0,832.717,233.94Z" transform="translate(-530.748 -202.777)" fill="#6ca2c5" opacity="0.1"/>
      <path id="Path_240" data-name="Path 240" d="M418.9,256.763a4.687,4.687,0,0,0-2.712.3,3.986,3.986,0,0,1-3.252,0,4.555,4.555,0,0,0-3.829.077,2.416,2.416,0,0,1-1.1.274c-1.551,0-2.843-1.562-3.113-3.624a3.037,3.037,0,0,0,.777-.836,4.362,4.362,0,0,1,7.786-.029,2.989,2.989,0,0,0,2.581,1.416h.04A3.235,3.235,0,0,1,418.9,256.763Z" transform="translate(-276.09 -218.321)" fill="#6ca2c5" opacity="0.1"/>
      <path id="Path_241" data-name="Path 241" d="M423.616,240.259l-2.508,1.591,1.522-2.77a2.464,2.464,0,0,0-1.515-.54h-.044a2.732,2.732,0,0,1-.518-.04l-.85.54.365-.664a3.03,3.03,0,0,1-1.489-1.128l-1.522.964.964-1.745a4.457,4.457,0,0,0-3.409-1.726,4.669,4.669,0,0,0-3.9,2.409,2.92,2.92,0,0,1-2.581,1.391h-.084c-1.748,0-3.165,1.978-3.165,4.424s1.416,4.424,3.165,4.424a2.373,2.373,0,0,0,1.1-.277,4.563,4.563,0,0,1,3.825-.073,3.92,3.92,0,0,0,3.256.022,4.577,4.577,0,0,1,3.8.073,2.366,2.366,0,0,0,1.1.27c1.745,0,3.161-1.982,3.161-4.424A5.6,5.6,0,0,0,423.616,240.259Z" transform="translate(-276.077 -208.288)" fill="#6ca2c5" opacity="0.1"/>
      <path id="Path_242" data-name="Path 242" d="M321.59,335.173a4.679,4.679,0,0,1,2.708.3,3.993,3.993,0,0,0,3.256,0,4.57,4.57,0,0,1,3.829.073,2.361,2.361,0,0,0,1.1.277c1.551,0,2.843-1.566,3.11-3.628a2.975,2.975,0,0,1-.774-.836,4.366,4.366,0,0,0-7.789-.026,2.989,2.989,0,0,1-2.577,1.416h-.04A3.258,3.258,0,0,0,321.59,335.173Z" transform="translate(-223.188 -268.111)" fill="#6ca2c5" opacity="0.1"/>
      <path id="Path_243" data-name="Path 243" d="M307.5,318.705l2.511,1.591-1.526-2.767a2.478,2.478,0,0,1,1.518-.544h.04a3.113,3.113,0,0,0,.522-.037l.85.537-.365-.661a3.026,3.026,0,0,0,1.486-1.128l1.522.964-.949-1.748a4.453,4.453,0,0,1,3.409-1.723,4.673,4.673,0,0,1,3.9,2.409A2.92,2.92,0,0,0,323,316.99h.088c1.745,0,3.161,1.982,3.161,4.424s-1.416,4.424-3.161,4.424a2.369,2.369,0,0,1-1.1-.274,4.555,4.555,0,0,0-3.829-.077,3.963,3.963,0,0,1-1.635.365,4.015,4.015,0,0,1-1.621-.343,4.57,4.57,0,0,0-3.792.073,2.365,2.365,0,0,1-1.095.27c-1.748,0-3.165-1.978-3.165-4.424A5.636,5.636,0,0,1,307.5,318.705Z" transform="translate(-213.833 -258.104)" fill="#6ca2c5" opacity="0.1"/>
      <path id="Path_244" data-name="Path 244" d="M709.184,585.276c.953-1.767-.128-3.928-1.369-5.5s-2.759-3.212-2.727-5.216c.047-2.88,3.106-4.585,5.548-6.11a27.118,27.118,0,0,0,4.982-4.015,7.35,7.35,0,0,0,1.529-2.051,8.3,8.3,0,0,0,.46-3.65q-.157-6.165-.61-12.323" transform="translate(-466.708 -406.197)" fill="none" stroke="#3f3d56" stroke-miterlimit="10" stroke-width="4"/>
      <path id="Path_245" data-name="Path 245" d="M734.825,538.394a4.493,4.493,0,0,0-2.245-3.683l-1.007,1.989.033-2.409a4.493,4.493,0,1,0,3.219,4.1Z" transform="translate(-479.887 -398.385)" fill="#6ca2c5"/>
      <path id="Path_246" data-name="Path 246" d="M713.722,617.844a4.493,4.493,0,0,1-8.483-1.825,4.38,4.38,0,0,1,.292-1.825,4.5,4.5,0,0,1,8.4.047l-2.807,2.285,3.088-.73A4.467,4.467,0,0,1,713.722,617.844Z" transform="translate(-466.799 -447.424)" fill="#6ca2c5"/>
      <path id="Path_247" data-name="Path 247" d="M714.224,589.64a4.493,4.493,0,0,1-1.424-8.815l-.026,1.851,1.018-2.015h0a4.494,4.494,0,0,1,.42,8.979Z" transform="translate(-469.521 -427.943)" fill="#6ca2c5"/>
      <path id="Path_248" data-name="Path 248" d="M744.079,569.757a4.493,4.493,0,1,1,1.986-8.4l-.792,2.19,1.617-1.6a4.493,4.493,0,0,1-2.825,7.8Z" transform="translate(-488.466 -415.32)" fill="#6ca2c5"/>
      <path id="Path_249" data-name="Path 249" d="M734.207,543.879c-1.037.113-2.044.434-3.088.5a3.341,3.341,0,0,1-2.84-.993,14.392,14.392,0,0,1-.832-1.46,3.2,3.2,0,0,0-1.132-1.066,4.493,4.493,0,1,0,8.4,2.986C734.546,543.849,734.375,543.86,734.207,543.879Z" transform="translate(-479.874 -402.673)" opacity="0.1"/>
      <path id="Path_250" data-name="Path 250" d="M744.113,574.229a4.493,4.493,0,0,1-4.274-6.409,3.326,3.326,0,0,1,.9.905,15.235,15.235,0,0,0,.891,1.486,3.666,3.666,0,0,0,2.982,1.04c1.084-.055,2.132-.365,3.212-.456.15,0,.3-.022.453-.026A4.493,4.493,0,0,1,744.113,574.229Z" transform="translate(-488.5 -419.792)" opacity="0.1"/>
      <path id="Path_251" data-name="Path 251" d="M714.227,594.266a4.493,4.493,0,0,1-4.311-6.325,3.649,3.649,0,0,1,.953.912,15.061,15.061,0,0,0,.975,1.515,4.069,4.069,0,0,0,3.179,1.095c1.146-.047,2.19-.3,3.285-.365A4.5,4.5,0,0,1,714.227,594.266Z" transform="translate(-469.524 -432.569)" opacity="0.1"/>
      <path id="Path_252" data-name="Path 252" d="M713.722,622.82a4.493,4.493,0,0,1-8.483-1.825,4.381,4.381,0,0,1,.292-1.825,4.487,4.487,0,0,1,.986.88c.427.518.708,1.1,1.2,1.6a5.615,5.615,0,0,0,3.719,1.307,18.858,18.858,0,0,0,2.281-.131Z" transform="translate(-466.799 -452.399)" opacity="0.1"/>
      <path id="Path_253" data-name="Path 253" d="M99.184,513.276c.953-1.767-.128-3.927-1.369-5.5s-2.759-3.219-2.727-5.216c.047-2.88,3.106-4.584,5.548-6.11a27.119,27.119,0,0,0,4.982-4.015,7.347,7.347,0,0,0,1.529-2.051,8.3,8.3,0,0,0,.46-3.65q-.161-6.165-.61-12.323" transform="translate(-79.361 -360.478)" fill="none" stroke="#3f3d56" stroke-miterlimit="10" stroke-width="4"/>
      <path id="Path_254" data-name="Path 254" d="M124.825,466.394a4.493,4.493,0,0,0-2.245-3.683l-1.007,1.989.033-2.409a4.493,4.493,0,1,0,3.219,4.1Z" transform="translate(-92.54 -352.666)" fill="#6ca2c5"/>
      <path id="Path_255" data-name="Path 255" d="M103.722,545.844a4.493,4.493,0,0,1-8.483-1.825,4.38,4.38,0,0,1,.292-1.825,4.5,4.5,0,0,1,8.4.047l-2.807,2.285,3.088-.73a4.468,4.468,0,0,1-.485,2.048Z" transform="translate(-79.452 -401.704)" fill="#6ca2c5"/>
      <path id="Path_256" data-name="Path 256" d="M104.225,517.64a4.493,4.493,0,0,1-1.424-8.815l-.026,1.85,1.018-2.015h0a4.494,4.494,0,1,1,.42,8.979Z" transform="translate(-82.175 -382.224)" fill="#6ca2c5"/>
      <path id="Path_257" data-name="Path 257" d="M134.079,497.757a4.493,4.493,0,1,1,1.986-8.4l-.792,2.19,1.617-1.6a4.493,4.493,0,0,1-2.825,7.8Z" transform="translate(-101.119 -369.6)" fill="#6ca2c5"/>
      <path id="Path_258" data-name="Path 258" d="M124.207,471.879c-1.037.113-2.044.434-3.088.5a3.341,3.341,0,0,1-2.84-.993,14.4,14.4,0,0,1-.832-1.46,3.2,3.2,0,0,0-1.132-1.066,4.493,4.493,0,1,0,8.4,2.986C124.546,471.849,124.375,471.86,124.207,471.879Z" transform="translate(-92.528 -356.953)" opacity="0.1"/>
      <path id="Path_259" data-name="Path 259" d="M134.114,502.229a4.493,4.493,0,0,1-4.274-6.409,3.326,3.326,0,0,1,.9.905,15.235,15.235,0,0,0,.891,1.486,3.665,3.665,0,0,0,2.982,1.04c1.084-.055,2.132-.365,3.212-.456.15,0,.3-.022.453-.026A4.493,4.493,0,0,1,134.114,502.229Z" transform="translate(-101.154 -374.073)" opacity="0.1"/>
      <path id="Path_260" data-name="Path 260" d="M104.227,522.266a4.493,4.493,0,0,1-4.311-6.326,3.651,3.651,0,0,1,.953.912,15.038,15.038,0,0,0,.975,1.515,4.069,4.069,0,0,0,3.179,1.1c1.146-.047,2.19-.3,3.285-.365A4.5,4.5,0,0,1,104.227,522.266Z" transform="translate(-82.177 -386.849)" opacity="0.1"/>
      <path id="Path_261" data-name="Path 261" d="M103.722,550.82a4.493,4.493,0,0,1-8.483-1.825,4.38,4.38,0,0,1,.292-1.825,4.486,4.486,0,0,1,.986.88c.427.518.708,1.1,1.2,1.6a5.615,5.615,0,0,0,3.719,1.307,18.859,18.859,0,0,0,2.281-.131Z" transform="translate(-79.452 -406.68)" opacity="0.1"/>
      <path id="Path_262" data-name="Path 262" d="M497.844,430.918c-.953-1.763.128-3.924,1.372-5.5s2.756-3.212,2.723-5.216c-.044-2.884-3.1-4.584-5.548-6.11a27.015,27.015,0,0,1-4.979-4.015,7.22,7.22,0,0,1-1.533-2.048,8.411,8.411,0,0,1-.46-3.65q.164-6.165.61-12.323" transform="translate(-329.751 -308.186)" fill="none" stroke="#3f3d56" stroke-miterlimit="10" stroke-width="4"/>
      <path id="Path_263" data-name="Path 263" d="M478.382,384.034a4.49,4.49,0,0,1,2.241-3.683l1.007,1.989-.029-2.409a4.607,4.607,0,0,1,1.478-.179,4.493,4.493,0,1,1-4.7,4.282Z" transform="translate(-322.747 -300.368)" fill="#6ca2c5"/>
      <path id="Path_264" data-name="Path 264" d="M499.476,463.421a4.493,4.493,0,1,0-.215-3.617l2.807,2.285-3.088-.73A4.469,4.469,0,0,0,499.476,463.421Z" transform="translate(-335.83 -349.343)" fill="#6ca2c5"/>
      <path id="Path_265" data-name="Path 265" d="M498.968,435.28a4.493,4.493,0,0,0,1.427-8.815l.022,1.851L499.4,426.3h0a4.493,4.493,0,0,0-4.709,4.267,4.439,4.439,0,0,0,.193,1.533A4.49,4.49,0,0,0,498.968,435.28Z" transform="translate(-333.103 -329.925)" fill="#6ca2c5"/>
      <path id="Path_266" data-name="Path 266" d="M469.068,415.376a4.493,4.493,0,1,0-1.989-8.4l.8,2.19-1.635-1.566a4.456,4.456,0,0,0-1.46,3.1,4.345,4.345,0,0,0,.113,1.237A4.49,4.49,0,0,0,469.068,415.376Z" transform="translate(-314.109 -317.289)" fill="#6ca2c5"/>
      <path id="Path_267" data-name="Path 267" d="M479.174,389.519c1.037.113,2.044.434,3.084.5a3.356,3.356,0,0,0,2.843-.993,14.374,14.374,0,0,0,.829-1.46,3.208,3.208,0,0,1,1.135-1.066,4.493,4.493,0,1,1-8.4,2.982C478.834,389.486,479,389.5,479.174,389.519Z" transform="translate(-322.933 -304.655)" opacity="0.1"/>
      <path id="Path_268" data-name="Path 268" d="M469.295,419.849a4.5,4.5,0,0,0,4.274-6.409,3.339,3.339,0,0,0-.905.905,15.228,15.228,0,0,1-.891,1.486,3.654,3.654,0,0,1-2.978,1.04c-1.084-.055-2.132-.365-3.212-.456-.15,0-.3-.022-.453-.026A4.489,4.489,0,0,0,469.295,419.849Z" transform="translate(-314.335 -321.762)" opacity="0.1"/>
      <path id="Path_269" data-name="Path 269" d="M499.321,439.906a4.49,4.49,0,0,0,4.311-6.326,3.588,3.588,0,0,0-.949.913,15.047,15.047,0,0,1-.975,1.515,4.077,4.077,0,0,1-3.183,1.1c-1.15-.047-2.19-.3-3.285-.365a4.49,4.49,0,0,0,4.081,3.168Z" transform="translate(-333.455 -334.551)" opacity="0.1"/>
      <path id="Path_270" data-name="Path 270" d="M500.34,468.46a4.493,4.493,0,0,0,8.194-3.65,4.315,4.315,0,0,0-.986.88c-.427.518-.73,1.1-1.2,1.6a5.624,5.624,0,0,1-3.723,1.307,19.685,19.685,0,0,1-2.281-.131Z" transform="translate(-336.693 -354.382)" opacity="0.1"/>
      <circle id="Ellipse_52" data-name="Ellipse 52" cx="36.486" cy="36.486" r="36.486" transform="translate(248.12 50.582)" fill="#3f3d56"/>
      <path id="Path_271" data-name="Path 271" d="M818.462,381.288a27.642,27.642,0,0,0-5.84-3.9c-1.748-.84-2.391-.825-3.628.069-1.029.73-1.7,1.434-2.88,1.175s-3.526-2.026-5.793-4.285-4.026-4.588-4.278-5.789.442-1.854,1.179-2.884c.891-1.237.916-1.88.069-3.628a27.991,27.991,0,0,0-3.906-5.84c-1.281-1.278-1.559-1-2.259-.73a13.065,13.065,0,0,0-2.07,1.1,6.245,6.245,0,0,0-2.482,2.624c-.5,1.066-1.066,3.044,1.843,8.224a45.879,45.879,0,0,0,8.067,10.757h0a45.945,45.945,0,0,0,10.793,8.081c5.176,2.92,7.158,2.34,8.224,1.843a6.127,6.127,0,0,0,2.621-2.482,12.9,12.9,0,0,0,1.095-2.07C819.458,382.847,819.743,382.562,818.462,381.288Z" transform="translate(-518.194 -284.811)" fill="#6ca2c5"/>
      <path id="Path_272" data-name="Path 272" d="M768.2,300.86a36.5,36.5,0,1,0,36.482,36.488A36.5,36.5,0,0,0,768.2,300.86Zm0,68.117a31.635,31.635,0,1,1,31.635-31.635A31.635,31.635,0,0,1,768.2,368.977Z" transform="translate(-483.593 -250.274)" opacity="0.1"/>
      <circle id="Ellipse_53" data-name="Ellipse 53" cx="36.486" cy="36.486" r="36.486" transform="translate(164.296 106.001)" fill="#3f3d56"/>
      <path id="Path_273" data-name="Path 273" d="M586.1,522.305l-10.925,11.114a.2.2,0,0,0,0,.285l7.665,8.151a1.319,1.319,0,1,1-1.865,1.865l-7.625-8.121a.208.208,0,0,0-.292,0l-1.858,1.876a8.164,8.164,0,0,1-5.84,2.456,8.343,8.343,0,0,1-5.942-2.526l-1.785-1.825a.208.208,0,0,0-.292,0l-7.607,8.1a1.319,1.319,0,1,1-1.865-1.865l7.636-8.132a.219.219,0,0,0,0-.285l-10.925-11.114a.2.2,0,0,0-.343.142v22.24a3.256,3.256,0,0,0,3.245,3.245h35.723a3.256,3.256,0,0,0,3.245-3.245V522.448a.2.2,0,0,0-.35-.142Z" transform="translate(-364.57 -390.842)" fill="#6ca2c5"/>
      <path id="Path_274" data-name="Path 274" d="M567.517,531.2a5.526,5.526,0,0,0,3.986-1.643l15.911-16.2a3.176,3.176,0,0,0-2.008-.73H549.658a3.154,3.154,0,0,0-2.008.73l15.914,16.2A5.5,5.5,0,0,0,567.517,531.2Z" transform="translate(-366.735 -384.747)" fill="#6ca2c5"/>
      <path id="Path_275" data-name="Path 275" d="M537.289,452.69a36.5,36.5,0,1,0,36.482,36.488A36.5,36.5,0,0,0,537.289,452.69Zm0,68.117a31.635,31.635,0,1,1,31.635-31.635A31.635,31.635,0,0,1,537.289,520.807Z" transform="translate(-336.967 -346.686)" opacity="0.1"/>
      <circle id="Ellipse_54" data-name="Ellipse 54" cx="36.486" cy="36.486" r="36.486" transform="translate(77.706 78.753)" fill="#3f3d56"/>
      <path id="Path_276" data-name="Path 276" d="M339.545,430.16,325,463.719l1.358,1.358,13.191-5.818,13.191,5.818,1.358-1.358Z" transform="translate(-225.354 -332.379)" fill="#6ca2c5"/>
      <path id="Path_277" data-name="Path 277" d="M301.319,378a36.479,36.479,0,1,0,.006,0Zm0,68.117a25.981,25.981,0,1,1,0,.015Z" transform="translate(-187.127 -299.258)" opacity="0.1"/>
      <path id="Path_278" data-name="Path 278" d="M810.619,576.309q-.5-1.212-1.018-2.416a7.17,7.17,0,0,0-1.245-2.15,2.276,2.276,0,0,0-.73-.548,3.113,3.113,0,0,0-.953-.19,7.61,7.61,0,0,0-1.5-.04c-.193-.058-.412-.135-.628-.223a5.212,5.212,0,0,0,3.884-4.836v-.223a5.2,5.2,0,0,0-5.18-5.223,5.11,5.11,0,0,0-2.719.777,4.88,4.88,0,0,0-5.475,2.639,6.034,6.034,0,0,0-1.862,4.49v.23c.095,2.836,1.927,5.11,4.241,5.34a2.432,2.432,0,0,0-.672.449,4.154,4.154,0,0,0-.9,2.752l-.055.73-1.226.438a.226.226,0,0,0-.055.4l1.172.836v.208a.912.912,0,0,0,.022.237,1.673,1.673,0,0,0-.453.646,2.985,2.985,0,0,0-.106,1.183l.044,1.018a8,8,0,0,0,.31,2.267c.153.453.818,1.544,1.3,1.551a47.215,47.215,0,0,0-.559,6.242c-.055.055.1.106.365.15.263,2.015,1.121,7.665,2.643,10.151a21.377,21.377,0,0,1,.573,2.467,47.259,47.259,0,0,0,1.007,6.964,35.455,35.455,0,0,1,.982,5.68.558.558,0,0,0-.405.416c-.288.869-2.157,2.19-2.157,2.19a9.044,9.044,0,0,0-1.613,1.033c-.588.529-.566,1.007,2.044.708,5.037-.58,5.9-2.19,5.9-2.19s-.08-.27-.2-.621a6.739,6.739,0,0,0-.661-1.559c-.073-.069-.146.047-.234.23a31.249,31.249,0,0,1-.343-7.048,11.439,11.439,0,0,0-.577-4.209,7.968,7.968,0,0,1,0-2.756c.288-1.161-1.15-6.822-1.15-6.822l-.825-4.168a1.2,1.2,0,0,1,.23.486l.022.084.022.12a.227.227,0,0,0,.058.113c.562,2.336,2.1,8.807,2.1,9.756,0,1.161,1.438,4.062,1.438,4.062s.573,4.789,1.581,6.672a9.674,9.674,0,0,1,.748,4.464h0a4.131,4.131,0,0,1-.46,1.482,3.527,3.527,0,0,0-.544.945l-.033.069s-.431.872-.142,1.018a7.07,7.07,0,0,0,3.453.434s.577-.73.577-1.015a4.569,4.569,0,0,0-.066-.518c-.106-.686-.3-1.767-.307-1.778a4.981,4.981,0,0,0-.365-1.767l-.146-4.062a18.755,18.755,0,0,0-1.007-8.129,13.484,13.484,0,0,1-.573-3.336c.157-.726-.288-8.417-.288-8.417l-.044-.109a8.308,8.308,0,0,1,.044-1.632,21.678,21.678,0,0,0-.577-5.511,4.781,4.781,0,0,1-.2-1.2c.033-.3.131-1.19.266-2.292a41.2,41.2,0,0,0,4.241-.365.529.529,0,0,0,.365-.146.51.51,0,0,0,.084-.3A14.156,14.156,0,0,0,810.619,576.309Zm-2.895,4.6c.15-1.04.31-2.048.471-2.8l.022.066a20.306,20.306,0,0,1,.693,2.3A7.819,7.819,0,0,1,807.725,580.911Z" transform="translate(-522.656 -415.119)" fill="url(#linear-gradient)"/>
      <path id="Path_279" data-name="Path 279" d="M802.37,648.185s.861,7.749,2.727,10.76a20.91,20.91,0,0,1,.573,2.438,46.085,46.085,0,0,0,1,6.884,37.98,37.98,0,0,1,1,5.884s2.008,2.292,2.727.431a30.234,30.234,0,0,1-.431-7.461,11.235,11.235,0,0,0-.573-4.161,7.782,7.782,0,0,1,0-2.723c.285-1.15-1.15-6.742-1.15-6.742l-1.146-5.6Z" transform="translate(-528.481 -470.643)" fill="#be6f72"/>
      <path id="Path_280" data-name="Path 280" d="M812.812,721.146s-.861,1.577-5.88,2.15c-2.606.3-2.624-.175-2.037-.7a9.094,9.094,0,0,1,1.606-1.022s1.865-1.288,2.15-2.15,1.292-.142,1.292-.142c1.434,2.15,1.723-.577,2.008-.288a6.477,6.477,0,0,1,.661,1.537C812.732,720.876,812.812,721.146,812.812,721.146Z" transform="translate(-529.886 -515.772)" fill="#ff6f61"/>
      <path id="Path_281" data-name="Path 281" d="M812.812,723.857s-.861,1.577-5.88,2.15c-2.606.3-2.624-.175-2.037-.7.409.259,1.234.365,2.895-.3,2.391-.978,4.124-1.544,4.822-1.763C812.732,723.587,812.812,723.857,812.812,723.857Z" transform="translate(-529.886 -518.483)" opacity="0.1"/>
      <path id="Path_282" data-name="Path 282" d="M816.482,667.121a11.235,11.235,0,0,0-.573-4.161,7.782,7.782,0,0,1,0-2.723c.285-1.15-1.15-6.742-1.15-6.742l-1.146-5.6-.993.058,1.135,5.537s1.434,5.592,1.15,6.742a7.782,7.782,0,0,0,0,2.723,10.906,10.906,0,0,1,.573,4.161,30.228,30.228,0,0,0,.431,7.461,1.255,1.255,0,0,1-.416.591.938.938,0,0,0,1.42-.591A30.228,30.228,0,0,1,816.482,667.121Z" transform="translate(-534.99 -470.643)" opacity="0.1"/>
      <path id="Path_283" data-name="Path 283" d="M803.169,562.42a5.111,5.111,0,0,0-2.708.77,4.873,4.873,0,0,0-5.475,2.61,5.942,5.942,0,0,0-1.858,4.438c0,3.051,2.055,5.523,4.588,5.523a4.633,4.633,0,0,0,4.157-3.179,5.041,5.041,0,0,0,1.292.168,5.165,5.165,0,1,0,0-10.33Z" transform="translate(-522.611 -416.364)" fill="#3f3d56"/>
      <path id="Path_284" data-name="Path 284" d="M822.22,650.65l.431,1.146s.431,7.6.285,8.322a13.557,13.557,0,0,0,.577,3.285,18.362,18.362,0,0,1,1,8.03l.142,4.015s.573,1.577.288,1.865-2.449-.256-2.449-.256a10.229,10.229,0,0,0-.73-4.876c-1.018-1.865-1.577-6.6-1.577-6.6s-1.435-2.869-1.435-4.015-2.3-10.472-2.3-10.472Z" transform="translate(-537.428 -472.389)" fill="#be6f72"/>
      <path id="Path_285" data-name="Path 285" d="M801.561,634.55s.146-5.165.73-6.742a10.7,10.7,0,0,0,.639-2.289s8.683,1.569,9.4,1a12.445,12.445,0,0,0,.288,2.15,20.627,20.627,0,0,1,.573,5.453c-.157,1.723,0,1.719,0,1.719s-5.884.861-6.026,0-.573-.858-.573-.858S801.276,634.82,801.561,634.55Z" transform="translate(-527.96 -456.432)" fill="#3f3d56"/>
      <g id="Group_18" data-name="Group 18" transform="translate(273.601 170.085)" opacity="0.1">
        <path id="Path_286" data-name="Path 286" d="M806.314,649.746s-3.628-.1-4.723-.3v.3c-.285.285,5.022.431,5.022.431a.365.365,0,0,1,.2.08C806.617,649.746,806.314,649.746,806.314,649.746Z" transform="translate(-801.58 -641.712)"/>
        <path id="Path_287" data-name="Path 287" d="M822.287,630.4a12.453,12.453,0,0,1-.288-2.15.616.616,0,0,1-.245.088,7.252,7.252,0,0,0,.245,1.631,22.788,22.788,0,0,1,.573,5.453c-.157,1.723,0,1.719,0,1.719s-4.654.683-5.782.226a1.729,1.729,0,0,0,.044.2c.142.861,6.026,0,6.026,0s-.146,0,0-1.719A21.327,21.327,0,0,0,822.287,630.4Z" transform="translate(-811.238 -628.25)"/>
        <path id="Path_288" data-name="Path 288" d="M806.314,649.746s-3.628-.1-4.723-.3v.3c-.285.285,5.022.431,5.022.431a.365.365,0,0,1,.2.08C806.617,649.746,806.314,649.746,806.314,649.746Z" transform="translate(-801.58 -641.712)"/>
        <path id="Path_289" data-name="Path 289" d="M822.287,630.4a12.453,12.453,0,0,1-.288-2.15.616.616,0,0,1-.245.088,7.252,7.252,0,0,0,.245,1.631,22.788,22.788,0,0,1,.573,5.453c-.157,1.723,0,1.719,0,1.719s-4.654.683-5.782.226a1.729,1.729,0,0,0,.044.2c.142.861,6.026,0,6.026,0s-.146,0,0-1.719A21.327,21.327,0,0,0,822.287,630.4Z" transform="translate(-811.238 -628.25)"/>
      </g>
      <path id="Path_290" data-name="Path 290" d="M813.528,584.614a1.9,1.9,0,0,0,.548.708,1.227,1.227,0,0,0,.515.223c-.321.186-.672.325-.993.511a17.643,17.643,0,0,0-1.46,1.095,2.971,2.971,0,0,1-1.675.65,2.052,2.052,0,0,0,.234-2.04,1.907,1.907,0,0,1-.256-.708,1.272,1.272,0,0,1,.7-.949c.274-.186.555-.365.839-.544.223-.139.558-.431.84-.42s.314.259.365.515A4.047,4.047,0,0,0,813.528,584.614Z" transform="translate(-533.605 -429.52)" fill="#be6f72"/>
      <path id="Path_291" data-name="Path 291" d="M813.528,584.614a1.9,1.9,0,0,0,.548.708,1.227,1.227,0,0,0,.515.223c-.321.186-.672.325-.993.511a17.643,17.643,0,0,0-1.46,1.095,2.971,2.971,0,0,1-1.675.65,2.052,2.052,0,0,0,.234-2.04,1.907,1.907,0,0,1-.256-.708,1.272,1.272,0,0,1,.7-.949c.274-.186.555-.365.839-.544.223-.139.558-.431.84-.42s.314.259.365.515A4.047,4.047,0,0,0,813.528,584.614Z" transform="translate(-533.605 -429.52)" opacity="0.1"/>
      <circle id="Ellipse_55" data-name="Ellipse 55" cx="3.3" cy="3.3" r="3.3" transform="translate(279.985 156.959)" fill="#be6f72"/>
      <path id="Path_292" data-name="Path 292" d="M833.722,723.7c0,.288-.573,1-.573,1a7.1,7.1,0,0,1-3.442-.431c-.288-.142.142-1,.142-1l.033-.069a3.486,3.486,0,0,1,.544-.934,4.083,4.083,0,0,0,.456-1.46c.891-1.46,2.471.631,2.471.631s.2,1.1.307,1.759A5.019,5.019,0,0,1,833.722,723.7Z" transform="translate(-545.777 -516.611)" fill="#ff6f61"/>
      <path id="Path_293" data-name="Path 293" d="M833.722,728.751c0,.288-.573,1-.573,1a7.1,7.1,0,0,1-3.442-.431c-.288-.142.142-1,.142-1l.033-.069a6.935,6.935,0,0,0,3.125.642l.653-.653C833.7,728.484,833.722,728.678,833.722,728.751Z" transform="translate(-545.777 -521.658)" opacity="0.1"/>
      <circle id="Ellipse_56" data-name="Ellipse 56" cx="3.227" cy="3.227" r="3.227" transform="translate(273.458 150.144)" fill="#be6f72"/>
      <path id="Path_294" data-name="Path 294" d="M801.082,598.638a4.051,4.051,0,0,0-.9,2.719l-.11,1.427a7.2,7.2,0,0,0-.025,1.157c0,.237.058.478.08.73s.029.569.033.858v2.11a2.489,2.489,0,0,0,.234,1.266.861.861,0,0,0,1.1.394,1.248,1.248,0,0,0,.453-.7,10.9,10.9,0,0,0,.73-2.672c.029-.318.033-.635.062-.953s.084-.65.131-.971c.2-1.343.3-2.7.387-4.055.026-.4.387-1.982-.139-2.157-.255-.084-.785.179-1.029.266A2.9,2.9,0,0,0,801.082,598.638Z" transform="translate(-526.999 -438.814)" fill="#be6f72"/>
      <path id="Path_295" data-name="Path 295" d="M801.082,598.638a4.051,4.051,0,0,0-.9,2.719l-.11,1.427a7.2,7.2,0,0,0-.025,1.157c0,.237.058.478.08.73s.029.569.033.858v2.11a2.489,2.489,0,0,0,.234,1.266.861.861,0,0,0,1.1.394,1.248,1.248,0,0,0,.453-.7,10.9,10.9,0,0,0,.73-2.672c.029-.318.033-.635.062-.953s.084-.65.131-.971c.2-1.343.3-2.7.387-4.055.026-.4.387-1.982-.139-2.157-.255-.084-.785.179-1.029.266A2.9,2.9,0,0,0,801.082,598.638Z" transform="translate(-526.999 -438.814)" opacity="0.1"/>
      <path id="Path_296" data-name="Path 296" d="M810.587,588.16a17.692,17.692,0,0,1-3.873,2.3s-.851.971-1,1.2-.438,2.811-.73,3.387a2.742,2.742,0,0,0,0,3.154,5.468,5.468,0,0,1,.142,1.723c-.142.431-.664,2.008-.19,2.081s1.913,1.073,3.2.788,6.1,1.1,6.1,1.1.8-7.391,1.372-8.7l-1.292-.431s-3.584-2.15-1.435-5.449C812.883,589.31,810.868,588.879,810.587,588.16Z" transform="translate(-529.814 -432.708)" fill="#ff6f61"/>
      <path id="Path_297" data-name="Path 297" d="M796.68,610.213l2.964,2.1a.219.219,0,0,0,.259,0l.8-.6a.226.226,0,0,0,0-.343l-2.281-2.026a.219.219,0,0,0-.223-.044l-1.464.526a.223.223,0,0,0-.058.391Z" transform="translate(-524.81 -446.122)" fill="#3f3d56"/>
      <path id="Path_298" data-name="Path 298" d="M798.922,619.324a7.935,7.935,0,0,1-.31-2.238l-.044-1.011a2.92,2.92,0,0,1,.106-1.168,1.908,1.908,0,0,1,1.23-1.077,4.247,4.247,0,0,1,1.675-.121.43.43,0,0,1,.215.058.4.4,0,0,1,.117.2,1.321,1.321,0,0,1,.066,1.055,1.1,1.1,0,0,1-.336.347c-.4.285-.862.474-1.237.785a.449.449,0,0,0-.168.212.493.493,0,0,0,0,.23,3.674,3.674,0,0,0,.19.588.581.581,0,0,0,.164.248c.069.058.161.08.234.135.157.128.485.3.467.5a16.353,16.353,0,0,1-.664,2.27C800.3,621.744,799.134,619.941,798.922,619.324Z" transform="translate(-526.055 -448.911)" fill="#be6f72"/>
      <g id="Group_19" data-name="Group 19" transform="translate(277.397 162.266)" opacity="0.1">
        <path id="Path_299" data-name="Path 299" d="M812.06,628.19h-.08a2.457,2.457,0,0,0,.938,0h.091A3.283,3.283,0,0,0,812.06,628.19Z" transform="translate(-811.98 -620.372)"/>
        <path id="Path_300" data-name="Path 300" d="M830.379,606.83c-.515,1.157-1.274,7.424-1.409,8.669.5.131.836.226.836.226s.788-7.373,1.365-8.68Z" transform="translate(-822.768 -606.83)"/>
      </g>
      <path id="Path_301" data-name="Path 301" d="M817.935,594.764a1.1,1.1,0,0,0,.471.712,6.32,6.32,0,0,1,.836.847,6,6,0,0,1,.829,1.661,20.335,20.335,0,0,1,.69,2.27c-1.825.847-3.9.807-5.84,1.365a4.661,4.661,0,0,0-2.19,1.3,3.019,3.019,0,0,0-.807,2.376.312.312,0,0,0,.044.142.307.307,0,0,0,.255.1,2.19,2.19,0,0,0,1.34-.46,6.38,6.38,0,0,0,1.026-1.007,1.651,1.651,0,0,1,.73-.54,11.951,11.951,0,0,1,3.285-.321,41.417,41.417,0,0,0,4.895-.387.394.394,0,0,0,.438-.438,14.039,14.039,0,0,0-1.46-6.253q-.493-1.2-1.015-2.391a7.084,7.084,0,0,0-1.241-2.124,2.19,2.19,0,0,0-.73-.54,3.085,3.085,0,0,0-.978-.183,6.939,6.939,0,0,0-1.6-.029,3.415,3.415,0,0,0-.153.829,7.179,7.179,0,0,0,.883,2.8C817.694,594.626,817.851,594.633,817.935,594.764Z" transform="translate(-534.537 -434.403)" fill="#be6f72"/>
      <path id="Path_302" data-name="Path 302" d="M811.774,606.67a2.674,2.674,0,0,0-.365,1.394,1.876,1.876,0,0,0,.091.569,1.846,1.846,0,0,0,1.164,1.1" transform="translate(-534.221 -444.462)" fill="none" stroke="#000" stroke-miterlimit="10" stroke-width="1" opacity="0.1"/>
      <path id="Path_303" data-name="Path 303" d="M806.006,571.82a1.677,1.677,0,0,0-.529.084,3.5,3.5,0,0,0-2.92-1.234c-1.745,0-3.157.9-3.157,2.011s1.413,2.007,3.157,2.007a4.441,4.441,0,0,0,1.894-.4A1.719,1.719,0,1,0,806,571.82Z" transform="translate(-526.595 -421.602)" fill="#3f3d56"/>
      <path id="Path_304" data-name="Path 304" d="M806.136,577.231a1.716,1.716,0,0,1-1.548-.975,4.442,4.442,0,0,1-1.894.4c-1.741,0-3.154-.9-3.154-2.008a1.211,1.211,0,0,1,0-.2,1.361,1.361,0,0,0-.161.631c0,1.095,1.413,2.008,3.157,2.008a4.442,4.442,0,0,0,1.894-.4,1.719,1.719,0,0,0,3.238-.427,1.712,1.712,0,0,1-1.533.971Z" transform="translate(-526.582 -424.003)" opacity="0.1"/>
      <path id="Path_305" data-name="Path 305" d="M794.964,566.647a4.873,4.873,0,0,1,5.475-2.61A5.161,5.161,0,0,1,808.294,568v-.431a5.161,5.161,0,0,0-7.873-4.38,4.873,4.873,0,0,0-5.475,2.61,5.943,5.943,0,0,0-1.858,4.438v.431A5.84,5.84,0,0,1,794.964,566.647Z" transform="translate(-522.586 -416.364)" opacity="0.1"/>
      <path id="Path_306" data-name="Path 306" d="M881.264,509.392c.953-1.763-.128-3.927-1.372-5.5s-2.756-3.208-2.723-5.216c.044-2.88,3.1-4.581,5.548-6.11a26.977,26.977,0,0,0,4.979-4.015,7.276,7.276,0,0,0,1.533-2.048,8.413,8.413,0,0,0,.46-3.65q-.161-6.169-.61-12.323" transform="translate(-575.977 -358.014)" fill="none" stroke="#3f3d56" stroke-miterlimit="10" stroke-width="4"/>
      <path id="Path_307" data-name="Path 307" d="M906.895,462.479a4.485,4.485,0,0,0-2.241-3.679l-1.007,1.989.029-2.409a4.41,4.41,0,0,0-1.478-.179,4.493,4.493,0,1,0,4.7,4.278Z" transform="translate(-589.15 -350.181)" fill="#6ca2c5"/>
      <path id="Path_308" data-name="Path 308" d="M885.8,541.868a4.493,4.493,0,1,1,.215-3.621l-2.807,2.285,3.088-.73A4.47,4.47,0,0,1,885.8,541.868Z" transform="translate(-576.069 -399.155)" fill="#6ca2c5"/>
      <path id="Path_309" data-name="Path 309" d="M886.3,513.727a4.493,4.493,0,0,1-1.427-8.815l-.022,1.851,1.018-2.011h0a4.494,4.494,0,1,1,.42,8.979Z" transform="translate(-578.784 -379.741)" fill="#6ca2c5"/>
      <path id="Path_310" data-name="Path 310" d="M916.155,493.846a4.493,4.493,0,1,1,1.989-8.4l-.8,2.19,1.635-1.57a4.467,4.467,0,0,1,1.46,3.1,4.335,4.335,0,0,1-.113,1.237A4.493,4.493,0,0,1,916.155,493.846Z" transform="translate(-597.735 -367.117)" fill="#6ca2c5"/>
      <path id="Path_311" data-name="Path 311" d="M906.284,467.959c-1.037.117-2.048.438-3.088.5a3.347,3.347,0,0,1-2.843-1,13.955,13.955,0,0,1-.829-1.46,3.231,3.231,0,0,0-1.132-1.066,4.493,4.493,0,1,0,8.4,2.982C906.62,467.929,906.452,467.94,906.284,467.959Z" transform="translate(-589.142 -354.464)" opacity="0.1"/>
      <path id="Path_312" data-name="Path 312" d="M916.187,498.319a4.5,4.5,0,0,1-4.274-6.41,3.325,3.325,0,0,1,.905.9,14.4,14.4,0,0,0,.89,1.486,3.656,3.656,0,0,0,2.979,1.044c1.084-.051,2.132-.365,3.212-.456.15,0,.3-.026.453-.029A4.493,4.493,0,0,1,916.187,498.319Z" transform="translate(-597.768 -371.59)" opacity="0.1"/>
      <path id="Path_313" data-name="Path 313" d="M886.3,518.333A4.49,4.49,0,0,1,881.987,512a3.706,3.706,0,0,1,.949.912c.365.493.566,1.062.975,1.515a4.159,4.159,0,0,0,3.183,1.117c1.15-.026,2.19-.3,3.285-.383A4.493,4.493,0,0,1,886.3,518.333Z" transform="translate(-578.784 -384.347)" opacity="0.1"/>
      <path id="Path_314" data-name="Path 314" d="M885.846,546.91a4.5,4.5,0,0,1-8.194-3.65,4.406,4.406,0,0,1,.985.88c.431.522.712,1.1,1.2,1.6a5.644,5.644,0,0,0,3.723,1.307,19.68,19.68,0,0,0,2.281-.135Z" transform="translate(-576.113 -404.197)" opacity="0.1"/>
      <path id="Path_315" data-name="Path 315" d="M1040.265,661.392c.953-1.763-.128-3.927-1.373-5.5s-2.756-3.208-2.723-5.216c.044-2.88,3.1-4.581,5.548-6.11a26.981,26.981,0,0,0,4.979-4.015,7.278,7.278,0,0,0,1.533-2.048,8.413,8.413,0,0,0,.46-3.65q-.157-6.169-.609-12.323" transform="translate(-676.942 -454.533)" fill="none" stroke="#3f3d56" stroke-miterlimit="10" stroke-width="4"/>
      <path id="Path_316" data-name="Path 316" d="M1065.927,614.48a4.486,4.486,0,0,0-2.241-3.679l-1.007,1.989.029-2.409a4.4,4.4,0,0,0-1.46-.179,4.493,4.493,0,1,0,4.7,4.278Z" transform="translate(-690.146 -446.702)" fill="#6ca2c5"/>
      <path id="Path_317" data-name="Path 317" d="M1044.8,693.869a4.493,4.493,0,1,1,.215-3.621l-2.807,2.285,3.088-.73A4.465,4.465,0,0,1,1044.8,693.869Z" transform="translate(-677.033 -495.675)" fill="#6ca2c5"/>
      <path id="Path_318" data-name="Path 318" d="M1045.3,665.727a4.493,4.493,0,0,1-1.427-8.815l-.022,1.851,1.018-2.011h0a4.494,4.494,0,1,1,.42,8.979Z" transform="translate(-679.747 -476.261)" fill="#6ca2c5"/>
      <path id="Path_319" data-name="Path 319" d="M1075.155,645.846a4.493,4.493,0,1,1,1.989-8.4l-.8,2.19,1.635-1.57a4.468,4.468,0,0,1,1.46,3.1,4.346,4.346,0,0,1-.113,1.237A4.493,4.493,0,0,1,1075.155,645.846Z" transform="translate(-698.7 -463.636)" fill="#6ca2c5"/>
      <path id="Path_320" data-name="Path 320" d="M1065.284,619.959c-1.036.117-2.048.438-3.088.5a3.348,3.348,0,0,1-2.843-1,13.948,13.948,0,0,1-.828-1.46,3.229,3.229,0,0,0-1.132-1.066,4.493,4.493,0,1,0,8.4,2.982C1065.62,619.929,1065.452,619.94,1065.284,619.959Z" transform="translate(-690.106 -450.984)" opacity="0.1"/>
      <path id="Path_321" data-name="Path 321" d="M1075.187,650.319a4.5,4.5,0,0,1-4.274-6.409,3.323,3.323,0,0,1,.905.9,14.358,14.358,0,0,0,.891,1.486,3.655,3.655,0,0,0,2.978,1.044c1.084-.051,2.131-.365,3.212-.456.15,0,.3-.026.453-.029A4.493,4.493,0,0,1,1075.187,650.319Z" transform="translate(-698.732 -468.109)" opacity="0.1"/>
      <path id="Path_322" data-name="Path 322" d="M1045.3,670.333a4.49,4.49,0,0,1-4.311-6.333,3.7,3.7,0,0,1,.949.913c.365.493.566,1.062.975,1.515a4.159,4.159,0,0,0,3.183,1.117c1.15-.026,2.19-.3,3.285-.383A4.493,4.493,0,0,1,1045.3,670.333Z" transform="translate(-679.749 -480.866)" opacity="0.1"/>
      <path id="Path_323" data-name="Path 323" d="M1044.846,698.91a4.5,4.5,0,0,1-8.194-3.65,4.4,4.4,0,0,1,.985.88c.431.522.73,1.1,1.2,1.6a5.644,5.644,0,0,0,3.723,1.307A19.69,19.69,0,0,0,1044.846,698.91Z" transform="translate(-677.077 -500.716)" opacity="0.1"/>
      <path id="Path_324" data-name="Path 324" d="M444.863,570.079a3.581,3.581,0,0,0-1.427-2.891,197.732,197.732,0,0,0-6.3-7.238h0a3.559,3.559,0,0,0-.518-.12H436a4.11,4.11,0,0,0-3.971,3.511c-1.281-.3-2.453.088-2.668.9a1.1,1.1,0,0,0,.036.65,2.824,2.824,0,0,0,1.883,1.526l.124.037.186.047h.04a3.226,3.226,0,0,0-.307,1.383,3.19,3.19,0,0,0,1.719,2.847l-.084.051a1.139,1.139,0,0,0-.277.387,5.794,5.794,0,0,0-.537,1.292c-.091.387-.106.788-.219,1.172-.212.7-.752,1.3-.814,2.033-.029.329.025.73-.208.942a1.14,1.14,0,0,1-.186.131,1.506,1.506,0,0,0-.405.427,1.416,1.416,0,0,1-.285.409c-.212.157-.558.142-.661.387s.164.533.1.8-.288.317-.453.467a1.625,1.625,0,0,0-.391.73,2.394,2.394,0,0,1-1.971-.5,3.684,3.684,0,0,1,.2.73,3.2,3.2,0,0,0-1.062-.533,3.354,3.354,0,0,1-1.132-.839l.606-.084-2.675-4.085-.792-.164.708,1.362a.434.434,0,0,0-.241.288,1.239,1.239,0,0,0-.025.464,8.292,8.292,0,0,0,.183,1.095l.2.956c.018.088.04.179.066.266a2.516,2.516,0,0,0-.792.088,6.893,6.893,0,0,0-1.646-.391.914.914,0,0,0-.365,0,.947.947,0,0,0-.347.281,11.238,11.238,0,0,0-1.223,1.723,60.141,60.141,0,0,1-5.161,6.953c-1.241.5-2.493.982-3.745,1.46l-2.694,1.029a4.084,4.084,0,0,1-1.672.365c-.255,0-.573-.055-.73.164a1.536,1.536,0,0,0-.164.365l-.277.029h0a3.191,3.191,0,0,0-.646-1.19.409.409,0,0,0-.3.234c-.066.121-.106.252-.183.365-.142.212-.394.314-.573.493s-.292.456-.489.639a1.934,1.934,0,0,1-.916.365,5.784,5.784,0,0,0-1.434.544,2.312,2.312,0,0,1-.529.245,1.991,1.991,0,0,1-.624.022l-1.423-.106a1.127,1.127,0,0,0-.383.018.73.73,0,0,0-.453.73,1.15,1.15,0,0,0,.453.785,2.9,2.9,0,0,0,.81.42,23.784,23.784,0,0,0,3.8,1.124v.288a6.478,6.478,0,0,0,2.92.693.453.453,0,0,0,.219-.04.482.482,0,0,0,.183-.285,11.747,11.747,0,0,0,.569-2.8h0a1.462,1.462,0,0,0,.515-.131c.489-.135.978.2,1.486.255a4.057,4.057,0,0,0,1.792-.518l.256-.084a2.8,2.8,0,0,1-.591.566c-.245.175-.518.307-.756.489a5.212,5.212,0,0,1-.642.5,4.03,4.03,0,0,1-.493.19,3.244,3.244,0,0,0-.7.365,1.427,1.427,0,0,0-.478.467.7.7,0,0,0-.04.657.694.694,0,0,0,.471.328,1.931,1.931,0,0,0,.58,0c.774-.058,1.544-.128,2.314-.2a6.169,6.169,0,0,0,.967-.139c.168-.04.336-.095.5-.142a4.5,4.5,0,0,1,.88-.131.73.73,0,0,1,.255.026c.179.058.307.241.489.277a.73.73,0,0,0,.365-.048,8.148,8.148,0,0,1,1.712-.182.707.707,0,0,0,.664-.3c.117-.234-.095-.609-.19-.92a2.814,2.814,0,0,1-.08-.606,3.793,3.793,0,0,0-.423-1.438,3.751,3.751,0,0,1-.318-.657,16.593,16.593,0,0,0,3.15-1.6,5.633,5.633,0,0,1,1.8-.865,4.885,4.885,0,0,1,2.256.263,51.334,51.334,0,0,1,5.172,1.8c.807.332,1.61.682,2.442.934a3.806,3.806,0,0,0,.869.843,4.016,4.016,0,0,0,1.88.515,24.66,24.66,0,0,0,2.646.1,4.464,4.464,0,0,0,1.971-.365,2.019,2.019,0,0,0,.412-.274,1.635,1.635,0,0,0,1.3-.478,3.15,3.15,0,0,0,.989-1.562c.215-.832.051-1.825.562-2.489.135-.182.314-.329.449-.511a1.438,1.438,0,0,0,.234-.843.173.173,0,0,1,.022-.033,3.09,3.09,0,0,0,.219-.839,4.794,4.794,0,0,1,.237-.664,20.513,20.513,0,0,0,.679-1.967,11.488,11.488,0,0,0,.314-1.351c.055-.365.088-.73.117-1.095a6.8,6.8,0,0,1,.332-1.69,13.754,13.754,0,0,0,.767-4.044v-.08a2.712,2.712,0,0,0,2.4-2.76,2.88,2.88,0,0,0-.252-1.179,3.65,3.65,0,0,0,.489-1.84ZM431.8,585.946c.04.142.088.281.135.42-.215-.208-.423-.423-.639-.635.084.029.172.055.252.088a1.35,1.35,0,0,1,.241.128Zm-1.033-.7c-1.263-1.095-2.723-1.945-4.015-3.008.7.347,1.391.752,2.07,1.139q1.208.69,2.449,1.325a2,2,0,0,1-.515.544Zm.537-2.759.062-.062v.434l-.339-.117a3.037,3.037,0,0,0,.266-.256ZM420.2,585.442a10.449,10.449,0,0,0,1.343-1.916,12.9,12.9,0,0,0,2,2.238C422.433,585.621,421.316,585.5,420.2,585.442Z" transform="translate(-270.39 -414.719)" fill="url(#linear-gradient-2)"/>
      <path id="Path_325" data-name="Path 325" d="M415.35,438.25l.8.161,2.712,4.011-1.194.161Z" transform="translate(-263.745 -278.155)" fill="#2f2e41"/>
      <path id="Path_326" data-name="Path 326" d="M414.49,645.391a15.6,15.6,0,0,0,.8,2.07,19.7,19.7,0,0,0,2.646-.756,8.354,8.354,0,0,0-.551-.73,2.723,2.723,0,0,0-.748-.573,2.06,2.06,0,0,0-.909,0C415.315,645.391,414.9,645.4,414.49,645.391Z" transform="translate(-282.179 -469.024)" fill="#fbbebe"/>
      <path id="Path_327" data-name="Path 327" d="M404.774,644.459a1.65,1.65,0,0,1-.905-1.029,3.312,3.312,0,0,0-.69-1.23.394.394,0,0,0-.307.23c-.066.117-.106.248-.179.365-.146.208-.4.31-.584.485s-.292.449-.489.628a1.941,1.941,0,0,1-.923.365,5.986,5.986,0,0,0-1.46.536,2.517,2.517,0,0,1-.537.241,2.13,2.13,0,0,1-.628,0l-1.438-.1a1.123,1.123,0,0,0-.365,0,.7.7,0,0,0-.456.73,1.1,1.1,0,0,0,.456.774,3.026,3.026,0,0,0,.818.416,24.04,24.04,0,0,0,3.854,1.1v.285a6.673,6.673,0,0,0,2.938.682.5.5,0,0,0,.219-.036.481.481,0,0,0,.182-.285,11.389,11.389,0,0,0,.6-3.124,2.49,2.49,0,0,0-.062-.807c-.08-.259.19-.15-.058-.252" transform="translate(-270.317 -467.023)" fill="#2f2e41"/>
      <path id="Path_328" data-name="Path 328" d="M446.681,631.561c-4.263.256-8.475-.993-12.746-1.124a6.219,6.219,0,0,0-1.584.1,7.983,7.983,0,0,0-1.57.609c-2.289,1.066-4.657,1.949-7.023,2.829l-2.719,1.011a4.116,4.116,0,0,1-1.683.365c-.259,0-.577-.055-.73.161a2.662,2.662,0,0,0,.058,2.354c.095.237.256.5.511.522a1.488,1.488,0,0,0,.518-.131c.493-.131.986.2,1.5.255a4.205,4.205,0,0,0,1.807-.511,15.679,15.679,0,0,1,3.1-.526,13.866,13.866,0,0,0,4.847-2.011,5.659,5.659,0,0,1,1.807-.854,5,5,0,0,1,2.274.259,52.155,52.155,0,0,1,5.216,1.774,24.307,24.307,0,0,0,2.723,1,9.855,9.855,0,0,0,6.107-.365c.683-.27,1.424-.73,1.46-1.482.026-.42-.3-.788-.518-1.15-.139-.23-.281-.46-.431-.683C448.868,632.9,447.977,631.484,446.681,631.561Z" transform="translate(-284.645 -459.545)" fill="#2f2e41"/>
      <path id="Path_329" data-name="Path 329" d="M446.681,631.561c-4.263.256-8.475-.993-12.746-1.124a6.219,6.219,0,0,0-1.584.1,7.983,7.983,0,0,0-1.57.609c-2.289,1.066-4.657,1.949-7.023,2.829l-2.719,1.011a4.116,4.116,0,0,1-1.683.365c-.259,0-.577-.055-.73.161a2.662,2.662,0,0,0,.058,2.354c.095.237.256.5.511.522a1.488,1.488,0,0,0,.518-.131c.493-.131.986.2,1.5.255a4.205,4.205,0,0,0,1.807-.511,15.679,15.679,0,0,1,3.1-.526,13.866,13.866,0,0,0,4.847-2.011,5.659,5.659,0,0,1,1.807-.854,5,5,0,0,1,2.274.259,52.155,52.155,0,0,1,5.216,1.774,24.307,24.307,0,0,0,2.723,1,9.855,9.855,0,0,0,6.107-.365c.683-.27,1.424-.73,1.46-1.482.026-.42-.3-.788-.518-1.15-.139-.23-.281-.46-.431-.683C448.868,632.9,447.977,631.484,446.681,631.561Z" transform="translate(-284.645 -459.545)" opacity="0.1"/>
      <path id="Path_330" data-name="Path 330" d="M436.92,642.912q1,.339,2.018.628c.365-.624,1.1-1.059,1.252-1.774a.168.168,0,0,0,0-.095.175.175,0,0,0-.077-.069,3.824,3.824,0,0,0-1.584-.464c-.438-.026-.639.431-.836.752C437.617,642.032,437.1,642.981,436.92,642.912Z" transform="translate(-296.422 -466.348)" fill="#fbbebe"/>
      <path id="Path_331" data-name="Path 331" d="M428.011,643.018a1.46,1.46,0,0,1-.982-.646c-.091-.164-.193-.387-.383-.365s-.252.219-.292.391a10.947,10.947,0,0,1-.551,1.894,3.555,3.555,0,0,1-1.179,1.551c-.248.171-.522.3-.767.482a5.262,5.262,0,0,1-.646.489,3.818,3.818,0,0,1-.5.182,3.442,3.442,0,0,0-.708.365,1.406,1.406,0,0,0-.485.464.668.668,0,0,0-.037.646.69.69,0,0,0,.471.321,1.988,1.988,0,0,0,.588,0c.777-.055,1.555-.124,2.332-.193a6.731,6.731,0,0,0,.975-.135l.507-.139a4.038,4.038,0,0,1,.887-.131.688.688,0,0,1,.259.026c.179.058.307.237.493.274a.825.825,0,0,0,.365-.047,8.066,8.066,0,0,1,1.727-.179.729.729,0,0,0,.672-.292c.146-.285-.095-.6-.193-.909a2.921,2.921,0,0,1-.08-.595,3.628,3.628,0,0,0-.427-1.416c-.2-.365-.467-.766-.329-1.153a1.1,1.1,0,0,0,.131-.4C429.807,642.876,428.369,643.1,428.011,643.018Z" transform="translate(-286.579 -466.9)" fill="#2f2e41"/>
      <path id="Path_332" data-name="Path 332" d="M472.171,608.279a3.329,3.329,0,0,1-1.7-1.686c-.069-.161-.128-.332-.2-.493a3.746,3.746,0,0,0-1.015-1.413.5.5,0,0,0-.365-.157.4.4,0,0,0-.274.3,1.128,1.128,0,0,0-.029.456,8.128,8.128,0,0,0,.182,1.066l.208.942a2.071,2.071,0,0,0,.128.42,1.457,1.457,0,0,0,.347.412c.19.175.383.343.577.511a1.985,1.985,0,0,0,.365.252,2.12,2.12,0,0,0,.646.19,5.5,5.5,0,0,1,2.424.934v-.7a.927.927,0,0,0-.183-.507,3.236,3.236,0,0,0-1.113-.522Z" transform="translate(-316.526 -443.103)" fill="#fbbebe"/>
      <path id="Path_333" data-name="Path 333" d="M472.171,608.279a3.329,3.329,0,0,1-1.7-1.686c-.069-.161-.128-.332-.2-.493a3.746,3.746,0,0,0-1.015-1.413.5.5,0,0,0-.365-.157.4.4,0,0,0-.274.3,1.128,1.128,0,0,0-.029.456,8.128,8.128,0,0,0,.182,1.066l.208.942a2.071,2.071,0,0,0,.128.42,1.457,1.457,0,0,0,.347.412c.19.175.383.343.577.511a1.985,1.985,0,0,0,.365.252,2.12,2.12,0,0,0,.646.19,5.5,5.5,0,0,1,2.424.934v-.7a.927.927,0,0,0-.183-.507,3.236,3.236,0,0,0-1.113-.522Z" transform="translate(-316.526 -443.103)" opacity="0.1"/>
      <ellipse id="Ellipse_57" data-name="Ellipse 57" cx="1.037" cy="1.044" rx="1.037" ry="1.044" transform="translate(163.289 155.882)" fill="#2f2e41"/>
      <path id="Path_334" data-name="Path 334" d="M487.962,590.426a1.121,1.121,0,0,0-.818.117,1.134,1.134,0,0,0-.281.383,5.567,5.567,0,0,0-.54,1.27c-.091.365-.106.777-.223,1.153-.212.694-.755,1.281-.818,2-.029.325.026.7-.212.923a1.341,1.341,0,0,1-.186.135,1.4,1.4,0,0,0-.409.42,1.378,1.378,0,0,1-.288.4c-.212.157-.562.142-.664.365s.164.526.1.788-.292.314-.456.46a1.6,1.6,0,0,0-.394.73,2.435,2.435,0,0,1-1.986-.493,6.322,6.322,0,0,1,.31,2.27.927.927,0,0,1-.183.7,12.639,12.639,0,0,1,2.435.423,1.68,1.68,0,0,0,1.062,0,1.774,1.774,0,0,0,.489-.387,3.118,3.118,0,0,0,1-1.548,9.1,9.1,0,0,0,.018-1.048,5.906,5.906,0,0,1,.266-1.274,15.158,15.158,0,0,0,.464-2.621c.047-.548.522-.986.77-1.46a7.148,7.148,0,0,0,.982-2.92C488.422,590.882,488.305,590.463,487.962,590.426Z" transform="translate(-324.279 -434.128)" fill="#2f2e41"/>
      <path id="Path_335" data-name="Path 335" d="M487.962,590.426a1.121,1.121,0,0,0-.818.117,1.134,1.134,0,0,0-.281.383,5.567,5.567,0,0,0-.54,1.27c-.091.365-.106.777-.223,1.153-.212.694-.755,1.281-.818,2-.029.325.026.7-.212.923a1.341,1.341,0,0,1-.186.135,1.4,1.4,0,0,0-.409.42,1.378,1.378,0,0,1-.288.4c-.212.157-.562.142-.664.365s.164.526.1.788-.292.314-.456.46a1.6,1.6,0,0,0-.394.73,2.435,2.435,0,0,1-1.986-.493,6.322,6.322,0,0,1,.31,2.27.927.927,0,0,1-.183.7,12.639,12.639,0,0,1,2.435.423,1.68,1.68,0,0,0,1.062,0,1.774,1.774,0,0,0,.489-.387,3.118,3.118,0,0,0,1-1.548,9.1,9.1,0,0,0,.018-1.048,5.906,5.906,0,0,1,.266-1.274,15.158,15.158,0,0,0,.464-2.621c.047-.548.522-.986.77-1.46a7.148,7.148,0,0,0,.982-2.92C488.422,590.882,488.305,590.463,487.962,590.426Z" transform="translate(-324.279 -434.128)" opacity="0.1"/>
      <path id="Path_336" data-name="Path 336" d="M460.744,620.724a9.622,9.622,0,0,1-2.256-1.883c-1.369-1.288-3.044-2.19-4.486-3.406a31.6,31.6,0,0,0-2.858-2.4,7.144,7.144,0,0,0-3.062-1.069.815.815,0,0,0-.365,0,.84.84,0,0,0-.347.274,11.03,11.03,0,0,0-1.237,1.7c-1.825,3.1-4.42,5.709-6.57,8.592a.548.548,0,0,0-.106.2.507.507,0,0,0,.08.318l.438.854c.245.482.639,1.04,1.164.945a1.274,1.274,0,0,0,.61-.391l1.964-1.88,2.059-1.967a15.788,15.788,0,0,0,3.219-3.8c.613,1.066,1.7,1.763,2.449,2.737.285.365.518.777.774,1.172.405.628.869,1.219,1.329,1.825l2.362,3.011a4.518,4.518,0,0,0,1.1,1.095,4.179,4.179,0,0,0,1.894.507,25.022,25.022,0,0,0,2.668.095,4.6,4.6,0,0,0,1.989-.365,1.8,1.8,0,0,0,1.077-1.6,2.351,2.351,0,0,0-.339-1A8.134,8.134,0,0,0,460.744,620.724Z" transform="translate(-298.032 -447.811)" fill="#2f2e41"/>
      <ellipse id="Ellipse_58" data-name="Ellipse 58" cx="0.799" cy="0.803" rx="0.799" ry="0.803" transform="translate(164.165 156.846)" fill="#e8e8f0"/>
      <path id="Path_337" data-name="Path 337" d="M501.565,588.167a1.537,1.537,0,0,1,.088,1.153,4.674,4.674,0,0,1-.515,1.062,5.055,5.055,0,0,1-.668.949,6.876,6.876,0,0,0,3.511-1.007,5.1,5.1,0,0,0,2.216-1.931,1.022,1.022,0,0,1-.818-.153,2.919,2.919,0,0,1-.624-.58l-.617-.694a2.777,2.777,0,0,1-.365-.5,1.379,1.379,0,0,1-.164-.807,4.7,4.7,0,0,1-.818.679c-.442.288-.927.5-1.372.781-.153.1-.5.263-.412.467S501.441,587.948,501.565,588.167Z" transform="translate(-336.776 -431.121)" fill="#fbbebe"/>
      <path id="Path_338" data-name="Path 338" d="M501.565,588.167a1.537,1.537,0,0,1,.088,1.153,4.674,4.674,0,0,1-.515,1.062,5.055,5.055,0,0,1-.668.949,6.876,6.876,0,0,0,3.511-1.007,5.1,5.1,0,0,0,2.216-1.931,1.022,1.022,0,0,1-.818-.153,2.919,2.919,0,0,1-.624-.58l-.617-.694a2.777,2.777,0,0,1-.365-.5,1.379,1.379,0,0,1-.164-.807,4.7,4.7,0,0,1-.818.679c-.442.288-.927.5-1.372.781-.153.1-.5.263-.412.467S501.441,587.948,501.565,588.167Z" transform="translate(-336.776 -431.121)" opacity="0.1"/>
      <path id="Path_339" data-name="Path 339" d="M495.058,592.635a1.04,1.04,0,0,0,0,1.2c.037.044.168.318.223.321a.2.2,0,0,0,.139-.073,9.168,9.168,0,0,0,.781-.931,1.738,1.738,0,0,1,.993-.65,2.146,2.146,0,0,1,1.369.427,1.3,1.3,0,0,1,.471.365,1.275,1.275,0,0,1,.153.522,25.14,25.14,0,0,1,.139,3.318,13.072,13.072,0,0,1-.157,2.391c-.08.405-.2.8-.252,1.215a7.764,7.764,0,0,0-.051,1.1v1.526a4.015,4.015,0,0,0,.058.836c.073.332.23.642.336.967a6.326,6.326,0,0,1,.223,1.143l.208,1.577a1.994,1.994,0,0,1-.186,1.46c-.135.179-.314.325-.453.5-.515.672-.365,1.632-.566,2.453a3.059,3.059,0,0,1-1,1.533,1.653,1.653,0,0,1-1.318.471,1.805,1.805,0,0,1-1.2-1.42,5.677,5.677,0,0,0-.617-1.851,4.908,4.908,0,0,0-1.219-1.018,2.106,2.106,0,0,1-.953-1.237c-.04-.23,0-.467-.04-.7a1.653,1.653,0,0,0-1.018-1.34c-.329-.128-.73-.175-.92-.474a2.215,2.215,0,0,0,.96-1.288,6.617,6.617,0,0,0,.234-1.628l.109-1.825a6.1,6.1,0,0,1,.434-2.369c.161-.328.365-.639.529-.964a10.461,10.461,0,0,0,.566-1.413c.263-.752.526-1.5.759-2.263a4.267,4.267,0,0,1,.416-1.055C494.4,593.12,494.689,592.708,495.058,592.635Z" transform="translate(-330.255 -435.468)" fill="#e8e8f0"/>
      <path id="Path_340" data-name="Path 340" d="M492.269,603.973h.485l.1-.73a1.52,1.52,0,0,1,.1-.427,2.554,2.554,0,0,1,.281-.409,5.338,5.338,0,0,0,.559-2.391,12.162,12.162,0,0,1,1.066-3.124l.942-2.1a2.893,2.893,0,0,0,.2-.537,3.217,3.217,0,0,0,.058-.62c0-.325.1-1.507.113-1.825,0-.12-.266-.055-.321-.161-.117-.234-.277.4-.5.536a1.227,1.227,0,0,0-.434.635c-.2.526-.328,1.1-.518,1.617a3.3,3.3,0,0,1-.88,1.431c-.193.168-.416.3-.6.486a3.276,3.276,0,0,0-.661,2.318C492.255,599.177,492.16,603.973,492.269,603.973Z" transform="translate(-331.536 -434.892)" fill="#2f2e41"/>
      <path id="Path_341" data-name="Path 341" d="M503.8,590.384a1.657,1.657,0,0,0-.865,1.186,6,6,0,0,1-.438,1.46c-.591,1.029-2.1,1.329-2.518,2.442a4.49,4.49,0,0,0-.168,1.15c-.073.8-.336,1.57-.416,2.365a10.546,10.546,0,0,0,.044,1.858l.529,6.285a8.393,8.393,0,0,1-.157,2.767,2.665,2.665,0,0,0,1.584-.263c.493-.226.945-.537,1.424-.8a14.671,14.671,0,0,0,2.442-1.372,1.492,1.492,0,0,0,.328-.365,3.15,3.15,0,0,0,.219-.825,4.458,4.458,0,0,1,.237-.65,19.148,19.148,0,0,0,.686-1.942,11.159,11.159,0,0,0,.314-1.329c.058-.365.091-.73.12-1.1a6.42,6.42,0,0,1,.336-1.661,13.378,13.378,0,0,0,.77-3.986,2.085,2.085,0,0,0-.04-.584,3.124,3.124,0,0,0-.321-.668c-.219-.412-.365-.865-.555-1.285a6.318,6.318,0,0,0-2.157-2.267A1.643,1.643,0,0,0,503.8,590.384Z" transform="translate(-336.077 -434.089)" fill="#2f2e41"/>
      <path id="Path_342" data-name="Path 342" d="M471.348,614.883a3.806,3.806,0,0,1-1-.763c-.131-.153-.241-.325-.365-.478a2.486,2.486,0,0,0-1.263-.73,6.168,6.168,0,0,0-1.46-.142,2.651,2.651,0,0,0-.975.117.993.993,0,0,0-.646.694,1.15,1.15,0,0,0,.493,1.022,2.322,2.322,0,0,0,.982.475,7.858,7.858,0,0,0,.887.106,12.915,12.915,0,0,1,4.833,2q2.015,1.146,4.11,2.132a8.536,8.536,0,0,0,.069-1.259c0-.314-.026-.8-.321-.982a6.45,6.45,0,0,0-1.307-.391,20.548,20.548,0,0,1-2.632-1.066A13.069,13.069,0,0,1,471.348,614.883Z" transform="translate(-314.655 -448.332)" fill="#fbbebe"/>
      <ellipse id="Ellipse_59" data-name="Ellipse 59" cx="3.11" cy="3.128" rx="3.11" ry="3.128" transform="translate(161.216 150.433)" fill="#fbbebe"/>
      <path id="Path_343" data-name="Path 343" d="M500.591,599.49a4.984,4.984,0,0,0-.6,1.128c-.365.788-.985,1.46-1.288,2.3s-.307,1.909-.931,2.591a.909.909,0,0,0-.274.394,1.877,1.877,0,0,1-.029.285c-.091.248-.5.259-.573.515-.022.073,0,.153-.036.226-.062.164-.281.19-.423.288-.3.2-.241.679-.456.975a.821.821,0,0,1-.777.274,2.737,2.737,0,0,1-.807-.3.779.779,0,0,0-.292-.091.6.6,0,0,0-.336.117,2.07,2.07,0,0,0-.839,1.77,5.784,5.784,0,0,0,.482,1.982.8.8,0,0,0,.157.3.7.7,0,0,0,.774.058,3.653,3.653,0,0,1,.756-.34c.482-.088.953.245,1.442.215a2,2,0,0,0,.971-.427,5.368,5.368,0,0,0,1.307-1.095c.212-.281.365-.6.555-.9a11.5,11.5,0,0,1,.785-1.047l1.8-2.19a5.056,5.056,0,0,0,.482-.664,4.682,4.682,0,0,0,.365-1,7.688,7.688,0,0,0,.365-1.785,6.86,6.86,0,0,0-.131-1.5,5.288,5.288,0,0,0-.365-1.427C502.273,599.308,501.324,598.636,500.591,599.49Z" transform="translate(-331.984 -439.651)" fill="#2f2e41"/>
      <path id="Path_344" data-name="Path 344" d="M503.811,571.344a3.5,3.5,0,0,0-1.438-2.847,4.165,4.165,0,0,0-3.537-4.055,4.041,4.041,0,0,0-7.961.215c-1.292-.292-2.475.088-2.69.883s.7,1.825,2.059,2.19a3.833,3.833,0,0,0,1.321.131,4.044,4.044,0,0,0,2.781,1.734,4.15,4.15,0,0,0,3.037,3.132,3.486,3.486,0,0,0,.938,1.3v.3a2.632,2.632,0,1,0,5.263,0,2.809,2.809,0,0,0-.252-1.164A3.518,3.518,0,0,0,503.811,571.344Z" transform="translate(-328.955 -415.586)" fill="#f86d70"/>
      <path id="Path_345" data-name="Path 345" d="M489.055,565.705c.215-.8,1.4-1.175,2.69-.883a4.11,4.11,0,0,1,4.015-3.46h.266a3.953,3.953,0,0,0-1.146-.172,4.11,4.11,0,0,0-4.015,3.46c-1.292-.292-2.475.088-2.69.883s.7,1.825,2.059,2.19a4.026,4.026,0,0,0,.781.135C489.712,567.468,488.84,566.519,489.055,565.705Z" transform="translate(-328.949 -415.583)" opacity="0.1"/>
      <path id="Path_346" data-name="Path 346" d="M505.257,586.313a2.783,2.783,0,0,1,0-.3,3.41,3.41,0,0,1-.938-1.3,4.139,4.139,0,0,1-3.037-3.135,4.033,4.033,0,0,1-2.785-1.73,3.5,3.5,0,0,1-.777-.022,4.055,4.055,0,0,0,2.683,1.6,4.15,4.15,0,0,0,3.037,3.132,3.486,3.486,0,0,0,.938,1.3v.3a2.679,2.679,0,0,0,2.617,2.723A2.723,2.723,0,0,1,505.257,586.313Z" transform="translate(-335.03 -427.419)" opacity="0.1"/>
      <ellipse id="Ellipse_60" data-name="Ellipse 60" cx="0.478" cy="0.639" rx="0.478" ry="0.639" transform="translate(164.599 153.981) rotate(-37.22)" fill="#fbbebe"/>
    </g>
  </g>
</svg>
