<svg xmlns="http://www.w3.org/2000/svg" width="388.086" height="305.529" viewBox="0 0 388.086 305.529">
  <g id="Group_35" data-name="Group 35" transform="translate(-1230.25 -2974.679)">
    <g id="photo-svg-1" transform="translate(1230.25 2974.679)">
      <rect id="Rectangle_16" data-name="Rectangle 16" width="352.167" height="225.543" transform="translate(0.15 0.2)" fill="#e6e6e6"/>
      <rect id="Rectangle_17" data-name="Rectangle 17" width="332.026" height="183.911" transform="translate(10.22 28.488)" fill="#fff"/>
      <rect id="Rectangle_18" data-name="Rectangle 18" width="352.167" height="14.961" fill="#6ca2c5"/>
      <circle id="Ellipse_17" data-name="Ellipse 17" cx="2.773" cy="2.773" r="2.773" transform="translate(8.345 4.876)" fill="#fff"/>
      <circle id="Ellipse_18" data-name="Ellipse 18" cx="2.773" cy="2.773" r="2.773" transform="translate(18.871 4.876)" fill="#fff"/>
      <circle id="Ellipse_19" data-name="Ellipse 19" cx="2.773" cy="2.773" r="2.773" transform="translate(29.396 4.876)" fill="#fff"/>
      <rect id="Rectangle_19" data-name="Rectangle 19" width="85.315" height="145.747" transform="translate(40.39 47.57)" fill="#e6e6e6"/>
      <rect id="Rectangle_20" data-name="Rectangle 20" width="71.096" height="40.118" transform="translate(140.432 47.57)" fill="#6ca2c5"/>
      <g id="Group_20" data-name="Group 20" transform="translate(140.432 98.861)">
        <rect id="Rectangle_21" data-name="Rectangle 21" width="71.096" height="43.165" fill="#e6e6e6"/>
      </g>
      <rect id="Rectangle_22" data-name="Rectangle 22" width="71.096" height="40.118" transform="translate(140.432 153.199)" fill="#e6e6e6"/>
      <rect id="Rectangle_23" data-name="Rectangle 23" width="85.315" height="63.516" transform="translate(226.763 47.57)" fill="#e6e6e6"/>
      <rect id="Rectangle_24" data-name="Rectangle 24" width="85.315" height="63.516" transform="translate(226.763 129.802)" fill="#e6e6e6"/>
      <path id="Path_90" data-name="Path 90" d="M755.712,355.64V341.966a18.323,18.323,0,0,1,36.646,0V355.64A2.464,2.464,0,0,1,789.9,358.1H758.174A2.464,2.464,0,0,1,755.712,355.64Z" transform="translate(-476.501 -239.991)" fill="#2f2e41"/>
      <path id="Path_91" data-name="Path 91" d="M579.9,516.139l-6.463,1.789-9.974-24.076,9.538-2.64Z" transform="translate(-255.271 -222.539)" fill="#ffb8b8"/>
      <path id="Path_92" data-name="Path 92" d="M8.143,0H21.075V8.143H0A8.142,8.142,0,0,1,8.143,0Z" transform="translate(305.192 296.989) rotate(-15.47)" fill="#2f2e41"/>
      <path id="Path_93" data-name="Path 93" d="M462.131,524.452h-6.706l-3.19-25.865h9.9Z" transform="translate(-204.88 -225.88)" fill="#ffb8b8"/>
      <path id="Path_94" data-name="Path 94" d="M442.566,542.372H455.5v8.143H434.424a8.142,8.142,0,0,1,8.142-8.143Z" transform="translate(-196.811 -245.716)" fill="#2f2e41"/>
      <path id="Path_95" data-name="Path 95" d="M699.861,444.97a5.5,5.5,0,0,0,8.419.5L726.1,453.49l-1.621-10.027L707.8,437.387a5.53,5.53,0,0,0-7.944,7.584Z" transform="translate(-450.696 -290.948)" fill="#ffb8b8"/>
      <path id="Path_96" data-name="Path 96" d="M745.325,503.509c-5.6,0-11.4-.834-16.271-3.315a21.012,21.012,0,0,1-10.78-12.889c-2.539-8.04.662-15.938,3.758-23.577,1.918-4.733,3.731-9.2,4.2-13.61l.164-1.565c.732-7.027,1.365-13.1,4.866-15.372,1.815-1.18,4.255-1.247,7.461-.206l30.107,9.78-1.107,57.152-.183.061A79.963,79.963,0,0,1,745.325,503.509Z" transform="translate(-459.123 -289.19)" fill="#2f2e41"/>
      <path id="Path_97" data-name="Path 97" d="M747.977,398.481s14.768-4.376,26.254-2.735c0,0-6.564,36.1-4.376,48.132s-38.014,4.649-29.809-6.837l2.735-13.674s-5.47-5.47-.547-12.033Z" transform="translate(-468.902 -272.49)" fill="#6ca2c5"/>
      <path id="Path_98" data-name="Path 98" d="M727.106,486.65l-18.2-3.413,6.354-48.9c.427-1.365,10.271-32.349,14.741-34.025a76.313,76.313,0,0,1,9.936-2.76l.647-.13-3.65,5.474-14.53,34.816Z" transform="translate(-455.296 -273.415)" fill="#2f2e41"/>
      <path id="Path_99" data-name="Path 99" d="M705.365,596.7l-23.516-3.919,13.2-53.889,19.638-73.7.194,1.309c.015.1,1.85,9.725,29.071,5.453l.239-.037.066.233,32.9,116.25-26.8,4.466-24.44-84.815Z" transform="translate(-443.038 -304.12)" fill="#2f2e41"/>
      <path id="Path_100" data-name="Path 100" d="M784.436,494.363l.015-.414c.016-.459,1.634-46.148,1.094-64.523a101.356,101.356,0,0,1,5.487-34.563l.049-.128.132-.038c7.723-2.206,14.423,4.379,14.49,4.445l.094.094-2.2,18.146,9.417,65.986Z" transform="translate(-489.514 -271.976)" fill="#2f2e41"/>
      <circle id="Ellipse_20" data-name="Ellipse 20" cx="13.434" cy="13.434" r="13.434" transform="translate(280.335 90.924)" fill="#ffb8b8"/>
      <path id="Path_101" data-name="Path 101" d="M747.787,347.138a14.511,14.511,0,0,1,14.494-14.494h2.735a14.511,14.511,0,0,1,14.494,14.494v.273h-5.78l-1.971-5.52-.394,5.52h-2.987l-.995-2.785-.2,2.785h-19.4Z" transform="translate(-472.91 -244.068)" fill="#2f2e41"/>
      <path id="Path_102" data-name="Path 102" d="M779.518,368.743a2.425,2.425,0,0,1-.193-2.575c2.9-5.512,6.956-15.7,1.57-21.979l-.387-.451h15.636v23.475l-14.2,2.506a2.514,2.514,0,0,1-.436.038,2.452,2.452,0,0,1-1.986-1.015Z" transform="translate(-487.071 -249.095)" fill="#2f2e41"/>
      <path id="Path_103" data-name="Path 103" d="M564.2,197.829a73.85,73.85,0,1,0,4.187,109.065l90.586,76.436a6.805,6.805,0,1,0,8.787-10.394l-.01-.008L577.16,296.492A73.855,73.855,0,0,0,564.2,197.829Zm-5.84,91.3a55.329,55.329,0,1,1-6.605-77.968h0A55.329,55.329,0,0,1,558.356,289.132Z" transform="translate(-334.703 -175.105)" fill="#3f3d56"/>
      <path id="Path_104" data-name="Path 104" d="M490.467,329.645a55.332,55.332,0,0,1-9.389-74.381q-1.587,1.6-3.068,3.347a55.329,55.329,0,1,0,84.573,71.363q1.478-1.751,2.783-3.587A55.332,55.332,0,0,1,490.467,329.645Z" transform="translate(-344.781 -209.013)" opacity="0.3" style="isolation: isolate"/>
      <path id="Path_105" data-name="Path 105" d="M786.692,481.243a5.5,5.5,0,0,0,6.8-5l18.833-5.228-7.656-6.675-16.711,5.987a5.53,5.53,0,0,0-1.262,10.91Z" transform="translate(-488.61 -303.735)" fill="#ffb8b8"/>
      <path id="Path_106" data-name="Path 106" d="M803.576,450.657l-1.146-10.888,15.732-8.68-10.257-12.416,1.674-13.947,4.168-1.786.13.167c1.965,2.527,19.2,24.767,19.2,27.516,0,2.824-3.3,11.116-7.809,13.372-4.352,2.176-20.692,6.4-21.385,6.584Z" transform="translate(-497.666 -275.916)" fill="#2f2e41"/>
      <path id="Path_107" data-name="Path 107" d="M780.705,728.391H572.313a.547.547,0,1,1,0-1.094H780.705a.547.547,0,1,1,0,1.094Z" transform="translate(-393.166 -422.862)" fill="#ccc"/>
    </g>
  </g>
</svg>
