<svg xmlns="http://www.w3.org/2000/svg" width="315.25" height="237.288" viewBox="0 0 315.25 237.288">
  <g id="Group_11" data-name="Group 11" transform="translate(-803.125 -1124.341)">
    <g id="undraw_publish_post_vowb" transform="translate(803.125 1125.841)">
      <ellipse id="Ellipse_22" data-name="Ellipse 22" cx="26.664" cy="2.034" rx="26.664" ry="2.034" transform="translate(0 227.442)"/>
      <ellipse id="Ellipse_23" data-name="Ellipse 23" cx="26.664" cy="2.034" rx="26.664" ry="2.034" transform="translate(58.226 231.251)"/>
      <path id="Path_76" data-name="Path 76" d="M720.8,145.142H586.256a2.983,2.983,0,0,0-2.959,3V376.431a2.98,2.98,0,0,0,2.959,3H720.8a2.965,2.965,0,0,0,2.92-2.531,2.612,2.612,0,0,0,.039-.468V148.141a2.983,2.983,0,0,0-2.959-3Zm1.776,231.289a1.788,1.788,0,0,1-1.775,1.8H586.256a1.788,1.788,0,0,1-1.776-1.8V148.141a1.79,1.79,0,0,1,1.776-1.8H720.8a1.79,1.79,0,0,1,1.776,1.8Z" transform="translate(-430.695 -145.142)" stroke="#000" stroke-width="3"/>
      <path id="Path_77" data-name="Path 77" d="M617.11,188.772a1.185,1.185,0,0,0-1.184,1.184v48.927a1.185,1.185,0,0,0,1.184,1.184H730.352a1.185,1.185,0,0,0,1.184-1.184V189.956a1.185,1.185,0,0,0-1.184-1.184Z" transform="translate(-450.896 -172.153)" stroke="#000" stroke-width="1"/>
      <path id="Path_78" data-name="Path 78" d="M493,289.272a1.144,1.144,0,0,0-1.143,1.143v47.233A1.144,1.144,0,0,0,493,338.791H602.324a1.144,1.144,0,0,0,1.143-1.143V290.415a1.144,1.144,0,0,0-1.143-1.143Z" transform="translate(-375.444 -233.449)" fill="#1687a7"/>
      <path id="Path_79" data-name="Path 79" d="M274.188,570.373c.144,3.538-2.116,6.673-4.232,9.492-.965,1.32-9.932,10.266-12.64,14.176-.656.948-16.757,19.533-17.583,21.256a8.167,8.167,0,0,0-.478,1.265,17.083,17.083,0,0,0-.461,5.188v1.232a38.515,38.515,0,0,0,.846,7.989c.093.381.2.766.254,1.151a3.691,3.691,0,0,1-.482-.377l-8.751-6.5-.546-.406c-.559-1.617-1.088-3.25-1.684-4.845a3.006,3.006,0,0,1,.652-2.823,15.962,15.962,0,0,1,2.234-2.04,13.13,13.13,0,0,0,1.65-2.1c6.039-8.789,23.046-40.328,24.285-46.675a14.518,14.518,0,0,1,4.951-.063l8.73,1.159a3.948,3.948,0,0,1,2.59,1.024A3.19,3.19,0,0,1,274.188,570.373Z" transform="translate(-214.095 -402.691)" fill="#efb7b9"/>
      <path id="Path_80" data-name="Path 80" d="M403.831,573.915a9.336,9.336,0,0,1-1.367,3.707c-.9,1.367-11.2,27.87-14.4,38.813a16.147,16.147,0,0,0-.343,4.625c-.051.559-.1,1.117-.14,1.672-.059.69-.106,1.379-.157,2.065a10.861,10.861,0,0,0,.52,5.374,16.179,16.179,0,0,1,.952,1.866,3.692,3.692,0,0,1-.821-.576l-8.751-6.5a40.172,40.172,0,0,1-1.646-6.208,4.323,4.323,0,0,1,.423-3.491,1.654,1.654,0,0,1,.14-.161,3.849,3.849,0,0,1,.813-.584,6.761,6.761,0,0,0,.779-.5,2.931,2.931,0,0,0,.5-.5,7.343,7.343,0,0,0,1.193-3.309c.846-4.8,8.015-34.243,7.879-34.97s-4.219-7.575-7.012-9.1a31.969,31.969,0,0,1,9.762-5.594,3.864,3.864,0,0,1,2.01-.343,3.331,3.331,0,0,1,1.041.423,17.974,17.974,0,0,1,4.79,4.46C402.088,567.64,404.182,570.636,403.831,573.915Z" transform="translate(-305.684 -399.023)" fill="#efb7b9"/>
      <path id="Path_81" data-name="Path 81" d="M348.214,485.121c-.271,2.559-7.461,4.824-16.554,6.233-2.348.364-8.118-13.848-10.633-13.608-3.025.289-2.814,15-5.805,15.079-10.184.269-16.765-.775-18.892-3.794-1.151-.279-2.539-.939-2.484-2.116.038-.673.571-1.27.567-1.93,0-1.151,3.339-13.753,5.307-19.732.491-1.485.846-3.009,1.4-4.477,2.4-6.618,3.423-11.7,7.8-17.206a10.293,10.293,0,0,0,1.633-2.577,11.236,11.236,0,0,0,.58-3.483l.241-4.143a73.2,73.2,0,0,1,19.136,1.189,1.3,1.3,0,0,1,1.337,1.26v.009q.368,2.272.516,4.566a3.769,3.769,0,0,0,.144,1,4.144,4.144,0,0,0,.686,1.13c3.673,4.816,5.924,10.579,7.7,16.351s3.191,11.7,5.425,17.35a24.49,24.49,0,0,1,1.98,6.221A1.866,1.866,0,0,1,348.214,485.121Z" transform="translate(-254.677 -321.542)" fill="#2f2e41"/>
      <path id="Path_82" data-name="Path 82" d="M435.86,353.219c1.117-.944,2.234-1.892,3.258-2.932a44.667,44.667,0,0,0,3.995-4.883,25.557,25.557,0,0,0,3.385-5.611c.91-2.336,1.189-4.993,2.772-6.931a1.586,1.586,0,0,1,.715-.559c.9-.284,1.574.846,1.748,1.781.846,4.579-1.172,9.149-3.136,13.372a12.151,12.151,0,0,1-2.446,3.876,22.928,22.928,0,0,1-1.925,1.477,20.158,20.158,0,0,0-2.725,2.683q-2.116,2.4-4.024,4.981a54.533,54.533,0,0,1-4.93,6.2,12.411,12.411,0,0,1-6.83,3.753c.749-.1.5-4.5.423-5.053a25.725,25.725,0,0,1-.681-2.539c-.021-.965.372-1.1,1.168-1.782Z" transform="translate(-335.161 -259.855)" fill="#efb7b9"/>
      <path id="Path_83" data-name="Path 83" d="M360.864,314.588s-2.539,12.7-5.5,14.811,16.08,4.655,16.08,4.655.423-10.156,5.5-14.811S360.864,314.588,360.864,314.588Z" transform="translate(-291.881 -249.112)" fill="#efb7b9"/>
      <path id="Path_84" data-name="Path 84" d="M370.608,386.942a5.67,5.67,0,0,0,1.942.254,15.234,15.234,0,0,0,6.415-1.494,1.18,1.18,0,0,0,.482-.347,1.3,1.3,0,0,0,.021-1.037c-1.193-4.824,1.109-10.3-1.176-14.7-2.484.808-5.209,1.693-7.693,2.48a2.813,2.813,0,0,1-1.2.2,2.539,2.539,0,0,1-1.295-.707c-2.691-2.327-4.388-5.569-5.924-8.772s-3.043-6.508-5.463-9.115-4.684-3.986-8.222-3.61a5.307,5.307,0,0,0-3.25,1.735c-2,2.15-2.4,5.421-1.693,8.273a24.074,24.074,0,0,0,3.99,7.786,37.349,37.349,0,0,0,7.566,8.565,57.034,57.034,0,0,0,5.1,3.3" transform="translate(-284.581 -270.758)" fill="#e6e6e6"/>
      <circle id="Ellipse_24" data-name="Ellipse 24" cx="12.695" cy="12.695" r="12.695" transform="translate(66.273 49.398)" fill="#efb7b9"/>
      <path id="Path_85" data-name="Path 85" d="M362.566,366.387c-3.816,4.5-4.623,10.249-5.4,15.924-3.834-1.3-8.082.88-12.052.085a15.257,15.257,0,0,0-6.2-.719c-1.468-.14-2.924-1.063-4.325-.593-2.329,1.475-.061-7.661-.2-10.317C333.171,325.974,369.5,347.764,362.566,366.387Z" transform="translate(-278.636 -267.28)" fill="#fff"/>
      <path id="Path_86" data-name="Path 86" d="M449.19,357.663c1.117-.944,2.234-1.892,3.258-2.932a44.669,44.669,0,0,0,3.995-4.883,25.557,25.557,0,0,0,3.385-5.611c.91-2.336,1.189-4.993,2.772-6.931a1.587,1.587,0,0,1,.715-.559c.9-.284,1.574.846,1.748,1.782.846,4.579-1.172,9.149-3.136,13.372a12.151,12.151,0,0,1-2.446,3.876,22.933,22.933,0,0,1-1.925,1.477,20.157,20.157,0,0,0-2.725,2.683q-2.116,2.4-4.024,4.981a54.545,54.545,0,0,1-4.93,6.2,12.411,12.411,0,0,1-6.83,3.754c.749-.1.5-4.5.423-5.053a25.7,25.7,0,0,1-.681-2.539c-.021-.965.372-1.1,1.168-1.782Z" transform="translate(-343.358 -262.579)" fill="#efb7b9"/>
      <path id="Path_87" data-name="Path 87" d="M372.113,375.811l-.03.055c-.732,1.358-1.828,2.5-2.581,3.855a17.031,17.031,0,0,0-1.578,5q-.351,1.735-.647,3.474a46.675,46.675,0,0,1-4.4-2.865,37.284,37.284,0,0,1-7.566-8.569,23.524,23.524,0,0,1-3.99-7.782c-.69-2.848-.288-6.123,1.693-8.273a5.315,5.315,0,0,1,3.25-1.739c3.538-.377,5.772.99,8.192,3.593s3.919,5.924,5.463,9.115C370.6,373.06,371.3,374.478,372.113,375.811Z" transform="translate(-289.398 -276.25)" opacity="0.1"/>
      <path id="Path_88" data-name="Path 88" d="M361.824,354.537a5.307,5.307,0,0,0-3.25,1.735c-2,2.15-2.4,5.421-1.693,8.273a24.075,24.075,0,0,0,3.99,7.786,37.347,37.347,0,0,0,7.566,8.565,57.028,57.028,0,0,0,5.1,3.3c2.922,1.8,5.73,1.239,8.408,3.385a7.068,7.068,0,0,0,1.989,1.27,5.672,5.672,0,0,0,1.942.254c2.222-.024,4.411-1.38,6.415-2.34a1.181,1.181,0,0,0,.482-.347,1.3,1.3,0,0,0,.021-1.037c-1.193-4.824,1.109-6.91-1.176-11.32-2.484.808-5.209,1.693-7.693,2.48a2.815,2.815,0,0,1-1.2.2,2.538,2.538,0,0,1-1.295-.707c-2.691-2.327-4.388-5.569-5.924-8.772s-3.043-6.508-5.463-9.115S365.362,354.161,361.824,354.537Z" transform="translate(-292.775 -273.499)" fill="#fff"/>
      <path id="Path_89" data-name="Path 89" d="M386.493,718.829a3.762,3.762,0,0,1-4.426.694,3.7,3.7,0,0,1-.821-.576l-8.751-6.5-3.47-2.577a3.673,3.673,0,0,1-.055-5.328l2.3-1.794.952-.745,1.278-1,1.117-.872,7.168,4.02.123.237,5.425,10.461a3.772,3.772,0,0,1-.842,3.974Z" transform="translate(-299.761 -485.663)" fill="#2f2e41"/>
      <path id="Path_90" data-name="Path 90" d="M238.74,709.942a3.761,3.761,0,0,1-4.426.694c-.114-.059-.229-.127-.339-.2a3.712,3.712,0,0,1-.482-.377l-8.751-6.5-.546-.406-2.924-2.171a3.673,3.673,0,0,1-.055-5.328l2.3-1.794.952-.745,1.278-1,1.117-.872.182.1,6.288,3.525.7.393.123.237,5.425,10.461A3.772,3.772,0,0,1,238.74,709.942Z" transform="translate(-209.022 -480.161)" fill="#2f2e41"/>
      <path id="Path_91" data-name="Path 91" d="M369.555,266.959c-4.916-5.57-10.458-8.233-17.1-5.788-10.662-3.579-24.678,21.016-16.048,29.936l14.616,1.219,4.475-8.059-1.584,8.347,11.691,1.167C359.638,284.509,361.551,275.595,369.555,266.959Z" transform="translate(-278.736 -215.733)" fill="#2f2e41"/>
      <circle id="Ellipse_25" data-name="Ellipse 25" cx="11.093" cy="11.093" r="11.093" transform="translate(135.636 69.57)" fill="#fff"/>
      <path id="Path_40" data-name="Path 40" d="M635.971,350.4a1.3,1.3,0,1,0,0,2.594h35.023a1.3,1.3,0,0,0,.043-2.594H635.971Z" transform="translate(-463.719 -271.167)" stroke="#000" stroke-width="1"/>
      <path id="Path_40-2" data-name="Path 40" d="M635.971,330.67a1.3,1.3,0,1,0,0,2.594h17.49a1.3,1.3,0,1,0,.043-2.594H635.971Z" transform="translate(-463.837 -259.055)" stroke="#000" stroke-width="1"/>
      <path id="Path_40-3" data-name="Path 40" d="M635.971,371.064a1.3,1.3,0,1,0,0,2.594h35.023a1.3,1.3,0,0,0,.043-2.594H635.971Z" transform="translate(-463.719 -283.857)" stroke="#000" stroke-width="1"/>
      <circle id="Ellipse_26" data-name="Ellipse 26" cx="2.762" cy="2.762" r="2.762" transform="translate(179.996 118.822)" stroke="#000" stroke-width="1"/>
      <path id="Path_40-4" data-name="Path 40" d="M693.51,456.411a1.43,1.43,0,1,0,0,2.86h67.423a1.43,1.43,0,1,0,.047-2.86H693.51Z" transform="translate(-498.705 -336.257)" stroke="#000" stroke-width="1"/>
      <circle id="Ellipse_27" data-name="Ellipse 27" cx="2.762" cy="2.762" r="2.762" transform="translate(179.996 132.419)" stroke="#000" stroke-width="1"/>
      <path id="Path_40-5" data-name="Path 40" d="M693.51,491.63a1.43,1.43,0,1,0,0,2.861h67.423a1.43,1.43,0,1,0,.047-2.86H693.51Z" transform="translate(-498.705 -357.881)" stroke="#000" stroke-width="1"/>
      <circle id="Ellipse_28" data-name="Ellipse 28" cx="2.762" cy="2.762" r="2.762" transform="translate(179.996 146.016)" stroke="#000" stroke-width="1"/>
      <path id="Path_40-6" data-name="Path 40" d="M693.51,526.849a1.43,1.43,0,1,0,0,2.86h67.423a1.43,1.43,0,1,0,.047-2.86H693.51Z" transform="translate(-498.705 -379.505)" stroke="#000" stroke-width="1"/>
      <circle id="Ellipse_29" data-name="Ellipse 29" cx="2.762" cy="2.762" r="2.762" transform="translate(179.996 159.613)" stroke="#000" stroke-width="1"/>
      <path id="Path_40-7" data-name="Path 40" d="M693.51,562.068a1.43,1.43,0,1,0,0,2.86h67.423a1.43,1.43,0,1,0,.047-2.86H693.51Z" transform="translate(-498.705 -401.13)" stroke="#000" stroke-width="1"/>
      <circle id="Ellipse_30" data-name="Ellipse 30" cx="2.762" cy="2.762" r="2.762" transform="translate(179.996 173.21)" stroke="#000" stroke-width="1"/>
      <path id="Path_40-8" data-name="Path 40" d="M693.51,597.287a1.43,1.43,0,1,0,0,2.861h67.423a1.43,1.43,0,1,0,.047-2.86H693.51Z" transform="translate(-498.705 -422.754)" stroke="#000" stroke-width="1"/>
      <circle id="Ellipse_31" data-name="Ellipse 31" cx="2.762" cy="2.762" r="2.762" transform="translate(179.996 186.807)" stroke="#000" stroke-width="1"/>
      <path id="Path_40-9" data-name="Path 40" d="M693.51,632.506a1.43,1.43,0,1,0,0,2.86h67.423a1.43,1.43,0,1,0,.047-2.86H693.51Z" transform="translate(-498.705 -444.378)" stroke="#000" stroke-width="1"/>
      <circle id="Ellipse_32" data-name="Ellipse 32" cx="2.762" cy="2.762" r="2.762" transform="translate(179.996 200.797)" stroke="#000" stroke-width="1"/>
      <path id="Path_40-10" data-name="Path 40" d="M693.51,667.725a1.43,1.43,0,1,0,0,2.861h67.423a1.43,1.43,0,1,0,.047-2.86H693.51Z" transform="translate(-498.705 -465.596)" stroke="#000" stroke-width="1"/>
      <path id="Path_92" data-name="Path 92" d="M968.284,547.6c-.059,1.456-1.531,31.51-21.721,47.932q-1.267,1.03-2.632,1.985l-.687-.671h.4a1.776,1.776,0,0,0,1.775-1.775V535.831c.422-2.273.821-4.506,1.184-6.68,1.969-11.817,2.88-21.8,1.4-25.947.639,1.6,13.471,34.367,6.5,67.751C961.411,561.506,967.96,551.586,968.284,547.6Z" transform="translate(-653.534 -363.744)" stroke="#000" stroke-width="1"/>
    </g>
  </g>
</svg>
