<svg xmlns="http://www.w3.org/2000/svg" xmlns:xlink="http://www.w3.org/1999/xlink" width="418.389" height="302.033" viewBox="0 0 418.389 302.033">
  <defs>
    <linearGradient id="linear-gradient" x1="-11.741" y1="5.084" x2="-11.741" y2="4.933" gradientUnits="objectBoundingBox">
      <stop offset="0" stop-color="gray" stop-opacity="0.251"/>
      <stop offset="0.535" stop-color="gray" stop-opacity="0.122"/>
      <stop offset="1" stop-color="gray" stop-opacity="0.102"/>
    </linearGradient>
  </defs>
  <g id="Group_10" data-name="Group 10" transform="translate(-1406 -1092)">
    <g id="undraw_Graduation_ktn0" transform="translate(1405.995 1092.081)">
      <ellipse id="Ellipse_7" data-name="Ellipse 7" cx="18.46" cy="2.769" rx="18.46" ry="2.769" transform="translate(4.97 166.32) rotate(-63.611)" fill="#7d7d7d"/>
      <ellipse id="Ellipse_8" data-name="Ellipse 8" cx="18.46" cy="1.881" rx="18.46" ry="1.881" transform="translate(236.435 281.274) rotate(-63.611)" fill="#7d7d7d"/>
      <rect id="Rectangle_15" data-name="Rectangle 15" width="11.076" height="36.921" transform="translate(115.939 213.188) rotate(39.547)" fill="#f55f44"/>
      <rect id="Rectangle_16" data-name="Rectangle 16" width="12.463" height="36.921" transform="translate(116.973 253.834) rotate(-166.769)" opacity="0.05"/>
      <rect id="Rectangle_17" data-name="Rectangle 17" width="11.076" height="36.921" transform="translate(116.973 253.833) rotate(-166.769)" fill="#f55f44"/>
      <rect id="Rectangle_18" data-name="Rectangle 18" width="38.767" height="257.524" transform="translate(7.04 168.377) rotate(-63.611)" fill="url(#linear-gradient)"/>
      <path id="Path_9" data-name="Path 9" d="M447.116,566.166c-4.515-2.166-234-116.1-230.688-114.461,12.737-19.44,16.41-33.074,16.41-33.074l230.688,114.46S455.425,547.31,447.116,566.166Z" transform="translate(-208.979 -284.155)" fill="#9b9b9b"/>
      <rect id="Rectangle_19" data-name="Rectangle 19" width="21.23" height="36.921" transform="translate(124.734 184.53) rotate(26.389)" opacity="0.05"/>
      <rect id="Rectangle_20" data-name="Rectangle 20" width="19.383" height="36.921" transform="translate(125.561 184.94) rotate(26.389)" fill="#f55f44"/>
      <rect id="Rectangle_21" data-name="Rectangle 21" width="12.922" height="36.921" transform="translate(128.041 186.17) rotate(26.389)" opacity="0.05"/>
      <rect id="Rectangle_22" data-name="Rectangle 22" width="11.076" height="36.921" transform="translate(128.868 186.581) rotate(26.389)" fill="#f55f44"/>
      <circle id="Ellipse_9" data-name="Ellipse 9" cx="1.539" cy="1.539" r="1.539" transform="translate(135.915 295.096)" fill="#dbdbdb"/>
      <g id="Group_3" data-name="Group 3" transform="translate(11.782 253.541)" opacity="0.5">
        <rect id="Rectangle_23" data-name="Rectangle 23" width="2" height="9" transform="translate(3.612 0.378)" fill="#47e6b1"/>
        <rect id="Rectangle_24" data-name="Rectangle 24" width="2" height="9" transform="translate(8.612 3.378) rotate(90)" fill="#47e6b1"/>
      </g>
      <g id="Group_4" data-name="Group 4" transform="translate(409.452 142.025)" opacity="0.5">
        <rect id="Rectangle_25" data-name="Rectangle 25" width="1" height="9" transform="translate(3.942 -0.106)" fill="#47e6b1"/>
        <rect id="Rectangle_26" data-name="Rectangle 26" width="1" height="9" transform="translate(8.942 3.894) rotate(90)" fill="#47e6b1"/>
      </g>
      <g id="Group_5" data-name="Group 5" transform="translate(21.251 31.035)" opacity="0.5">
        <rect id="Rectangle_27" data-name="Rectangle 27" width="1" height="9" transform="translate(4.144 -0.117)" fill="#47e6b1"/>
        <rect id="Rectangle_28" data-name="Rectangle 28" width="1" height="9" transform="translate(9.144 3.884) rotate(90)" fill="#47e6b1"/>
      </g>
      <g id="Group_6" data-name="Group 6" transform="translate(362.11 17.359)" opacity="0.5">
        <rect id="Rectangle_29" data-name="Rectangle 29" width="2" height="9" transform="translate(3.284 -0.44)" fill="#47e6b1"/>
        <rect id="Rectangle_30" data-name="Rectangle 30" width="2" height="9" transform="translate(9.284 3.56) rotate(90)" fill="#47e6b1"/>
      </g>
      <path id="Path_10" data-name="Path 10" d="M208.77,413.212a1.933,1.933,0,0,1-1.077-2.336.93.93,0,0,0,.042-.214h0a.969.969,0,0,0-1.741-.642h0a.928.928,0,0,0-.107.19,1.933,1.933,0,0,1-2.336,1.077.927.927,0,0,0-.214-.042h0a.969.969,0,0,0-.642,1.741h0a.927.927,0,0,0,.19.107,1.933,1.933,0,0,1,1.077,2.336.929.929,0,0,0-.042.214h0a.969.969,0,0,0,1.741.642h0a.928.928,0,0,0,.107-.19,1.933,1.933,0,0,1,2.336-1.077.93.93,0,0,0,.214.042h0a.969.969,0,0,0,.642-1.741h0a.928.928,0,0,0-.19-.107Z" transform="translate(-202.303 -279.89)" fill="#4d8af0" opacity="0.5"/>
      <path id="Path_11" data-name="Path 11" d="M380.77,216.212a1.933,1.933,0,0,1-1.077-2.336.932.932,0,0,0,.042-.214h0a.969.969,0,0,0-1.741-.642h0a.929.929,0,0,0-.107.19,1.933,1.933,0,0,1-2.336,1.077.929.929,0,0,0-.214-.042h0a.969.969,0,0,0-.642,1.741h0a.929.929,0,0,0,.19.107,1.933,1.933,0,0,1,1.077,2.336.928.928,0,0,0-.042.214h0a.969.969,0,0,0,1.741.642h0a.93.93,0,0,0,.107-.19,1.933,1.933,0,0,1,2.336-1.077.93.93,0,0,0,.214.042h0a.969.969,0,0,0,.642-1.741h0A.931.931,0,0,0,380.77,216.212Z" transform="translate(-283.828 -186.516)" fill="#4d8af0" opacity="0.5"/>
      <path id="Path_12" data-name="Path 12" d="M590.77,727.212a1.933,1.933,0,0,1-1.077-2.336.928.928,0,0,0,.042-.214h0a.969.969,0,0,0-1.741-.642h0a.935.935,0,0,0-.107.19,1.933,1.933,0,0,1-2.336,1.077.929.929,0,0,0-.214-.042h0a.969.969,0,0,0-.642,1.741h0a.926.926,0,0,0,.19.107,1.933,1.933,0,0,1,1.077,2.336.927.927,0,0,0-.042.214h0a.969.969,0,0,0,1.741.642h0a.933.933,0,0,0,.107-.19,1.933,1.933,0,0,1,2.336-1.077.931.931,0,0,0,.214.042h0a.969.969,0,0,0,.642-1.741h0A.932.932,0,0,0,590.77,727.212Z" transform="translate(-383.364 -428.72)" fill="#4d8af0" opacity="0.5"/>
      <ellipse id="Ellipse_10" data-name="Ellipse 10" cx="3" cy="3.5" rx="3" ry="3.5" transform="translate(396.394 229.919)" fill="#f55f44" opacity="0.5"/>
      <circle id="Ellipse_11" data-name="Ellipse 11" cx="3.5" cy="3.5" r="3.5" transform="translate(326.394 249.919)" fill="#4d8af0" opacity="0.5"/>
      <circle id="Ellipse_12" data-name="Ellipse 12" cx="3" cy="3" r="3" transform="translate(51.394 281.919)" fill="#47e6b1" opacity="0.5"/>
      <circle id="Ellipse_13" data-name="Ellipse 13" cx="3" cy="3" r="3" transform="translate(213.394 -0.081)" fill="#f55f44" opacity="0.5"/>
      <path id="Path_13" data-name="Path 13" d="M395.821,482.088,383.2,501.025s4.208,19.463,97.313,18.937S580.98,501.025,580.98,501.025l-17.359-25.249-53.128-36.3Z" transform="translate(-288.041 -294.037)" fill="#276678"/>
      <path id="Path_14" data-name="Path 14" d="M395.821,482.088,383.2,501.025s4.208,19.463,97.313,18.937S580.98,501.025,580.98,501.025l-17.359-25.249-53.128-36.3Z" transform="translate(-288.041 -294.037)" fill="none" opacity="0.15"/>
      <path id="Path_15" data-name="Path 15" d="M384.081,148.163l-165.7,73.117L16.394,148.163,201.552,64l90.891,41.908,3.256,1.5Z" transform="translate(-7.768 -30.335)" fill="#276678"/>
      <path id="Path_17" data-name="Path 17" d="M547.87,203.452l-3.156.189-3.53-59.971,3.256,1.5Z" transform="translate(-256.509 -68.097)" fill="#f5f5f5"/>
      <path id="Path_18" data-name="Path 18" d="M397.925,376.827,383.2,466.25s105.73-34.191,197.783,0L567.3,371.567S443.689,356.312,397.925,376.827Z" transform="translate(-288.041 -259.262)" fill="#1687a7"/>
      <ellipse id="Ellipse_14" data-name="Ellipse 14" cx="15.5" cy="10.5" rx="15.5" ry="10.5" transform="translate(275.394 132.919)" fill="#f5f5f5"/>
    </g>
  </g>
</svg>
