<svg xmlns="http://www.w3.org/2000/svg" width="337.5" height="217.425" viewBox="0 0 337.5 217.425">
  <g id="Group_12" data-name="Group 12" transform="translate(-107.5 -1144.667)">
    <g id="undraw_Account_re_o7id" transform="translate(67.5 1125.057)">
      <path id="Path_141" data-name="Path 141" d="M698.884,378.029H544.262a1.8,1.8,0,0,1-1.8-1.8V232.639a1.8,1.8,0,0,1,1.8-1.8H698.884a1.8,1.8,0,0,1,1.8,1.8V376.232a1.8,1.8,0,0,1-1.8,1.8ZM544.262,231.559a1.08,1.08,0,0,0-1.077,1.077V376.232a1.08,1.08,0,0,0,1.077,1.077H698.884a1.079,1.079,0,0,0,1.077-1.077V232.639a1.08,1.08,0,0,0-1.077-1.077Z" transform="translate(-324.681 -142.495)" stroke="#000" stroke-width="3"/>
      <path id="Path_142" data-name="Path 142" d="M762.407,341.671a1.22,1.22,0,1,0,0,2.44h66.949a1.22,1.22,0,1,0,0-2.44Z" transform="translate(-469.766 -216.011)"/>
      <path id="Path_143" data-name="Path 143" d="M762.407,363.417a1.22,1.22,0,1,0,0,2.44h34.179a1.22,1.22,0,1,0,0-2.44Z" transform="translate(-469.766 -230.436)"/>
      <path id="Path_142-2" data-name="Path 142" d="M588.6,468.671a1.22,1.22,0,0,0,0,2.44H714.13a1.22,1.22,0,0,0,0-2.44Z" transform="translate(-354.475 -300.254)"/>
      <path id="Path_143-2" data-name="Path 143" d="M588.6,490.417a1.22,1.22,0,1,0,0,2.44h92.76a1.22,1.22,0,0,0,0-2.44Z" transform="translate(-354.475 -314.678)"/>
      <path id="Path_142-3" data-name="Path 142" d="M588.6,511.671a1.22,1.22,0,0,0,0,2.44H714.13a1.22,1.22,0,0,0,0-2.44Z" transform="translate(-354.475 -328.777)"/>
      <path id="Path_143-3" data-name="Path 143" d="M588.6,533.417a1.22,1.22,0,1,0,0,2.44h92.76a1.22,1.22,0,0,0,0-2.44Z" transform="translate(-354.475 -343.201)"/>
      <path id="Path_154" data-name="Path 154" d="M520.724,327.46H422.763a1.816,1.816,0,0,1-1.814-1.814v-42.99a1.816,1.816,0,0,1,1.814-1.814h97.961a1.816,1.816,0,0,1,1.814,1.814v42.99A1.816,1.816,0,0,1,520.724,327.46Z" transform="translate(-264.043 -217.172)" fill="#276678"/>
      <path id="Path_154-2" data-name="Path 154" d="M885.533,599.33H848.746a1.8,1.8,0,0,1-1.8-1.8v-5.894a1.8,1.8,0,0,1,1.8-1.8h36.787a1.8,1.8,0,0,1,1.8,1.8v5.894A1.8,1.8,0,0,1,885.533,599.33Z" transform="translate(-526.655 -380.63)" fill="#1687a7"/>
      <path id="Path_93" data-name="Path 93" d="M311.7,390.362a5.56,5.56,0,0,1-1.547-7.35,4.593,4.593,0,0,1,.505-.632l.151-46.822,6.96,1.3.306,46.05a5.463,5.463,0,0,1,.622,6.481A4.793,4.793,0,0,1,311.7,390.362Z" transform="translate(-208.357 -266.585)" fill="#ffb8b8"/>
      <path id="Path_94" data-name="Path 94" d="M198.682,395.734h7.175l3.414-27.675h-10.59Z" transform="translate(-59.145 -167.155)" fill="#ffb8b8"/>
      <path id="Path_95" data-name="Path 95" d="M382.626,649.466h14.131a9.005,9.005,0,0,1,9,9v.293H382.626Z" transform="translate(-244.919 -423.23)" fill="#2f2e41"/>
      <path id="Path_96" data-name="Path 96" d="M65.505,395.734h7.176l3.413-27.675H65.5Z" transform="translate(7.312 -167.155)" fill="#ffb8b8"/>
      <path id="Path_97" data-name="Path 97" d="M249.449,649.466H263.58a9.005,9.005,0,0,1,9.005,9v.293H249.449Z" transform="translate(-178.462 -423.23)" fill="#2f2e41"/>
      <path id="Path_98" data-name="Path 98" d="M316.63,518.361l-.6-3.608a2.861,2.861,0,0,1-1.487-1.194,5.482,5.482,0,0,1-.306-4.269l-4.841-40.884-25.275-26.224L267.9,481.292l-6.419,30.948v4.471l-12.815,1.646.583-4.215a2.454,2.454,0,0,1-1.164-1.037c-.736-1.226-.726-3.125.03-5.645l.033-.109-.042-.376c-.03-.264.163-25.543,7.678-38.067l7.526-38.026c-.2-.535-1.16-3.653.609-8.922,1.746-5.2,6.631-13.576,19.982-23.953l.046-.035.057-.012c.148-.031,14.874-2.958,22.49,7l.051.067v.085c0,.616-.013,14.944-1.146,18.124l18.072,33.229c.352.373,3.511,4.021,2.389,13.614l2.919,32.7c.334.638,3.356,6.643.025,9.021l.6,4.129Z" transform="translate(-177.512 -297.512)" fill="#2f2e41"/>
      <path id="Path_99" data-name="Path 99" d="M314.422,338.754a11.328,11.328,0,0,1-10.663-6.728l-.054-.109,6.8-14.415a7.9,7.9,0,0,1,14.442,6.415l-5.88,14.094-.1.038A14.7,14.7,0,0,1,314.422,338.754Z" transform="translate(-205.536 -255.31)" fill="#fff"/>
      <path id="Path_100" data-name="Path 100" d="M341.344,368.229l-21.438-10.123,2.947-35.951,5.372-6.566,1.041-.223a27.394,27.394,0,0,1,14.393.8l.1.034,8.825,18.825c.055.094,6.419,11.33-2.378,17.253Z" transform="translate(-213.621 -256.205)" fill="#1687a7"/>
      <path id="Path_101" data-name="Path 101" d="M388.56,382.412a5.271,5.271,0,0,0-.739.379l-22.59-10.334-.58-6.007-9.18-.31-.008,10.734a4.007,4.007,0,0,0,2.883,3.849l27.127,7.928a5.258,5.258,0,1,0,3.086-6.239Z" transform="translate(-231.365 -281.845)" fill="#ffb8b8"/>
      <path id="Path_102" data-name="Path 102" d="M358.05,345.419a11.431,11.431,0,0,1-8.268-3.679l-.086-.086,1.884-15.827a7.9,7.9,0,0,1,15.731,1.51L366.2,342.568l-.085.068A14.369,14.369,0,0,1,358.05,345.419Z" transform="translate(-228.487 -258.251)" fill="#fff"/>
      <ellipse id="Ellipse_33" data-name="Ellipse 33" cx="14.375" cy="14.375" rx="14.375" ry="14.375" transform="translate(104.33 45.683) rotate(-61.337)" fill="#ffb8b8"/>
      <path id="Path_103" data-name="Path 103" d="M294.7,249.762a12.167,12.167,0,0,0-8.011-8.995,17.345,17.345,0,0,0-12.326.671,20.466,20.466,0,0,0-1.9.911c-1.42-2.707-4.9-4.277-8.086-4.107-3.847.2-7.321,2.24-10.662,4.158s-6.926,3.827-10.778,3.738c-6.96-.161-12.138-6.614-18.831-8.532a15.06,15.06,0,0,0-16.574,22.986c2.856-5.118,9.562-6.846,15.381-6.149s11.242,3.247,16.943,4.606,12.3,1.3,16.719-2.553c2.5-2.185,3.976-5.309,6.156-7.818a10.156,10.156,0,0,1,5.72-3.467,17.361,17.361,0,0,0-4.7,6.969,14.471,14.471,0,0,0,2.768,14.514c3.826,4.028,9.831,5.1,15.386,5.036l.116-.118c-1.7-2.546-3.043-6.076-1.171-8.5,1.849-2.391,5.494-2.039,8.325-3.1C293.128,258.543,295.415,253.911,294.7,249.762Z" transform="translate(-156.234 -217.414)" fill="#2f2e41"/>
      <path id="Path_104" data-name="Path 104" d="M324.866,668.16H188.1a.5.5,0,0,1,0-1H324.866a.5.5,0,0,1,0,1Z" transform="translate(-147.596 -432.058)" fill="#ccc"/>
      <path id="Path_155" data-name="Path 155" d="M555.992,325.212c-.425,0-.77.554-.769,1.234s.345,1.228.769,1.229H592.31c.425,0,.77-.554.769-1.234s-.344-1.228-.769-1.229Z" transform="translate(-352.688 -246.464)"/>
      <path id="Path_156" data-name="Path 156" d="M555.992,346.212c-.425,0-.77.554-.769,1.234s.345,1.228.769,1.229H592.31c.425,0,.77-.554.769-1.234s-.344-1.228-.769-1.229Z" transform="translate(-352.688 -260.328)"/>
      <path id="Path_157" data-name="Path 157" d="M555.992,366.958c-.425,0-.77.554-.769,1.234s.345,1.228.769,1.229H571.62c.425,0,.77-.554.769-1.234s-.345-1.228-.769-1.229Z" transform="translate(-352.688 -274.024)"/>
      <ellipse id="Ellipse_34" data-name="Ellipse 34" cx="9.855" cy="9.855" rx="9.855" ry="9.855" transform="translate(175.01 77.124)" fill="#fff"/>
    </g>
  </g>
</svg>
